<?xml version="1.0" encoding="UTF-8"?>
<svg id="_レイヤー_1" data-name="レイヤー 1" xmlns="http://www.w3.org/2000/svg" xmlns:xlink="http://www.w3.org/1999/xlink" viewBox="0 0 1920 200">
  <defs>
    <style>
      .cls-1 {
        fill: url(#linear-gradient-15);
      }

      .cls-2 {
        fill: url(#linear-gradient-13);
      }

      .cls-3 {
        fill: url(#linear-gradient-2);
      }

      .cls-4 {
        stroke: #036eb7;
        stroke-width: 14.91px;
      }

      .cls-4, .cls-5 {
        fill: #036eb7;
        stroke-linejoin: round;
      }

      .cls-6 {
        fill: url(#linear-gradient-10);
      }

      .cls-7 {
        fill: url(#linear-gradient-12);
      }

      .cls-8 {
        fill: blue;
      }

      .cls-9 {
        fill: url(#linear-gradient-4);
      }

      .cls-10 {
        fill: url(#linear-gradient-3);
      }

      .cls-11 {
        fill: url(#linear-gradient-5);
      }

      .cls-12 {
        fill: url(#linear-gradient-8);
      }

      .cls-13 {
        fill: url(#linear-gradient-14);
      }

      .cls-5 {
        stroke: #fff;
        stroke-width: 29.82px;
      }

      .cls-14 {
        fill: url(#linear-gradient-17);
      }

      .cls-15 {
        fill: url(#linear-gradient-7);
      }

      .cls-16 {
        fill: url(#linear-gradient-9);
      }

      .cls-17 {
        fill: url(#linear-gradient-11);
      }

      .cls-18 {
        fill: url(#linear-gradient-19);
      }

      .cls-19 {
        fill: url(#linear-gradient-6);
      }

      .cls-20 {
        fill: url(#linear-gradient-16);
      }

      .cls-21 {
        fill: url(#linear-gradient);
      }

      .cls-22 {
        fill: url(#linear-gradient-18);
      }
    </style>
    <linearGradient id="linear-gradient" x1="1113.46" y1="159.48" x2="1113.46" y2="39.54" gradientUnits="userSpaceOnUse">
      <stop offset="0" stop-color="#fff"/>
      <stop offset=".11" stop-color="#fffccc"/>
      <stop offset=".24" stop-color="#fff896"/>
      <stop offset=".37" stop-color="#fff668"/>
      <stop offset=".5" stop-color="#fff342"/>
      <stop offset=".63" stop-color="#fff225"/>
      <stop offset=".76" stop-color="#fff010"/>
      <stop offset=".88" stop-color="#fff004"/>
      <stop offset="1" stop-color="#fff000"/>
    </linearGradient>
    <linearGradient id="linear-gradient-2" x1="1268.88" y1="77.34" x2="1268.88" y2="40.14" xlink:href="#linear-gradient"/>
    <linearGradient id="linear-gradient-3" x1="1260.1" x2="1260.1" y2="89.99" xlink:href="#linear-gradient"/>
    <linearGradient id="linear-gradient-4" x1="1394.51" y1="116.48" x2="1394.51" y2="79.27" xlink:href="#linear-gradient"/>
    <linearGradient id="linear-gradient-5" x1="1497.7" y1="66.92" x2="1497.7" y2="40.14" xlink:href="#linear-gradient"/>
    <linearGradient id="linear-gradient-6" x1="1491.28" y1="103.38" x2="1491.28" y2="76.45" xlink:href="#linear-gradient"/>
    <linearGradient id="linear-gradient-7" x1="1557.92" x2="1557.92" y2="40.14" xlink:href="#linear-gradient"/>
    <linearGradient id="linear-gradient-8" x1="1664.94" x2="1664.94" y2="66.18" xlink:href="#linear-gradient"/>
    <linearGradient id="linear-gradient-9" x1="1764.91" y1="77.78" x2="1764.91" y2="40.73" xlink:href="#linear-gradient"/>
    <linearGradient id="linear-gradient-10" x1="1790.47" x2="1790.47" y2="79.72" xlink:href="#linear-gradient"/>
    <linearGradient id="linear-gradient-11" x1="150.04" y1="160.34" x2="150.04" y2="41.3" xlink:href="#linear-gradient"/>
    <linearGradient id="linear-gradient-12" x1="301.75" y1="160.34" x2="301.75" y2="41.3" xlink:href="#linear-gradient"/>
    <linearGradient id="linear-gradient-13" x1="454.26" y1="160.34" x2="454.26" y2="41.3" xlink:href="#linear-gradient"/>
    <linearGradient id="linear-gradient-14" x1="612.74" y1="78.06" x2="612.74" y2="41.01" xlink:href="#linear-gradient"/>
    <linearGradient id="linear-gradient-15" x1="603.9" y1="160.34" x2="603.9" y2="89.07" xlink:href="#linear-gradient"/>
    <linearGradient id="linear-gradient-16" x1="762.53" y1="160.34" x2="762.53" y2="40.98" xlink:href="#linear-gradient"/>
    <linearGradient id="linear-gradient-17" x1="914.62" y1="160.34" x2="914.62" y2="41.01" xlink:href="#linear-gradient"/>
    <linearGradient id="linear-gradient-18" x1="985.21" y1="89.02" x2="985.21" y2="36.49" xlink:href="#linear-gradient"/>
    <linearGradient id="linear-gradient-19" x1="1015.41" y1="89.02" x2="1015.41" y2="36.49" xlink:href="#linear-gradient"/>
  </defs>
  <rect class="cls-8" x="-.15" y="-.05" width="1919.89" height="200.18"/>
  <path class="cls-5" d="M1171.84,162.29c-.18.99-.81,1.49-1.9,1.49h-46.43c-1.77,0-2.91-.89-3.44-2.68l-7.13-24.7c-.2-.79-.63-1.19-1.3-1.19-.51,0-1.02.3-1.54.89l-23.01,25.3c-1.46,1.59-3.03,2.38-4.71,2.38h-46.3c-1.01,0-1.45-.35-1.33-1.04.05-.3.3-.74.74-1.34l70.64-77.97c.44-.6.69-1.04.74-1.34.12-.69-.28-1.04-1.2-1.04h-50.84c-1.68,0-2.34-1.04-1.97-3.13l5.46-30.95c.37-2.08,1.39-3.12,3.07-3.12h129.56c.93,0,1.33.35,1.21,1.04-.05.3-.3.74-.74,1.34l-55.29,61.01c-.43.5-.66.89-.72,1.19-.14.79.3,1.19,1.31,1.19h17.53c1.77,0,2.91.89,3.44,2.68,9.52,32.83,14.23,49.5,14.15,49.99Z"/>
  <path class="cls-5" d="M1337.24,78.52c-.37,2.08-1.43,3.12-3.2,3.12h-136.88c-1.77,0-2.46-1.04-2.1-3.12l5.46-30.95c.37-2.08,1.39-3.12,3.07-3.12h136.88c1.85,0,2.59,1.04,2.22,3.12l-5.46,30.95Z"/>
  <path class="cls-5" d="M1328.45,128.36c-.37,2.08-1.43,3.12-3.2,3.12h-39.86c-1.77,0-2.82.99-3.17,2.98l-4.62,26.19c-.37,2.08-1.43,3.12-3.2,3.12h-46.3c-1.77,0-2.46-1.04-2.1-3.12l4.62-26.19c.35-1.99-.32-2.98-2-2.98h-40.24c-1.77,0-2.46-1.04-2.1-3.12l5.48-31.1c.35-1.98,1.36-2.97,3.05-2.97h136.88c1.85,0,2.6.99,2.25,2.97l-5.48,31.1Z"/>
  <path class="cls-5" d="M1441.74,117.65c-.37,2.09-1.43,3.13-3.2,3.13h-94.62c-1.77,0-2.47-1.04-2.1-3.13l5.46-30.95c.37-2.09,1.39-3.13,3.08-3.13h94.62c1.85,0,2.59,1.04,2.22,3.13l-5.46,30.95Z"/>
  <path class="cls-5" d="M1529.55,68.26c-.35,1.97-1.41,2.96-3.17,2.96h-62.19c-1.68,0-2.35-.99-2-2.96l3.68-20.86c.35-1.97,1.36-2.96,3.05-2.96h62.19c1.77,0,2.48.99,2.13,2.96l-3.68,20.86Z"/>
  <path class="cls-5" d="M1523.12,104.71c-.35,1.99-1.41,2.97-3.17,2.97h-62.19c-1.68,0-2.35-.99-2-2.97l3.7-20.98c.35-1.99,1.37-2.98,3.05-2.98h62.19c1.77,0,2.47.99,2.12,2.98l-3.7,20.98Z"/>
  <path class="cls-5" d="M1615.43,46.23c-.24,1.39-21.29,39.63-63.12,114.72-1.09,1.88-2.47,2.83-4.15,2.83h-46.3c-1.18,0-1.66-.6-1.45-1.78l63.12-114.72c1.01-1.88,2.39-2.83,4.16-2.83h46.3c1.18,0,1.66.59,1.45,1.78Z"/>
  <path class="cls-5" d="M1709.05,161.4c-.28,1.59-1.09,2.38-2.44,2.38h-99.79c-1.34,0-1.88-.79-1.6-2.38l3.33-18.9c.28-1.59,1.09-2.38,2.44-2.38h59.42c1.34,0,2.16-.79,2.44-2.38l1.1-6.25c.28-1.58-.25-2.38-1.6-2.38h-59.42c-1.34,0-1.87-.84-1.57-2.53l3.33-18.9c.28-1.58,1.09-2.38,2.44-2.38h59.42c1.34,0,2.16-.79,2.44-2.38l1.1-6.24c.3-1.69-.23-2.53-1.57-2.53h-59.42c-1.34,0-1.88-.79-1.6-2.38l3.33-18.9c.28-1.59,1.09-2.38,2.44-2.38h99.79c1.34,0,1.88.79,1.6,2.38l-15.61,88.53Z"/>
  <path class="cls-5" d="M1791.07,78.96c-.37,2.09-1.39,3.12-3.08,3.12h-52.48c-1.85,0-2.59-1.04-2.22-3.12l5.46-30.95c.35-1.98,1.41-2.98,3.17-2.98h52.48c1.77,0,2.47,1,2.12,2.98l-5.46,30.95Z"/>
  <path class="cls-5" d="M1854.3,131.04c-.35,1.99-1.4,3.18-3.15,3.57l-130.54,29.16c-1.52,0-2.12-.84-1.83-2.53l7.82-44.34c.37-2.09,1.42-3.32,3.18-3.72l130.54-29.17c1.51,0,2.12.85,1.82,2.53l-7.84,44.49Z"/>
  <path class="cls-4" d="M1171.84,162.29c-.18.99-.81,1.49-1.9,1.49h-46.43c-1.77,0-2.91-.89-3.44-2.68l-7.13-24.7c-.2-.79-.63-1.19-1.3-1.19-.51,0-1.02.3-1.54.89l-23.01,25.3c-1.46,1.59-3.03,2.38-4.71,2.38h-46.3c-1.01,0-1.45-.35-1.33-1.04.05-.3.3-.74.74-1.34l70.64-77.97c.44-.6.69-1.04.74-1.34.12-.69-.28-1.04-1.2-1.04h-50.84c-1.68,0-2.34-1.04-1.97-3.13l5.46-30.95c.37-2.08,1.39-3.12,3.07-3.12h129.56c.93,0,1.33.35,1.21,1.04-.05.3-.3.74-.74,1.34l-55.29,61.01c-.43.5-.66.89-.72,1.19-.14.79.3,1.19,1.31,1.19h17.53c1.77,0,2.91.89,3.44,2.68,9.52,32.83,14.23,49.5,14.15,49.99Z"/>
  <path class="cls-4" d="M1337.24,78.52c-.37,2.08-1.43,3.12-3.2,3.12h-136.88c-1.77,0-2.46-1.04-2.1-3.12l5.46-30.95c.37-2.08,1.39-3.12,3.07-3.12h136.88c1.85,0,2.59,1.04,2.22,3.12l-5.46,30.95Z"/>
  <path class="cls-4" d="M1328.45,128.36c-.37,2.08-1.43,3.12-3.2,3.12h-39.86c-1.77,0-2.82.99-3.17,2.98l-4.62,26.19c-.37,2.08-1.43,3.12-3.2,3.12h-46.3c-1.77,0-2.46-1.04-2.1-3.12l4.62-26.19c.35-1.99-.32-2.98-2-2.98h-40.24c-1.77,0-2.46-1.04-2.1-3.12l5.48-31.1c.35-1.98,1.36-2.97,3.05-2.97h136.88c1.85,0,2.6.99,2.25,2.97l-5.48,31.1Z"/>
  <path class="cls-4" d="M1441.74,117.65c-.37,2.09-1.43,3.13-3.2,3.13h-94.62c-1.77,0-2.47-1.04-2.1-3.13l5.46-30.95c.37-2.09,1.39-3.13,3.08-3.13h94.62c1.85,0,2.59,1.04,2.22,3.13l-5.46,30.95Z"/>
  <path class="cls-4" d="M1529.55,68.26c-.35,1.97-1.41,2.96-3.17,2.96h-62.19c-1.68,0-2.35-.99-2-2.96l3.68-20.86c.35-1.97,1.36-2.96,3.05-2.96h62.19c1.77,0,2.48.99,2.13,2.96l-3.68,20.86Z"/>
  <path class="cls-4" d="M1523.12,104.71c-.35,1.99-1.41,2.97-3.17,2.97h-62.19c-1.68,0-2.35-.99-2-2.97l3.7-20.98c.35-1.99,1.37-2.98,3.05-2.98h62.19c1.77,0,2.47.99,2.12,2.98l-3.7,20.98Z"/>
  <path class="cls-4" d="M1615.43,46.23c-.24,1.39-21.29,39.63-63.12,114.72-1.09,1.88-2.47,2.83-4.15,2.83h-46.3c-1.18,0-1.66-.6-1.45-1.78l63.12-114.72c1.01-1.88,2.39-2.83,4.16-2.83h46.3c1.18,0,1.66.59,1.45,1.78Z"/>
  <path class="cls-4" d="M1709.05,161.4c-.28,1.59-1.09,2.38-2.44,2.38h-99.79c-1.34,0-1.88-.79-1.6-2.38l3.33-18.9c.28-1.59,1.09-2.38,2.44-2.38h59.42c1.34,0,2.16-.79,2.44-2.38l1.1-6.25c.28-1.58-.25-2.38-1.6-2.38h-59.42c-1.34,0-1.87-.84-1.57-2.53l3.33-18.9c.28-1.58,1.09-2.38,2.44-2.38h59.42c1.34,0,2.16-.79,2.44-2.38l1.1-6.24c.3-1.69-.23-2.53-1.57-2.53h-59.42c-1.34,0-1.88-.79-1.6-2.38l3.33-18.9c.28-1.59,1.09-2.38,2.44-2.38h99.79c1.34,0,1.88.79,1.6,2.38l-15.61,88.53Z"/>
  <path class="cls-4" d="M1791.07,78.96c-.37,2.09-1.39,3.12-3.08,3.12h-52.48c-1.85,0-2.59-1.04-2.22-3.12l5.46-30.95c.35-1.98,1.41-2.98,3.17-2.98h52.48c1.77,0,2.47,1,2.12,2.98l-5.46,30.95Z"/>
  <path class="cls-4" d="M1854.3,131.04c-.35,1.99-1.4,3.18-3.15,3.57l-130.54,29.16c-1.52,0-2.12-.84-1.83-2.53l7.82-44.34c.37-2.09,1.42-3.32,3.18-3.72l130.54-29.17c1.51,0,2.12.85,1.82,2.53l-7.84,44.49Z"/>
  <path class="cls-21" d="M1171.84,157.99c-.18.99-.81,1.49-1.9,1.49h-46.43c-1.77,0-2.91-.89-3.44-2.68l-7.13-24.7c-.2-.79-.63-1.19-1.3-1.19-.51,0-1.02.3-1.54.89l-23.01,25.3c-1.46,1.59-3.03,2.38-4.71,2.38h-46.3c-1.01,0-1.45-.35-1.33-1.04.05-.3.3-.74.74-1.34l70.64-77.97c.44-.6.69-1.04.74-1.34.12-.69-.28-1.04-1.2-1.04h-50.84c-1.68,0-2.34-1.04-1.97-3.13l5.46-30.95c.37-2.08,1.39-3.12,3.07-3.12h129.56c.93,0,1.33.35,1.21,1.04-.05.3-.3.74-.74,1.34l-55.29,61.01c-.43.5-.66.89-.72,1.19-.14.79.3,1.19,1.31,1.19h17.53c1.77,0,2.91.89,3.44,2.68,9.52,32.83,14.23,49.5,14.15,49.99Z"/>
  <path class="cls-3" d="M1337.24,74.22c-.37,2.08-1.43,3.12-3.2,3.12h-136.88c-1.77,0-2.46-1.04-2.1-3.12l5.46-30.95c.37-2.08,1.39-3.12,3.07-3.12h136.88c1.85,0,2.59,1.04,2.22,3.12l-5.46,30.95Z"/>
  <path class="cls-10" d="M1328.45,124.06c-.37,2.08-1.43,3.12-3.2,3.12h-39.86c-1.77,0-2.82.99-3.17,2.98l-4.62,26.19c-.37,2.08-1.43,3.12-3.2,3.12h-46.3c-1.77,0-2.46-1.04-2.1-3.12l4.62-26.19c.35-1.99-.32-2.98-2-2.98h-40.24c-1.77,0-2.46-1.04-2.1-3.12l5.48-31.1c.35-1.98,1.36-2.97,3.05-2.97h136.88c1.85,0,2.6.99,2.25,2.97l-5.48,31.1Z"/>
  <path class="cls-9" d="M1441.74,113.35c-.37,2.09-1.43,3.13-3.2,3.13h-94.62c-1.77,0-2.47-1.04-2.1-3.13l5.46-30.95c.37-2.09,1.39-3.13,3.08-3.13h94.62c1.85,0,2.59,1.04,2.22,3.13l-5.46,30.95Z"/>
  <path class="cls-11" d="M1529.55,63.96c-.35,1.97-1.41,2.96-3.17,2.96h-62.19c-1.68,0-2.35-.99-2-2.96l3.68-20.86c.35-1.97,1.36-2.96,3.05-2.96h62.19c1.77,0,2.48.99,2.13,2.96l-3.68,20.86Z"/>
  <path class="cls-19" d="M1523.12,100.41c-.35,1.99-1.41,2.97-3.17,2.97h-62.19c-1.68,0-2.35-.99-2-2.97l3.7-20.98c.35-1.99,1.37-2.98,3.05-2.98h62.19c1.77,0,2.47.99,2.12,2.98l-3.7,20.98Z"/>
  <path class="cls-15" d="M1615.43,41.92c-.24,1.39-21.29,39.63-63.12,114.72-1.09,1.88-2.47,2.83-4.15,2.83h-46.3c-1.18,0-1.66-.6-1.45-1.78l63.12-114.72c1.01-1.88,2.39-2.83,4.16-2.83h46.3c1.18,0,1.66.59,1.45,1.78Z"/>
  <path class="cls-12" d="M1709.05,157.1c-.28,1.59-1.09,2.38-2.44,2.38h-99.79c-1.34,0-1.88-.79-1.6-2.38l3.33-18.9c.28-1.59,1.09-2.38,2.44-2.38h59.42c1.34,0,2.16-.79,2.44-2.38l1.1-6.25c.28-1.58-.25-2.38-1.6-2.38h-59.42c-1.34,0-1.87-.84-1.57-2.53l3.33-18.9c.28-1.58,1.09-2.38,2.44-2.38h59.42c1.34,0,2.16-.79,2.44-2.38l1.1-6.24c.3-1.69-.23-2.53-1.57-2.53h-59.42c-1.34,0-1.88-.79-1.6-2.38l3.33-18.9c.28-1.59,1.09-2.38,2.44-2.38h99.79c1.34,0,1.88.79,1.6,2.38l-15.61,88.53Z"/>
  <path class="cls-16" d="M1791.07,74.66c-.37,2.09-1.39,3.12-3.08,3.12h-52.48c-1.85,0-2.59-1.04-2.22-3.12l5.46-30.95c.35-1.98,1.41-2.98,3.17-2.98h52.48c1.77,0,2.47,1,2.12,2.98l-5.46,30.95Z"/>
  <path class="cls-6" d="M1854.3,126.74c-.35,1.99-1.4,3.18-3.15,3.57l-130.54,29.16c-1.52,0-2.12-.84-1.83-2.53l7.82-44.34c.37-2.09,1.42-3.32,3.18-3.72l130.54-29.17c1.51,0,2.12.85,1.82,2.53l-7.84,44.49Z"/>
  <path class="cls-5" d="M231.75,47.39c-.07.4-12.93,24.7-38.59,72.92-1.01,1.88-2.35,2.83-4.03,2.83h-46.05c-1.68,0-3.03.94-4.03,2.83l-18.81,35.86c-1.01,1.88-2.35,2.83-4.03,2.83h-46.17c-1.34,0-1.91-.6-1.7-1.78.04-.2.11-.4.23-.6s.19-.35.2-.45l30.44-58.18c1-1.88,2.35-2.83,4.03-2.83h46.17c1.77,0,3.15-.94,4.16-2.83,4.79-9.03,7.19-13.59,7.21-13.69.21-1.19-.27-1.79-1.45-1.79h-75.19c-1.85,0-2.6-.99-2.25-2.97l5.46-30.95c.35-1.99,1.41-2.98,3.17-2.98h139.66c1.26,0,1.79.6,1.58,1.78Z"/>
  <path class="cls-5" d="M382.08,48.73l-35.81,112.93c-.6,1.99-1.79,2.98-3.55,2.98h-46.3c-1.52,0-2.12-.84-1.83-2.53l.08-.45,24.03-76.18c.55-1.68.03-2.53-1.57-2.53h-30.65c-1.77,0-2.95.99-3.55,2.98l-9.8,31.99c-.6,1.99-1.79,2.97-3.55,2.97h-46.3c-1.6,0-2.25-.84-1.95-2.53l.08-.45,21.44-69.34c.6-1.99,1.74-2.98,3.43-2.98h134.1c1.52,0,2.12.84,1.83,2.53l-.11.6Z"/>
  <path class="cls-5" d="M535.97,47.39c-.07.4-12.93,24.7-38.59,72.92-1.01,1.88-2.35,2.83-4.03,2.83h-46.05c-1.68,0-3.03.94-4.03,2.83l-18.81,35.86c-1.01,1.88-2.35,2.83-4.03,2.83h-46.17c-1.34,0-1.91-.6-1.7-1.78.04-.2.11-.4.23-.6s.19-.35.2-.45l30.44-58.18c1-1.88,2.35-2.83,4.03-2.83h46.17c1.77,0,3.15-.94,4.16-2.83,4.79-9.03,7.19-13.59,7.21-13.69.21-1.19-.27-1.79-1.45-1.79h-75.19c-1.85,0-2.6-.99-2.25-2.97l5.46-30.95c.35-1.99,1.41-2.98,3.17-2.98h139.66c1.26,0,1.79.6,1.58,1.78Z"/>
  <path class="cls-5" d="M680.99,79.25c-.37,2.08-1.43,3.12-3.2,3.12h-136.63c-1.77,0-2.47-1.04-2.1-3.12l5.44-30.83c.37-2.07,1.43-3.11,3.2-3.11h136.63c1.77,0,2.47,1.04,2.1,3.11l-5.44,30.83Z"/>
  <path class="cls-5" d="M677.24,95.45c-.16.89-9.52,22.97-28.07,66.21-.86,1.99-2.17,2.98-3.93,2.98h-46.17c-1.34,0-1.9-.69-1.65-2.09.07-.4.16-.69.29-.89,8.12-18.85,12.23-28.56,12.33-29.16.24-1.39-.31-2.09-1.65-2.09h-75.69c-1.77,0-2.47-1.04-2.1-3.12l5.46-30.95c.35-1.99,1.41-2.98,3.17-2.98h136.37c1.34,0,1.9.7,1.65,2.09Z"/>
  <path class="cls-5" d="M834.43,90.45c-.35,1.99-1.44,3.13-3.25,3.42l-42.26,7.15c-1.82.3-2.9,1.44-3.25,3.43l-10.06,57.06c-.37,2.09-1.39,3.13-3.07,3.13h-46.3c-1.77,0-2.47-1.04-2.1-3.12l8.48-48.06c.35-1.99-.21-2.88-1.67-2.68h-.38l-45.62,7.59c-1.55.19-2.15-.7-1.8-2.68l7.49-42.5c.35-1.99,1.39-3.13,3.13-3.43l146.36-24.45c1.55-.2,2.15.69,1.8,2.68l-7.49,42.47Z"/>
  <path class="cls-5" d="M957.42,95.51c-1.77,0-2.1-1.04-.99-3.12l24.69-46.43c.15-.29.36-.4.53-.65h-125.32c-1.77,0-2.83,1.04-3.2,3.12l-5.46,30.95c-.35,1.98.4,2.98,2.25,2.98h74.94c1.68,0,2.02.94,1.01,2.83l-41.27,76.63c-1.01,1.88-.62,2.83,1.14,2.83h46.3c1.77,0,3.15-.94,4.16-2.83l35.61-66.31h-14.39Z"/>
  <path class="cls-5" d="M984.87,90.2l24.69-46.43c1.05-1.98.7-2.97-1.07-2.97h-18.8c-1.68,0-3.05.99-4.1,2.97l-24.69,46.43c-1.11,2.08-.78,3.12.99,3.12h18.8c1.77,0,3.2-1.04,4.31-3.12h-.13Z"/>
  <path class="cls-5" d="M1039.84,43.76c1.05-1.98.66-2.97-1.19-2.97h-18.8c-1.68,0-3.05.99-4.1,2.97l-24.69,46.43c-1.11,2.08-.78,3.12.99,3.12h18.8c1.77,0,3.2-1.04,4.31-3.12l24.69-46.43Z"/>
  <path class="cls-4" d="M231.75,47.39c-.07.4-12.93,24.7-38.59,72.92-1.01,1.88-2.35,2.83-4.03,2.83h-46.05c-1.68,0-3.03.94-4.03,2.83l-18.81,35.86c-1.01,1.88-2.35,2.83-4.03,2.83h-46.17c-1.34,0-1.91-.6-1.7-1.78.04-.2.11-.4.23-.6s.19-.35.2-.45l30.44-58.18c1-1.88,2.35-2.83,4.03-2.83h46.17c1.77,0,3.15-.94,4.16-2.83,4.79-9.03,7.19-13.59,7.21-13.69.21-1.19-.27-1.79-1.45-1.79h-75.19c-1.85,0-2.6-.99-2.25-2.97l5.46-30.95c.35-1.99,1.41-2.98,3.17-2.98h139.66c1.26,0,1.79.6,1.58,1.78Z"/>
  <path class="cls-4" d="M382.08,48.73l-35.81,112.93c-.6,1.99-1.79,2.98-3.55,2.98h-46.3c-1.52,0-2.12-.84-1.83-2.53l.08-.45,24.03-76.18c.55-1.68.03-2.53-1.57-2.53h-30.65c-1.77,0-2.95.99-3.55,2.98l-9.8,31.99c-.6,1.99-1.79,2.97-3.55,2.97h-46.3c-1.6,0-2.25-.84-1.95-2.53l.08-.45,21.44-69.34c.6-1.99,1.74-2.98,3.43-2.98h134.1c1.52,0,2.12.84,1.83,2.53l-.11.6Z"/>
  <path class="cls-4" d="M535.97,47.39c-.07.4-12.93,24.7-38.59,72.92-1.01,1.88-2.35,2.83-4.03,2.83h-46.05c-1.68,0-3.03.94-4.03,2.83l-18.81,35.86c-1.01,1.88-2.35,2.83-4.03,2.83h-46.17c-1.34,0-1.91-.6-1.7-1.78.04-.2.11-.4.23-.6s.19-.35.2-.45l30.44-58.18c1-1.88,2.35-2.83,4.03-2.83h46.17c1.77,0,3.15-.94,4.16-2.83,4.79-9.03,7.19-13.59,7.21-13.69.21-1.19-.27-1.79-1.45-1.79h-75.19c-1.85,0-2.6-.99-2.25-2.97l5.46-30.95c.35-1.99,1.41-2.98,3.17-2.98h139.66c1.26,0,1.79.6,1.58,1.78Z"/>
  <path class="cls-4" d="M680.99,79.25c-.37,2.08-1.43,3.12-3.2,3.12h-136.63c-1.77,0-2.47-1.04-2.1-3.12l5.44-30.83c.37-2.07,1.43-3.11,3.2-3.11h136.63c1.77,0,2.47,1.04,2.1,3.11l-5.44,30.83Z"/>
  <path class="cls-4" d="M677.24,95.45c-.16.89-9.52,22.97-28.07,66.21-.86,1.99-2.17,2.98-3.93,2.98h-46.17c-1.34,0-1.9-.69-1.65-2.09.07-.4.16-.69.29-.89,8.12-18.85,12.23-28.56,12.33-29.16.24-1.39-.31-2.09-1.65-2.09h-75.69c-1.77,0-2.47-1.04-2.1-3.12l5.46-30.95c.35-1.99,1.41-2.98,3.17-2.98h136.37c1.34,0,1.9.7,1.65,2.09Z"/>
  <path class="cls-4" d="M834.43,90.45c-.35,1.99-1.44,3.13-3.25,3.42l-42.26,7.15c-1.82.3-2.9,1.44-3.25,3.43l-10.06,57.06c-.37,2.09-1.39,3.13-3.07,3.13h-46.3c-1.77,0-2.47-1.04-2.1-3.12l8.48-48.06c.35-1.99-.21-2.88-1.67-2.68h-.38l-45.62,7.59c-1.55.19-2.15-.7-1.8-2.68l7.49-42.5c.35-1.99,1.39-3.13,3.13-3.43l146.36-24.45c1.55-.2,2.15.69,1.8,2.68l-7.49,42.47Z"/>
  <path class="cls-4" d="M957.42,95.51c-1.77,0-2.1-1.04-.99-3.12l24.69-46.43c.15-.29.36-.4.53-.65h-125.32c-1.77,0-2.83,1.04-3.2,3.12l-5.46,30.95c-.35,1.98.4,2.98,2.25,2.98h74.94c1.68,0,2.02.94,1.01,2.83l-41.27,76.63c-1.01,1.88-.62,2.83,1.14,2.83h46.3c1.77,0,3.15-.94,4.16-2.83l35.61-66.31h-14.39Z"/>
  <path class="cls-4" d="M984.87,90.2l24.69-46.43c1.05-1.98.7-2.97-1.07-2.97h-18.8c-1.68,0-3.05.99-4.1,2.97l-24.69,46.43c-1.11,2.08-.78,3.12.99,3.12h18.8c1.77,0,3.2-1.04,4.31-3.12h-.13Z"/>
  <path class="cls-4" d="M1039.84,43.76c1.05-1.98.66-2.97-1.19-2.97h-18.8c-1.68,0-3.05.99-4.1,2.97l-24.69,46.43c-1.11,2.08-.78,3.12.99,3.12h18.8c1.77,0,3.2-1.04,4.31-3.12l24.69-46.43Z"/>
  <path class="cls-17" d="M231.75,43.09c-.07.4-12.93,24.7-38.59,72.92-1.01,1.88-2.35,2.83-4.03,2.83h-46.05c-1.68,0-3.03.94-4.03,2.83l-18.81,35.86c-1.01,1.88-2.35,2.83-4.03,2.83h-46.17c-1.34,0-1.91-.6-1.7-1.78.04-.2.11-.4.23-.6s.19-.35.2-.45l30.44-58.18c1-1.88,2.35-2.83,4.03-2.83h46.17c1.77,0,3.15-.94,4.16-2.83,4.79-9.03,7.19-13.59,7.21-13.69.21-1.19-.27-1.79-1.45-1.79h-75.19c-1.85,0-2.6-.99-2.25-2.97l5.46-30.95c.35-1.99,1.41-2.98,3.17-2.98h139.66c1.26,0,1.79.6,1.58,1.78Z"/>
  <path class="cls-7" d="M382.08,44.43l-35.81,112.93c-.6,1.99-1.79,2.98-3.55,2.98h-46.3c-1.52,0-2.12-.84-1.83-2.53l.08-.45,24.03-76.18c.55-1.68.03-2.53-1.57-2.53h-30.65c-1.77,0-2.95.99-3.55,2.98l-9.8,31.99c-.6,1.99-1.79,2.97-3.55,2.97h-46.3c-1.6,0-2.25-.84-1.95-2.53l.08-.45,21.44-69.34c.6-1.99,1.74-2.98,3.43-2.98h134.1c1.52,0,2.12.84,1.83,2.53l-.11.6Z"/>
  <path class="cls-2" d="M535.97,43.09c-.07.4-12.93,24.7-38.59,72.92-1.01,1.88-2.35,2.83-4.03,2.83h-46.05c-1.68,0-3.03.94-4.03,2.83l-18.81,35.86c-1.01,1.88-2.35,2.83-4.03,2.83h-46.17c-1.34,0-1.91-.6-1.7-1.78.04-.2.11-.4.23-.6s.19-.35.2-.45l30.44-58.18c1-1.88,2.35-2.83,4.03-2.83h46.17c1.77,0,3.15-.94,4.16-2.83,4.79-9.03,7.19-13.59,7.21-13.69.21-1.19-.27-1.79-1.45-1.79h-75.19c-1.85,0-2.6-.99-2.25-2.97l5.46-30.95c.35-1.99,1.41-2.98,3.17-2.98h139.66c1.26,0,1.79.6,1.58,1.78Z"/>
  <path class="cls-13" d="M680.99,74.95c-.37,2.08-1.43,3.12-3.2,3.12h-136.63c-1.77,0-2.47-1.04-2.1-3.12l5.44-30.83c.37-2.07,1.43-3.11,3.2-3.11h136.63c1.77,0,2.47,1.04,2.1,3.11l-5.44,30.83Z"/>
  <path class="cls-1" d="M677.24,91.15c-.16.89-9.52,22.97-28.07,66.21-.86,1.99-2.17,2.98-3.93,2.98h-46.17c-1.34,0-1.9-.69-1.65-2.09.07-.4.16-.69.29-.89,8.12-18.85,12.23-28.56,12.33-29.16.24-1.39-.31-2.09-1.65-2.09h-75.69c-1.77,0-2.47-1.04-2.1-3.12l5.46-30.95c.35-1.99,1.41-2.98,3.17-2.98h136.37c1.34,0,1.9.7,1.65,2.09Z"/>
  <path class="cls-20" d="M834.43,86.15c-.35,1.99-1.44,3.13-3.25,3.42l-42.26,7.15c-1.82.3-2.9,1.44-3.25,3.43l-10.06,57.06c-.37,2.09-1.39,3.13-3.07,3.13h-46.3c-1.77,0-2.47-1.04-2.1-3.12l8.48-48.06c.35-1.99-.21-2.88-1.67-2.68h-.38l-45.62,7.59c-1.55.19-2.15-.7-1.8-2.68l7.49-42.5c.35-1.99,1.39-3.13,3.13-3.43l146.36-24.45c1.55-.2,2.15.69,1.8,2.68l-7.49,42.47Z"/>
  <path class="cls-14" d="M957.42,91.21c-1.77,0-2.1-1.04-.99-3.12l24.69-46.43c.15-.29.36-.4.53-.65h-125.32c-1.77,0-2.83,1.04-3.2,3.12l-5.46,30.95c-.35,1.98.4,2.98,2.25,2.98h74.94c1.68,0,2.02.94,1.01,2.83l-41.27,76.63c-1.01,1.88-.62,2.83,1.14,2.83h46.3c1.77,0,3.15-.94,4.16-2.83l35.61-66.31h-14.39Z"/>
  <path class="cls-22" d="M984.87,85.9l24.69-46.43c1.05-1.98.7-2.97-1.07-2.97h-18.8c-1.68,0-3.05.99-4.1,2.97l-24.69,46.43c-1.11,2.08-.78,3.12.99,3.12h18.8c1.77,0,3.2-1.04,4.31-3.12h-.13Z"/>
  <path class="cls-18" d="M1039.84,39.46c1.05-1.98.66-2.97-1.19-2.97h-18.8c-1.68,0-3.05.99-4.1,2.97l-24.69,46.43c-1.11,2.08-.78,3.12.99,3.12h18.8c1.77,0,3.2-1.04,4.31-3.12l24.69-46.43Z"/>
</svg>