<?xml version="1.0" encoding="UTF-8"?>
<svg xmlns="http://www.w3.org/2000/svg" version="1.1" viewBox="0 0 1400 700">
  <!-- Generator: Adobe Illustrator 30.2.1, SVG Export Plug-In . SVG Version: 2.1.1 Build 1)  -->
  <defs>
    <style>
      .st0, .st1, .st2, .st3, .st4, .st5 {
        fill: #1e3a8a;
      }

      .st0, .st6 {
        opacity: .14;
      }

      .st2 {
        opacity: .1;
      }

      .st3 {
        opacity: .03;
      }

      .st4 {
        opacity: .05;
      }

      .st5 {
        opacity: .07;
      }
    </style>
  </defs>
  <g id="_レイヤー_1" data-name="レイヤー_1">
    <circle class="st1" cx="700" cy="420" r="7"/>
    <circle class="st1" cx="672" cy="405" r="6"/>
    <circle class="st1" cx="728" cy="405" r="6"/>
    <circle class="st1" cx="655" cy="390" r="5"/>
    <circle class="st1" cx="700" cy="388" r="5"/>
    <circle class="st1" cx="745" cy="390" r="5"/>
    <circle class="st1" cx="680" cy="372" r="5"/>
    <circle class="st1" cx="720" cy="372" r="5"/>
    <circle class="st1" cx="658" cy="435" r="5"/>
    <circle class="st1" cx="742" cy="435" r="5"/>
    <circle class="st1" cx="632" cy="418" r="5"/>
    <circle class="st1" cx="768" cy="418" r="5"/>
    <circle class="st1" cx="700" cy="450" r="6"/>
    <circle class="st1" cx="668" cy="455" r="5"/>
    <circle class="st1" cx="732" cy="455" r="5"/>
    <circle class="st1" cx="618" cy="378" r="5"/>
    <circle class="st1" cx="598" cy="362" r="5"/>
    <circle class="st1" cx="578" cy="348" r="4"/>
    <circle class="st1" cx="605" cy="345" r="4"/>
    <circle class="st1" cx="582" cy="328" r="4"/>
    <circle class="st1" cx="558" cy="340" r="5"/>
    <circle class="st1" cx="542" cy="358" r="4"/>
    <circle class="st1" cx="565" cy="370" r="4"/>
    <circle class="st1" cx="525" cy="345" r="5"/>
    <circle class="st1" cx="548" cy="325" r="4"/>
    <circle class="st1" cx="522" cy="308" r="4"/>
    <circle class="st1" cx="498" cy="325" r="5"/>
    <circle class="st1" cx="512" cy="365" r="4"/>
    <circle class="st1" cx="488" cy="348" r="4"/>
    <circle class="st1" cx="608" cy="398" r="4"/>
    <circle class="st1" cx="585" cy="412" r="5"/>
    <circle class="st1" cx="558" cy="405" r="4"/>
    <circle class="st1" cx="532" cy="418" r="4"/>
    <circle class="st1" cx="505" cy="408" r="4"/>
    <circle class="st1" cx="478" cy="422" r="5"/>
    <circle class="st1" cx="452" cy="412" r="4"/>
    <circle class="st1" cx="620" cy="358" r="3"/>
    <circle class="st1" cx="595" cy="332" r="4"/>
    <circle class="st1" cx="568" cy="315" r="3"/>
    <circle class="st1" cx="462" cy="368" r="4"/>
    <circle class="st1" cx="438" cy="352" r="4"/>
    <circle class="st1" cx="415" cy="368" r="4"/>
    <circle class="st1" cx="448" cy="335" r="3"/>
    <circle class="st1" cx="422" cy="320" r="4"/>
    <circle class="st1" cx="398" cy="335" r="3"/>
    <circle class="st1" cx="375" cy="352" r="4"/>
    <circle class="st1" cx="355" cy="368" r="3"/>
    <circle class="st1" cx="392" cy="372" r="4"/>
    <circle class="st1" cx="365" cy="385" r="3"/>
    <circle class="st1" cx="338" cy="370" r="4"/>
    <circle class="st1" cx="312" cy="382" r="3"/>
    <circle class="st1" cx="428" cy="390" r="3"/>
    <circle class="st1" cx="402" cy="405" r="4"/>
    <circle class="st1" cx="375" cy="398" r="3"/>
    <circle class="st1" cx="348" cy="412" r="4"/>
    <circle class="st1" cx="320" cy="402" r="3"/>
    <circle class="st1" cx="295" cy="418" r="3"/>
    <circle class="st1" cx="445" cy="315" r="3"/>
    <circle class="st1" cx="418" cy="298" r="3"/>
    <circle class="st1" cx="392" cy="308" r="3"/>
    <circle class="st1" cx="365" cy="320" r="4"/>
    <circle class="st1" cx="338" cy="308" r="3"/>
    <circle class="st1" cx="312" cy="320" r="3"/>
    <circle class="st1" cx="285" cy="335" r="4"/>
    <circle class="st1" cx="260" cy="350" r="3"/>
    <circle class="st1" cx="268" cy="368" r="3"/>
    <circle class="st1" cx="242" cy="382" r="3"/>
    <circle class="st1" cx="285" cy="398" r="3"/>
    <circle class="st1" cx="258" cy="412" r="3"/>
    <circle class="st1" cx="238" cy="352" r="3"/>
    <circle class="st1" cx="215" cy="365" r="2.5"/>
    <circle class="st1" cx="192" cy="352" r="3"/>
    <circle class="st1" cx="222" cy="338" r="2.5"/>
    <circle class="st1" cx="198" cy="325" r="2.5"/>
    <circle class="st1" cx="175" cy="338" r="3"/>
    <circle class="st1" cx="152" cy="352" r="2.5"/>
    <circle class="st1" cx="235" cy="322" r="2.5"/>
    <circle class="st1" cx="210" cy="308" r="2.5"/>
    <circle class="st1" cx="185" cy="318" r="2.5"/>
    <circle class="st1" cx="162" cy="330" r="2.5"/>
    <circle class="st1" cx="138" cy="345" r="2.5"/>
    <circle class="st1" cx="268" cy="308" r="2.5"/>
    <circle class="st1" cx="242" cy="295" r="2.5"/>
    <circle class="st1" cx="218" cy="305" r="2.5"/>
    <circle class="st1" cx="195" cy="292" r="2.5"/>
    <circle class="st1" cx="170" cy="305" r="2.5"/>
    <circle class="st1" cx="148" cy="318" r="2.5"/>
    <circle class="st1" cx="125" cy="332" r="2.5"/>
    <circle class="st1" cx="232" cy="428" r="2.5"/>
    <circle class="st1" cx="208" cy="440" r="2.5"/>
    <circle class="st1" cx="185" cy="432" r="2.5"/>
    <circle class="st1" cx="162" cy="448" r="2.5"/>
    <circle class="st1" cx="138" cy="438" r="2.5"/>
    <circle class="st1" cx="115" cy="452" r="2.5"/>
    <circle class="st1" cx="260" cy="418" r="2.5"/>
    <circle class="st1" cx="128" cy="365" r="2.5"/>
    <circle class="st1" cx="105" cy="348" r="2.5"/>
    <circle class="st1" cx="115" cy="380" r="2.5"/>
    <circle class="st1" cx="92" cy="362" r="2"/>
    <circle class="st1" cx="555" cy="298" r="3"/>
    <circle class="st1" cx="532" cy="282" r="3"/>
    <circle class="st1" cx="508" cy="270" r="3"/>
    <circle class="st1" cx="485" cy="282" r="2.5"/>
    <circle class="st1" cx="462" cy="270" r="2.5"/>
    <circle class="st1" cx="438" cy="282" r="3"/>
    <circle class="st1" cx="415" cy="268" r="2.5"/>
    <circle class="st1" cx="390" cy="278" r="2.5"/>
    <circle class="st1" cx="365" cy="265" r="2.5"/>
    <circle class="st1" cx="342" cy="278" r="2.5"/>
    <circle class="st1" cx="318" cy="268" r="2.5"/>
    <circle class="st1" cx="292" cy="280" r="2.5"/>
    <circle class="st1" cx="268" cy="268" r="2.5"/>
    <circle class="st1" cx="575" cy="278" r="2.5"/>
    <circle class="st1" cx="548" cy="262" r="2.5"/>
    <circle class="st1" cx="522" cy="252" r="2"/>
    <circle class="st1" cx="495" cy="242" r="2.5"/>
    <circle class="st1" cx="468" cy="252" r="2"/>
    <circle class="st1" cx="442" cy="240" r="2"/>
    <circle class="st1" cx="415" cy="250" r="2"/>
    <circle class="st1" cx="388" cy="240" r="2"/>
    <circle class="st1" cx="362" cy="252" r="2"/>
    <circle class="st1" cx="335" cy="242" r="2"/>
    <circle class="st1" cx="308" cy="255" r="2"/>
    <circle class="st1" cx="282" cy="245" r="2"/>
    <circle class="st1" cx="255" cy="258" r="2"/>
    <circle class="st1" cx="228" cy="268" r="2"/>
    <circle class="st1" cx="202" cy="278" r="2"/>
    <circle class="st1" cx="178" cy="268" r="2"/>
    <circle class="st1" cx="155" cy="280" r="2"/>
    <circle class="st1" cx="560" cy="468" r="3"/>
    <circle class="st1" cx="535" cy="482" r="3"/>
    <circle class="st1" cx="508" cy="472" r="2.5"/>
    <circle class="st1" cx="482" cy="488" r="3"/>
    <circle class="st1" cx="455" cy="478" r="2.5"/>
    <circle class="st1" cx="428" cy="492" r="3"/>
    <circle class="st1" cx="400" cy="480" r="2.5"/>
    <circle class="st1" cx="372" cy="495" r="2.5"/>
    <circle class="st1" cx="345" cy="482" r="2.5"/>
    <circle class="st1" cx="318" cy="498" r="2.5"/>
    <circle class="st1" cx="290" cy="485" r="2.5"/>
    <circle class="st1" cx="262" cy="500" r="2.5"/>
    <circle class="st1" cx="235" cy="488" r="2.5"/>
    <circle class="st1" cx="208" cy="502" r="2"/>
    <circle class="st1" cx="180" cy="490" r="2"/>
    <circle class="st1" cx="155" cy="505" r="2"/>
    <circle class="st1" cx="128" cy="492" r="2"/>
    <circle class="st1" cx="102" cy="508" r="2"/>
    <circle class="st1" cx="118" cy="298" r="2"/>
    <circle class="st1" cx="95" cy="312" r="2"/>
    <circle class="st1" cx="72" cy="298" r="1.5"/>
    <circle class="st1" cx="105" cy="285" r="1.5"/>
    <circle class="st1" cx="82" cy="272" r="1.5"/>
    <circle class="st1" cx="58" cy="285" r="1.5"/>
    <circle class="st1" cx="142" cy="278" r="2"/>
    <circle class="st1" cx="118" cy="265" r="1.5"/>
    <circle class="st1" cx="95" cy="252" r="1.5"/>
    <circle class="st1" cx="72" cy="265" r="1.5"/>
    <circle class="st1" cx="48" cy="278" r="1"/>
    <circle class="st1" cx="68" cy="328" r="1.5"/>
    <circle class="st1" cx="45" cy="315" r="1.5"/>
    <circle class="st1" cx="55" cy="342" r="1"/>
    <circle class="st1" cx="78" cy="398" r="1.5"/>
    <circle class="st1" cx="55" cy="412" r="1.5"/>
    <circle class="st1" cx="38" cy="398" r="1"/>
    <circle class="st1" cx="72" cy="425" r="1.5"/>
    <circle class="st1" cx="48" cy="438" r="1.5"/>
    <circle class="st1" cx="25" cy="425" r="1"/>
    <circle class="st1" cx="88" cy="462" r="1.5"/>
    <circle class="st1" cx="65" cy="478" r="1.5"/>
    <circle class="st1" cx="42" cy="462" r="1"/>
    <circle class="st1" cx="20" cy="478" r="1"/>
    <circle class="st1" cx="782" cy="378" r="5"/>
    <circle class="st1" cx="802" cy="362" r="5"/>
    <circle class="st1" cx="822" cy="348" r="4"/>
    <circle class="st1" cx="795" cy="345" r="4"/>
    <circle class="st1" cx="818" cy="328" r="4"/>
    <circle class="st1" cx="842" cy="340" r="5"/>
    <circle class="st1" cx="858" cy="358" r="4"/>
    <circle class="st1" cx="835" cy="370" r="4"/>
    <circle class="st1" cx="875" cy="345" r="5"/>
    <circle class="st1" cx="852" cy="325" r="4"/>
    <circle class="st1" cx="878" cy="308" r="4"/>
    <circle class="st1" cx="902" cy="325" r="5"/>
    <circle class="st1" cx="888" cy="365" r="4"/>
    <circle class="st1" cx="912" cy="348" r="4"/>
    <circle class="st1" cx="792" cy="398" r="4"/>
    <circle class="st1" cx="815" cy="412" r="5"/>
    <circle class="st1" cx="842" cy="405" r="4"/>
    <circle class="st1" cx="868" cy="418" r="4"/>
    <circle class="st1" cx="895" cy="408" r="4"/>
    <circle class="st1" cx="922" cy="422" r="5"/>
    <circle class="st1" cx="948" cy="412" r="4"/>
    <circle class="st1" cx="780" cy="358" r="3"/>
    <circle class="st1" cx="805" cy="332" r="4"/>
    <circle class="st1" cx="832" cy="315" r="3"/>
    <circle class="st1" cx="938" cy="368" r="4"/>
    <circle class="st1" cx="962" cy="352" r="4"/>
    <circle class="st1" cx="985" cy="368" r="4"/>
    <circle class="st1" cx="952" cy="335" r="3"/>
    <circle class="st1" cx="978" cy="320" r="4"/>
    <circle class="st1" cx="1002" cy="335" r="3"/>
    <circle class="st1" cx="1025" cy="352" r="4"/>
    <circle class="st1" cx="1045" cy="368" r="3"/>
    <circle class="st1" cx="1008" cy="372" r="4"/>
    <circle class="st1" cx="1035" cy="385" r="3"/>
    <circle class="st1" cx="1062" cy="370" r="4"/>
    <circle class="st1" cx="1088" cy="382" r="3"/>
    <circle class="st1" cx="972" cy="390" r="3"/>
    <circle class="st1" cx="998" cy="405" r="4"/>
    <circle class="st1" cx="1025" cy="398" r="3"/>
    <circle class="st1" cx="1052" cy="412" r="4"/>
    <circle class="st1" cx="1080" cy="402" r="3"/>
    <circle class="st1" cx="1105" cy="418" r="3"/>
    <circle class="st1" cx="955" cy="315" r="3"/>
    <circle class="st1" cx="982" cy="298" r="3"/>
    <circle class="st1" cx="1008" cy="308" r="3"/>
    <circle class="st1" cx="1035" cy="320" r="4"/>
    <circle class="st1" cx="1062" cy="308" r="3"/>
    <circle class="st1" cx="1088" cy="320" r="3"/>
    <circle class="st1" cx="1115" cy="335" r="4"/>
    <circle class="st1" cx="1140" cy="350" r="3"/>
    <circle class="st1" cx="1132" cy="368" r="3"/>
    <circle class="st1" cx="1158" cy="382" r="3"/>
    <circle class="st1" cx="1115" cy="398" r="3"/>
    <circle class="st1" cx="1142" cy="412" r="3"/>
    <circle class="st1" cx="1162" cy="352" r="3"/>
    <circle class="st1" cx="1185" cy="365" r="2.5"/>
    <circle class="st1" cx="1208" cy="352" r="3"/>
    <circle class="st1" cx="1178" cy="338" r="2.5"/>
    <circle class="st1" cx="1202" cy="325" r="2.5"/>
    <circle class="st1" cx="1225" cy="338" r="3"/>
    <circle class="st1" cx="1248" cy="352" r="2.5"/>
    <circle class="st1" cx="1165" cy="322" r="2.5"/>
    <circle class="st1" cx="1190" cy="308" r="2.5"/>
    <circle class="st1" cx="1215" cy="318" r="2.5"/>
    <circle class="st1" cx="1238" cy="330" r="2.5"/>
    <circle class="st1" cx="1262" cy="345" r="2.5"/>
    <circle class="st1" cx="1132" cy="308" r="2.5"/>
    <circle class="st1" cx="1158" cy="295" r="2.5"/>
    <circle class="st1" cx="1182" cy="305" r="2.5"/>
    <circle class="st1" cx="1205" cy="292" r="2.5"/>
    <circle class="st1" cx="1230" cy="305" r="2.5"/>
    <circle class="st1" cx="1252" cy="318" r="2.5"/>
    <circle class="st1" cx="1275" cy="332" r="2.5"/>
    <circle class="st1" cx="1168" cy="428" r="2.5"/>
    <circle class="st1" cx="1192" cy="440" r="2.5"/>
    <circle class="st1" cx="1215" cy="432" r="2.5"/>
    <circle class="st1" cx="1238" cy="448" r="2.5"/>
    <circle class="st1" cx="1262" cy="438" r="2.5"/>
    <circle class="st1" cx="1285" cy="452" r="2.5"/>
    <circle class="st1" cx="1140" cy="418" r="2.5"/>
    <circle class="st1" cx="1272" cy="365" r="2.5"/>
    <circle class="st1" cx="1295" cy="348" r="2.5"/>
    <circle class="st1" cx="1285" cy="380" r="2.5"/>
    <circle class="st1" cx="1308" cy="362" r="2"/>
    <circle class="st1" cx="845" cy="298" r="3"/>
    <circle class="st1" cx="868" cy="282" r="3"/>
    <circle class="st1" cx="892" cy="270" r="3"/>
    <circle class="st1" cx="915" cy="282" r="2.5"/>
    <circle class="st1" cx="938" cy="270" r="2.5"/>
    <circle class="st1" cx="962" cy="282" r="3"/>
    <circle class="st1" cx="985" cy="268" r="2.5"/>
    <circle class="st1" cx="1010" cy="278" r="2.5"/>
    <circle class="st1" cx="1035" cy="265" r="2.5"/>
    <circle class="st1" cx="1058" cy="278" r="2.5"/>
    <circle class="st1" cx="1082" cy="268" r="2.5"/>
    <circle class="st1" cx="1108" cy="280" r="2.5"/>
    <circle class="st1" cx="1132" cy="268" r="2.5"/>
    <circle class="st1" cx="825" cy="278" r="2.5"/>
    <circle class="st1" cx="852" cy="262" r="2.5"/>
    <circle class="st1" cx="878" cy="252" r="2"/>
    <circle class="st1" cx="905" cy="242" r="2.5"/>
    <circle class="st1" cx="932" cy="252" r="2"/>
    <circle class="st1" cx="958" cy="240" r="2"/>
    <circle class="st1" cx="985" cy="250" r="2"/>
    <circle class="st1" cx="1012" cy="240" r="2"/>
    <circle class="st1" cx="1038" cy="252" r="2"/>
    <circle class="st1" cx="1065" cy="242" r="2"/>
    <circle class="st1" cx="1092" cy="255" r="2"/>
    <circle class="st1" cx="1118" cy="245" r="2"/>
    <circle class="st1" cx="1145" cy="258" r="2"/>
    <circle class="st1" cx="1172" cy="268" r="2"/>
    <circle class="st1" cx="1198" cy="278" r="2"/>
    <circle class="st1" cx="1222" cy="268" r="2"/>
    <circle class="st1" cx="1245" cy="280" r="2"/>
    <circle class="st1" cx="840" cy="468" r="3"/>
    <circle class="st1" cx="865" cy="482" r="3"/>
    <circle class="st1" cx="892" cy="472" r="2.5"/>
    <circle class="st1" cx="918" cy="488" r="3"/>
    <circle class="st1" cx="945" cy="478" r="2.5"/>
    <circle class="st1" cx="972" cy="492" r="3"/>
    <circle class="st1" cx="1000" cy="480" r="2.5"/>
    <circle class="st1" cx="1028" cy="495" r="2.5"/>
    <circle class="st1" cx="1055" cy="482" r="2.5"/>
    <circle class="st1" cx="1082" cy="498" r="2.5"/>
    <circle class="st1" cx="1110" cy="485" r="2.5"/>
    <circle class="st1" cx="1138" cy="500" r="2.5"/>
    <circle class="st1" cx="1165" cy="488" r="2.5"/>
    <circle class="st1" cx="1192" cy="502" r="2"/>
    <circle class="st1" cx="1220" cy="490" r="2"/>
    <circle class="st1" cx="1245" cy="505" r="2"/>
    <circle class="st1" cx="1272" cy="492" r="2"/>
    <circle class="st1" cx="1298" cy="508" r="2"/>
    <circle class="st1" cx="1282" cy="298" r="2"/>
    <circle class="st1" cx="1305" cy="312" r="2"/>
    <circle class="st1" cx="1328" cy="298" r="1.5"/>
    <circle class="st1" cx="1295" cy="285" r="1.5"/>
    <circle class="st1" cx="1318" cy="272" r="1.5"/>
    <circle class="st1" cx="1342" cy="285" r="1.5"/>
    <circle class="st1" cx="1258" cy="278" r="2"/>
    <circle class="st1" cx="1282" cy="265" r="1.5"/>
    <circle class="st1" cx="1305" cy="252" r="1.5"/>
    <circle class="st1" cx="1328" cy="265" r="1.5"/>
    <circle class="st1" cx="1352" cy="278" r="1"/>
    <circle class="st1" cx="1332" cy="328" r="1.5"/>
    <circle class="st1" cx="1355" cy="315" r="1.5"/>
    <circle class="st1" cx="1345" cy="342" r="1"/>
    <circle class="st1" cx="1322" cy="398" r="1.5"/>
    <circle class="st1" cx="1345" cy="412" r="1.5"/>
    <circle class="st1" cx="1362" cy="398" r="1"/>
    <circle class="st1" cx="1328" cy="425" r="1.5"/>
    <circle class="st1" cx="1352" cy="438" r="1.5"/>
    <circle class="st1" cx="1375" cy="425" r="1"/>
    <circle class="st1" cx="1312" cy="462" r="1.5"/>
    <circle class="st1" cx="1335" cy="478" r="1.5"/>
    <circle class="st1" cx="1358" cy="462" r="1"/>
    <circle class="st1" cx="1380" cy="478" r="1"/>
    <circle class="st1" cx="500" cy="228" r="2"/>
    <circle class="st1" cx="528" cy="215" r="1.5"/>
    <circle class="st1" cx="555" cy="205" r="2"/>
    <circle class="st1" cx="582" cy="195" r="1.5"/>
    <circle class="st1" cx="610" cy="188" r="1.5"/>
    <circle class="st1" cx="638" cy="178" r="1.5"/>
    <circle class="st1" cx="665" cy="172" r="1.5"/>
    <circle class="st1" cx="700" cy="165" r="2"/>
    <circle class="st1" cx="735" cy="172" r="1.5"/>
    <circle class="st1" cx="762" cy="178" r="1.5"/>
    <circle class="st1" cx="790" cy="188" r="1.5"/>
    <circle class="st1" cx="818" cy="195" r="1.5"/>
    <circle class="st1" cx="845" cy="205" r="2"/>
    <circle class="st1" cx="872" cy="215" r="1.5"/>
    <circle class="st1" cx="900" cy="228" r="2"/>
    <circle class="st1" cx="472" cy="215" r="1.5"/>
    <circle class="st1" cx="445" cy="205" r="1.5"/>
    <circle class="st1" cx="418" cy="218" r="1.5"/>
    <circle class="st1" cx="928" cy="215" r="1.5"/>
    <circle class="st1" cx="955" cy="205" r="1.5"/>
    <circle class="st1" cx="982" cy="218" r="1.5"/>
    <circle class="st1" cx="392" cy="228" r="1.5"/>
    <circle class="st1" cx="365" cy="215" r="1.5"/>
    <circle class="st1" cx="338" cy="228" r="1.5"/>
    <circle class="st1" cx="1008" cy="228" r="1.5"/>
    <circle class="st1" cx="1035" cy="215" r="1.5"/>
    <circle class="st1" cx="1062" cy="228" r="1.5"/>
    <circle class="st1" cx="312" cy="242" r="1.5"/>
    <circle class="st1" cx="285" cy="228" r="1.5"/>
    <circle class="st1" cx="258" cy="242" r="1.5"/>
    <circle class="st1" cx="1088" cy="242" r="1.5"/>
    <circle class="st1" cx="1115" cy="228" r="1.5"/>
    <circle class="st1" cx="1142" cy="242" r="1.5"/>
    <circle class="st1" cx="468" cy="545" r="2"/>
    <circle class="st1" cx="498" cy="558" r="1.5"/>
    <circle class="st1" cx="528" cy="545" r="2"/>
    <circle class="st1" cx="558" cy="562" r="1.5"/>
    <circle class="st1" cx="590" cy="550" r="1.5"/>
    <circle class="st1" cx="622" cy="568" r="1.5"/>
    <circle class="st1" cx="655" cy="555" r="1.5"/>
    <circle class="st1" cx="700" cy="572" r="2"/>
    <circle class="st1" cx="745" cy="555" r="1.5"/>
    <circle class="st1" cx="778" cy="568" r="1.5"/>
    <circle class="st1" cx="810" cy="550" r="1.5"/>
    <circle class="st1" cx="842" cy="562" r="1.5"/>
    <circle class="st1" cx="872" cy="545" r="2"/>
    <circle class="st1" cx="902" cy="558" r="1.5"/>
    <circle class="st1" cx="932" cy="545" r="2"/>
    <circle class="st1" cx="438" cy="532" r="1.5"/>
    <circle class="st1" cx="408" cy="545" r="1.5"/>
    <circle class="st1" cx="378" cy="532" r="1.5"/>
    <circle class="st1" cx="962" cy="532" r="1.5"/>
    <circle class="st1" cx="992" cy="545" r="1.5"/>
    <circle class="st1" cx="1022" cy="532" r="1.5"/>
  </g>
  <g id="_レイヤー_2" data-name="レイヤー_2">
    <g>
      <path class="st1" d="M857.37,253.47h-17.31l-.77,4.33h17.18l-2.51,13.17h-16.95l-.81,4.64h17.18l-2.32,14.81h-56.9l2.23-14.81h18.1l.81-4.64h-17.72l2.39-13.17h17.65l.75-4.33h-14l1.44-9.68c-2.73,6.33-5.96,11.23-9.37,14.84l-5.69,32.67h-19.3l3.7-21.5c-2.68.4-4.85.49-6.16.65l3.3-17.68c6.44-3.01,13.75-15.23,15.6-19.84h21.56c-.48,2.01-1.06,3.83-1.67,5.64h13.21l1.06-6.1h21.69l-1.06,6.1h16.97l-2.28,14.9h0ZM893.21,273.46c36.63-5.16,44.56-24.53,45.23-34.96h-26l1.31-5.93h-23.48l-1.29,5.93h-24.87l-2.62,14.95h46.57c-3.41,4.92-17.09,7.99-24.2,9.16l-1.65-2.03h-11.22c-2.57,4.96-6.88,10.09-12.59,12.69l-3.11,17.77c5.64,1.43,14.47-6.36,19.35-11.22,3.99,7.45,9.7,10.48,15.35,10.48h39.39l2.82-15.58h-28.01c-7.15,0-9.43.27-10.99-1.27h0ZM1017.4,249.24l2.93-15h-51.62l-2.91,15h15.08l-4.13,24.74h-14.56l-2.93,15.78h51.21l2.89-15.78h-14.92l4.13-24.74h14.83ZM966.3,234.43h-22.91l-3.07,14.61h23.7l2.28-14.61h0ZM963.64,251.59h-23.61l-2.46,13.1h23.79l2.28-13.1h0ZM936.46,272.55l-2.98,18.28c11.94.76,16.52-1.8,24.78-7.13l2.39-16.23c-2.39,1.08-14.58,4.08-24.19,5.08h0ZM379.67,291.31h20.32c16.32,0,21.33-9.35,22.86-16.27,2.5-11.99-3.54-13.91-7.77-14.57l.04-.17c5.84-1.06,10.52-6.37,11.99-13.15,2.06-9.77-3.57-14.48-13.57-14.48h-21.44l-12.42,58.63ZM398.97,265.3h4.43c4.24,0,6.7,2.4,5.46,8.2-.84,4.06-3.5,7.65-9.05,7.65h-4.22l3.38-15.86ZM403.7,242.83h3.86c5.01,0,5.98,3.34,5.31,6.36-.84,4.2-3.43,6.9-8.17,6.9h-3.75l2.75-13.26ZM470.45,262c3.43-16.25,5.37-30.43-14.15-30.43-18.13,0-23.13,11.78-27.11,30.43-3.97,18.62-4,30.44,14.13,30.44,19.57,0,23.66-14.21,27.13-30.44ZM443.5,262c3.41-16.06,5.35-21.27,10.74-21.27s5.31,5.2,1.9,21.27c-3.39,16.07-5.35,21.25-10.93,21.25s-5.14-5.18-1.71-21.25ZM466.07,291.31h14.29l4.43-11.18h14.02l-.27,11.18h14.33l-2.14-58.63h-17.27l-27.4,58.63ZM499.05,269.43h-10.02l10.4-26.08h.14l-.52,26.08ZM523.36,291.31h13.79l10.06-47.44h12.33l2.39-11.19h-38.42l-2.39,11.19h12.32l-10.07,47.44ZM567.42,291.31h13.81l5.12-24.23h5.24c4.38,0,5.3,2.1,3.14,12.29-1.42,6.65-1.71,9.94-1.06,11.94h14.87l.18-.74c-1.81-.83-1.96-2.01.25-13.58,1.53-7.9,2.15-13.33-6.36-14.59l.05-.19c6.7-1.57,11.06-5.71,12.89-14.24,1.69-8.08-.79-15.29-12.53-15.29h-23.16l-12.44,58.63ZM591.59,242.38h4.2c5.53,0,6.54,2.94,5.6,7.39-.77,3.47-3.07,7.65-8.69,7.65h-4.27l3.16-15.04ZM610.46,291.31h14.27l4.4-11.18h14.04l-.23,11.18h14.31l-2.19-58.63h-17.24l-27.36,58.63ZM643.41,269.43h-10.02l10.38-26.08h.18l-.54,26.08ZM705.15,253.08l.54-2.5c2.93-13.76-2.6-19.01-14.76-19.01-19.5,0-23.54,15.03-26.73,29.99-3.75,17.64-5.14,30.88,12.5,30.88s22.59-9.44,25.28-22.11l.43-2.02h-13.27c-2.03,9.09-3.84,14.94-8.92,14.94-5.73,0-5.35-4.56-1.67-21.95,3.25-15.29,4.85-20.57,10.4-20.57,4.56,0,4.74,3.81,2.95,12.35h13.27ZM703.27,291.31h34.81l2.37-11.18h-21.02l2.85-13.38h18.89l2.35-11.13h-18.85l2.5-11.75h20.07l2.39-11.19h-33.92l-12.44,58.63Z"/>
      <g>
        <g>
          <path class="st1" d="M857.37,253.47l2.28-14.9h-16.97l1.06-6.1h-21.69l-1.06,6.1h-13.21c.61-1.81,1.18-3.63,1.67-5.64h-21.56c-1.85,4.61-9.16,16.83-15.6,19.84l-3.3,17.68c1.31-.15,3.48-.24,6.16-.65l-3.7,21.5h19.3l5.69-32.67c3.41-3.62,6.64-8.52,9.37-14.84l-1.44,9.68h14l-.75,4.33h-17.65l-2.39,13.17h17.72l-.81,4.64h-18.1l-2.23,14.81h56.9l2.32-14.81h-17.18l.81-4.64h16.95l2.51-13.17h-17.18l.77-4.33h17.31Z"/>
          <path class="st1" d="M893.21,273.46c36.63-5.16,44.56-24.53,45.23-34.96h-26l1.31-5.93h-23.48l-1.29,5.93h-24.87l-2.62,14.95h46.57c-3.41,4.92-17.09,7.99-24.2,9.16l-1.65-2.03h-11.22c-2.57,4.96-6.88,10.09-12.59,12.69l-3.11,17.77c5.64,1.43,14.47-6.36,19.35-11.22,3.99,7.45,9.7,10.48,15.35,10.48h39.39l2.82-15.58h-28.01c-7.15,0-9.43.27-10.99-1.27h0Z"/>
          <polygon class="st1" points="1017.4 249.24 1020.33 234.25 968.71 234.25 965.8 249.24 980.88 249.24 976.75 273.98 962.19 273.98 959.26 289.76 1010.47 289.76 1013.36 273.98 998.44 273.98 1002.57 249.24 1017.4 249.24 1017.4 249.24"/>
          <polygon class="st1" points="966.3 234.43 943.39 234.43 940.32 249.04 964.02 249.04 966.3 234.43 966.3 234.43"/>
          <polygon class="st1" points="963.64 251.59 940.03 251.59 937.57 264.69 961.36 264.69 963.64 251.59 963.64 251.59"/>
          <path class="st1" d="M936.46,272.55l-2.98,18.28c11.94.76,16.52-1.8,24.78-7.13l2.39-16.23c-2.39,1.08-14.58,4.08-24.19,5.08h0Z"/>
        </g>
        <g>
          <path class="st1" d="M392.1,232.69h21.44c10,0,15.64,4.7,13.57,14.48-1.47,6.78-6.16,12.09-11.99,13.15l-.04.17c4.24.66,10.27,2.58,7.77,14.57-1.53,6.92-6.54,16.27-22.86,16.27h-20.32l12.42-58.63ZM395.6,281.16h4.22c5.55,0,8.21-3.6,9.05-7.65,1.24-5.81-1.22-8.2-5.46-8.2h-4.43l-3.38,15.86ZM400.95,256.09h3.75c4.74,0,7.33-2.7,8.17-6.9.66-3.02-.31-6.36-5.31-6.36h-3.86l-2.75,13.26Z"/>
          <path class="st1" d="M443.32,292.44c-18.13,0-18.1-11.82-14.13-30.44,3.99-18.65,8.98-30.43,27.11-30.43,19.52,0,17.58,14.18,14.15,30.43-3.47,16.23-7.56,30.44-27.13,30.44ZM445.21,283.25c5.58,0,7.54-5.18,10.93-21.25,3.41-16.06,3.7-21.27-1.9-21.27s-7.33,5.2-10.74,21.27c-3.43,16.07-3.73,21.25,1.71,21.25Z"/>
          <path class="st1" d="M493.47,232.69h17.27l2.14,58.63h-14.33l.27-11.18h-14.02l-4.43,11.18h-14.29l27.4-58.63ZM499.57,243.35h-.14l-10.4,26.08h10.02l.52-26.08Z"/>
          <path class="st1" d="M533.44,243.88h-12.32l2.39-11.19h38.42l-2.39,11.19h-12.33l-10.06,47.44h-13.79l10.07-47.44Z"/>
          <path class="st1" d="M579.87,232.69h23.16c11.74,0,14.22,7.21,12.53,15.29-1.83,8.53-6.19,12.67-12.89,14.24l-.05.19c8.51,1.27,7.88,6.69,6.36,14.59-2.21,11.57-2.06,12.75-.25,13.58l-.18.74h-14.87c-.65-2-.36-5.29,1.06-11.94,2.15-10.19,1.24-12.29-3.14-12.29h-5.24l-5.12,24.23h-13.81l12.44-58.63ZM588.43,257.42h4.27c5.62,0,7.92-4.18,8.69-7.65.93-4.44-.07-7.39-5.6-7.39h-4.2l-3.16,15.04Z"/>
          <path class="st1" d="M637.82,232.69h17.24l2.19,58.63h-14.31l.23-11.18h-14.04l-4.4,11.18h-14.27l27.36-58.63ZM643.95,243.35h-.18l-10.38,26.08h10.02l.54-26.08Z"/>
          <path class="st1" d="M691.88,253.08c1.8-8.53,1.62-12.35-2.95-12.35-5.55,0-7.15,5.28-10.4,20.57-3.68,17.39-4.06,21.95,1.67,21.95,5.08,0,6.89-5.85,8.92-14.94h13.27l-.43,2.02c-2.69,12.67-8.22,22.11-25.28,22.11s-16.25-13.24-12.5-30.88c3.2-14.96,7.24-29.99,26.73-29.99,12.16,0,17.69,5.25,14.76,19.01l-.54,2.5h-13.27Z"/>
          <path class="st1" d="M715.71,232.69h33.92l-2.39,11.19h-20.07l-2.5,11.75h18.85l-2.35,11.13h-18.89l-2.85,13.38h21.02l-2.37,11.18h-34.81l12.44-58.63Z"/>
        </g>
      </g>
    </g>
    <g>
      <path class="st1" d="M1113.79,198.92s7.43,2.45,8.3,7.47c0,0,.08,1.05-.99,1.4,0,0-1.49.1-3.53-1,0,0-8.33-2.85-14.47-.38,0,0,8.64-7.16,10.69-7.49Z"/>
      <path class="st1" d="M1080.85,193.38s-1.26-20.46,15.78-26.65c0,0,18.09-8.05,24.1,8.59,0,0,6.23-.63,9.6,6.62,0,0,1.59,3.25-3.25,5.94l-7.98,1.5,3.33,3.09s1.14,1.76-.8,4.01c0,0-2.8,2.72-7.31,2.76,0,0-12.05,5.16-13.87,16.25,0,0-.73,10.83,6.67,17.54,0,0,3.68,3.1,11.22,1.61,0,0,1.82-.53.45,1.84,0,0-3.39,4.29-8.17,3.23,0,0,1.59,6.18-5.64,10.34,0,0-1.28.93-1.97-.05,0,0-.04-.52.95-1.92,0,0,3.72-6.94-1.63-11.41,0,0-19.77-15.59-20.9-32.97,0,0-12.28-5.97-9.4-15.99,0,0,1-2.82,2.29-1.18,0,0,4.17,6.17,6.55,6.83Z"/>
      <path class="st1" d="M1080.85,193.38s3.19,1.09,4.51,1.03c0,0-4-2.43-4.15-6.95,0,0-.54,4.45-.36,5.92Z"/>
      <path class="st1" d="M1081.42,203.71s1.52.78,2.19.97c0,0-1.25,4.07.46,9.22,0,0-2.14-4.11-2.65-10.2Z"/>
      <path class="st1" d="M1107.73,199.51s4.72-.99,6.59-.27c0,0-4.75,2.27-7.15,4.74,0,0,3.61-3.26.57-4.47Z"/>
      <path class="st1" d="M1106.49,181.3s2.21-5.09,14.24-5.98c0,0-10.39-3-14.24,5.98Z"/>
      <path class="st1" d="M1130.53,183.81s1.11-4.5-11.43-2.42c0,0-5.62.84-11.71,6.49l12.06,7.62s5.18-.55,2.19-5.15c0,0,8.62-2.61,8.89-6.55Z"/>
      <path class="st1" d="M1113.23,183.63s8.3,3.37,8.02,11.29c0,0-5.43,3.2-13.33-3.37,0,0-1.52-1.74-3.96-.7,0,0,7.32-6.73,9.27-7.22Z"/>
      <path class="st1" d="M1100.45,188.24s-.82,3.66,3.51,2.61c0,0-2.99,1.7-4.28-.69,0,0-.69-1.38.77-1.92Z"/>
      <path class="st1" d="M1110.29,185.67s3.16-.15,6.76,6.78c0,0-1.55-5.78-6.17-7.43l-.59.65Z"/>
      <path class="st1" d="M1096.43,175.62s3.46-2.32,5.76,1.79c0,0,1.96,3.19-1.66,5.34,0,0-3.99,1.83-5.49-1.65,0,0-1.68-3.02,1.38-5.48Z"/>
      <path class="st1" d="M1096.38,176.75s3.11-1.94,4.88,1.68c0,0,1.01,2.16.09,3.74,0,0-2.58,2.17-5.22.39,0,0-3.36-3.74.25-5.81Z"/>
      <ellipse class="st1" cx="1098.34" cy="179.66" rx="1.22" ry="1.39" transform="translate(55.12 567.37) rotate(-29.68)"/>
      <path class="st1" d="M1094.11,173.88s.91-3.54,3.79-2.64c0,0-3.15-2.96-3.79,2.64Z"/>
      <path class="st1" d="M1116.59,175.84s-1.87-1.63-.34-4.09c0,0,1.36-1.67,2.43-.59,0,0,1.45,1.94,2.05,4.16,0,0-2.73.23-4.13.53Z"/>
      <path class="st1" d="M1116.25,171.75s2.57-1.35,3.49,3.63l-3.14.46s-1.89-1.68-.34-4.09Z"/>
      <path class="st1" d="M1113.81,168.78s1.06-2.45,3.29-.8c0,0-3.28-3.28-3.29.8Z"/>
      <ellipse class="st1" cx="1117.48" cy="174.04" rx=".85" ry="1.01" transform="translate(60.41 576.1) rotate(-29.68)"/>
      <path class="st2" d="M1108.9,164.97s7.11,3.2,9.51,10.58c0,0,6.43.82,6.57,5.29,0,0-9.18-.83-17.01,6.52,0,0-3.42,3.22-4.01,3.49,0,0,2.05-1.16,3.96.7,0,0,2.01,1.53,2.5,1.82,0,0-1.33-2.5.85-3.74,0,0,2.53-1.32,4.12-.23,0,0,.29-2.06,2.94-2.13,0,0,3.17,3.08,2.93,7.65,0,0-1.97,1.36-4.74.72,0,0,.96,3.18-10.81,3.92,0,0-4.28-.08-7.05,6.75,0,0-2.96,8.71-.22,21.17,0,0,.37,1.51-.23,1.71,0,0-.51.83-3.15-2.72,0,0-9.08-11.75-10.69-21.27,0,0,1.63-.13,1.92-1.59,0,0,.66-1.67-2.35-3.1,0,0-13.16-5.56-10.8-14.39,0,0-1.52.51-1.53,5.07,0,0-.22,7.09,9.83,12.51,0,0-.81,14.51,20.9,32.97,0,0,5.35,3.75,1.63,11.41,0,0-1.49,2.15-.62,2.23,0,0,.59,1.1,4.21-2.13,0,0,3.9-3.11,3.07-8.47,0,0,4.9,1.2,8.38-3.63,0,0,.46-.6.22-1.28,0,0,.04-.5-2.31.06,0,0-5.34.95-9.52-1.64,0,0-4.03-2.81-6.02-9.95,0,0-1.28-4.72-.82-8.41,0,0,.86-5.45,4.7-8.99,0,0,5.86-1.24,11.73.73,0,0,3.25,1.42,4.48,1.1,0,0,1.78-.95-.61-4.06,0,0-3.02-3.53-6.25-4.41,0,0,3.93.1,7.02-2.75,0,0,2.43-2.16.02-6.13,0,0,9.53-2.86,9.02-7.23,0,0-1.65-7.58-9.93-7.81,0,0-2.76-9.45-11.83-10.34Z"/>
      <path class="st4" d="M1087.67,172.69c.13-.14-6.77,10.55-2.31,21.71,0,0-3.21-.3-4.51-1.03,0,0-.6-12.28,6.82-20.68Z"/>
    </g>
    <g>
      <path class="st1" d="M287.09,310.46s-5.74-5.19-15.73.79c0,0-7.79,3.85-5.35,15.81,0,0-3.62,4.4-1.34,8.02,0,0,2.99,3.62,9.91.79,0,0,1.97.47,3.77-.31,0,0,1.97,1.26,2.75,2.83,0,0-1.81,2.75-1.97,3.62,0,0-.94,2.04,5.03,3.46,0,0,.71.24,1.18.24,0,0,3.07,8.1-.16,15.81,0,0-.63,1.97-2.44,1.57,0,0-3.3-.39-4.88-1.65,0,0-1.57-1.08-1.02,1.7,0,0,.47,3.02,4.72,3.8,0,0-2.52,5.51.24,10.15,0,0,.71,1.26,1.97,1.18,0,0,.71-.08.94-2.44,0,0,.55-2.91,1.26-4.25,0,0,1.02-2.2,2.04-5.43,0,0,.63-1.73,2.91-5.74,0,0,7.24-9.83,8.26-28,0,0,5.66-12.52-1.02-17.35h-2.2s2.75,2.41.24,8.86c0,0-2.91-8.8-6.68-11.56l-2.44-1.89Z"/>
      <path class="st1" d="M281.12,338.38s2.91,3.5,4.25,7.31c0,0-2.51-.39-3.79-1.05,0,0-3.4-1.1-2.22-3.23,0,0,1.33-2.4,1.76-3.03Z"/>
      <path class="st1" d="M283.73,325.7s1.3-.12,1.18,1.24c0,0-.24,4.52-10.32,8.93,0,0,6.27-1.55,10.33-7.1,0,0,1.6-2.42,0-3.07,0,0-.83-.41-1.19,0Z"/>
      <path class="st1" d="M278.36,335.55s4.86-1.47,7-4.48c0,0-1.82,4.57-5.71,5.5,0,0-.59-.54-1.29-1.01Z"/>
      <path class="st1" d="M265.56,323.32s2.78-1.07,4.16,1.37c0,0,.63,1.53-.87,1.97,0,0-1.97.87-2.83.39,0,0-.68-2.71-.46-3.73Z"/>
      <path class="st1" d="M267.32,323.11s-1.74.04-1.23,2.4c0,0,.49,1.3,1.42,1.58,0,0,2.17-.24,2.3-1.42,0,0,.42-1.95-2.5-2.57Z"/>
      <path class="st1" d="M278.36,324.34s-1.26-.28-.87-2.04c0,0,.63-2.4,2.91-2.63,0,0,2.79-.43,3.26,1.89,0,0,.39,1.85-2.04,2.56,0,0-1.81.63-3.26.23Z"/>
      <path class="st1" d="M280.11,319.71s-1.83,1.02-1,3.18c0,0,.48,1.16,1.93,1.38,0,0,2.91-.44,2.63-2.72,0,0-.36-2.35-3.56-1.84Z"/>
      <ellipse class="st1" cx="267.92" cy="325.14" rx=".83" ry="1.04" transform="translate(-109.74 138.4) rotate(-24.2)"/>
      <ellipse class="st1" cx="281.62" cy="321.8" rx="1.1" ry="1.31" transform="translate(-65.45 71.98) rotate(-13.06)"/>
      <path class="st1" d="M264.99,320.5s.87-1.71,3.46.34c0,0-2.44-3.51-3.46-.34Z"/>
      <path class="st1" d="M276.24,318.25s1.87-3.7,5.38-2.44c0,0-3.72-4.01-5.38,2.44Z"/>
      <path class="st1" d="M296.22,323.91s-2.6,3.54-3.07,4.01c0,0-1.26,1.26-1.1,2.04,0,0-.17-2.3,1.73-3.81,0,0,1.74-2.13,1.66-4.35,0,0,.55,1.48.78,2.11Z"/>
      <path class="st1" d="M280.87,337.95s-2.67-.87-3.44-.4c0,0,.41,1.24.94,1.65,0,0,.01,1.06.74,1.77,0,0,1.87-.29,2.51-1.36,0,0,.58,0,1.11-.18,0,0,1.3,1.36,3.6,1.18,0,0,.12-1.47-.35-2.24,0,0,.2-1.83-.34-2.89,0,0-1.3.19-3.39,2.36,0,0-.64-.45-1.37.1Z"/>
      <path class="st1" d="M280.87,337.95s.14,1.05.75,1.67c0,0-.72-.21-.75-.5,0,0-1.09.18-1.53-.21,0,0-.21-.22.27-.13,0,0,.84.15,1.09,0,0,0-.05-.7.17-.83Z"/>
      <path class="st1" d="M282.24,337.85s.16,1.03.49,1.59c0,0-.03-.61.33-.66,0,0,1.36.1,1.42-.14,0,0,.32-.59-1-.41,0,0-.86.27-.94,0,0,0-.22-.45-.12-.56l-.17.17Z"/>
      <path class="st3" d="M284.5,309.04s1.38,1.38,1.84,4.03c0,0,.41,2.68,3.94,3.89,0,0,3.83,6.85,2.12,11.89,0,0,3.62-4.42,3.82-4.95,0,0-2.73-7.82-5.04-9.95,0,0-4.2-4.34-6.67-4.92Z"/>
      <path class="st3" d="M268.79,313.36s-3.84,5.34-1.73,12.52c0,0-.57.51-1.04,1.17,0,0-2.09-8.63,2.77-13.69Z"/>
      <path class="st1" d="M297.08,317.22s-.44-1.6.51-1.76c0,0,1.35-.14,2.05.96,0,0-.44-4.05-6.73-8.52,0,0-3.19-2.54-6.61-2.99,0,0-1.92-.34-1.8,1.71,0,0,.89,6.82,12.58,10.61Z"/>
      <path class="st1" d="M293.27,300.79s-.59.16-.63.67c0,0-.94,5.43-2.44,6.68,0,0,3.26,3.54,5.35,3.62,0,0,3.3-4.21,5.03-4.76,0,0,.47-.12.31-.73l-7.63-5.49Z"/>
      <path class="st1" d="M290.99,307.03s.82,3.19,5.26,3.86c0,0-.83,1.14-1.14,1.73,0,0-3.81-.45-5.54-4.14,0,0,1.16-.88,1.42-1.45Z"/>
      <ellipse class="st1" cx="296.78" cy="303.91" rx="2.19" ry="4.98" transform="translate(-125.48 350.14) rotate(-51.93)"/>
      <path class="st3" d="M299.65,303.63s.97,1.92-.28,2.43c0,0-1.69.6-4.32-.74,0,0,1.14.99,2.05,1.39,0,0-3.29,3.61-3.83,5.35,0,0,1.66,1.31,1.23,2.8,0,0-.25.95-1.85.53,0,0,2.4,1.22,4.45,1.82,0,0-.39-1.68.51-1.76,0,0,1.34-.17,2.05.96,0,0-.76-3.36-3.39-5.52,0,0,2.74-3.24,3.75-3.51,0,0,2.32-.68-.36-3.75Z"/>
      <path class="st1" d="M282.24,337.85s.25.94.49,1.59c0,0-1.67.88-2.03-.66,0,0-.36-1.3,1.54-.94Z"/>
      <path class="st3" d="M284.04,332.49s-1.11,2.19-.34,4.04l-1.46,1.32s-.83-.39-.62.53c0,0,.4.86.92.63,0,0,2.77.95,3.69.04l-.25-.67s.03-1.67-.19-2.52c0,0,.56,1.38.56,2.92,0,0,.48,1.36,0,2.49,0,0,3.35,10.56.75,19.46,0,0-.24.59.12.94,0,0,.29.47,1.3-.77,0,0,6.97-9.77,5.62-22.96,0,0-.54-2.28.87-3.88,0,0,4.66-3.96,4.9-12.27,0,0,.24-5.31-2.36-6.75h.65s6.65,3.53,1.02,17.35c0,0-.57,16.98-8.41,28.26,0,0-2.18,3.75-2.76,5.48,0,0-1.23,3.89-2.27,5.91,0,0-1.07,3.16-1.29,5.16,0,0-.04.81-.69,1.05,0,0-1.41.54-2.56-2.38,0,0-1.67-3.45.36-8.94,0,0-5.05-.81-4.81-5.12,0,0,.16-.96,1.12-.38,0,0,2.63,1.9,5.83,1.64,0,0,.91.02,1.48-1.56,0,0,3.26-6.78.16-15.81,0,0-4.49-.51-6.07-2.7,0,0-.61-1.16.38-2.15l-.57.13s-.98-1.18-.74-1.77c0,0-.88-1.06-.94-1.65,0,0,.87-.45,3.44.4,0,0-1.33-1.75-2.5-2.4,0,0-1.89.87-3.77.31,0,0,3.44-.72,7.03-3.67,0,0,.19.73,2.42.3Z"/>
    </g>
    <g>
      <path class="st1" d="M1042.65,403.34s6.66,1.39,7.77,8.45c0,0,4.49.87,5.28,4.26,0,0,1.11,2.46-3.41,3.38,0,0-.97,2.37-3.58,2.84,0,0-3.76.8-4.6,9.29,0,0,3.42-.18,4.02,2.36,0,0,.75.1.8.82,0,0,.09,2.12-2.87,3.44,0,0,.7,5.24.02,9.75,0,0-.8,5.75-3.78,10.29,0,0-3.73,5.45-5.82,7.63,0,0-2.25,2.29-4.23,5.48,0,0-2.62,4.15-3.54,5.6,0,0-.45,1.24-1.07,1.44,0,0-1.45.65-2.35-1.79,0,0-1.5-4.08,1.8-9.64,0,0,.29-.26-.51-.5,0,0-2.8-.74-1.85-4.37,0,0,.31-1.3.71-1.3,0,0,.56-.16,1.06.35,0,0,3.17,2.53,7.34.21,0,0,3.24-6.04-.26-11.68,0,0-4.5-7.6-8.93-13.63,0,0-3.26-4.85-4.35-11.36,0,0-.93-6.37,1.31-12.38,0,0,2.98-9.73,14.37-10.35l6.66,1.39Z"/>
      <path class="st1" d="M1040.03,414.11s4.07-3.22,10.4-2.31c0,0-4.91-3.72-10.4,2.31Z"/>
      <path class="st1" d="M1034.26,419.52s.27.29-.63.75c0,0-.71.47-.36,1.49,0,0,.91,2.13,2.88,2.07,0,0,1.68.03,3.83-1.14,0,0,6.57-4.56,12.31-3.25,0,0-.65.27-1.88.24,0,0-4.31-.01-7.45,1.7,0,0-2.28,1.4-2.94,1.81,0,0-2.35,1.2-4.18,1.02,0,0-2.24-.24-2.83-2.44,0,0-.39-1.48.71-2.15,0,0,.53-.3.55-.09Z"/>
      <path class="st1" d="M1042.11,433.24s-.49,1.12.93,1.42c0,0,1.34.06,2.43-.62,0,0,.61-.34,1.19-.13,0,0,1.04.36,1.46.01,0,0,.12.74-.93.75,0,0-1.06-.25-2.14.16,0,0-1.63,1.03-2.85.48,0,0-1.5-.77-.1-2.09Z"/>
      <path class="st1" d="M1038.55,437.15s2.88,3.14,7.51,1.03l.05.47s-4.01,2.76-7.56-1.5Z"/>
      <path class="st1" d="M1044.91,411.43s-.17-3.04,2.65-3.56c0,0,2.14-.39,2.86,3.93,0,0-2.77-.61-5.28.14,0,0-.25.04-.23-.51Z"/>
      <path class="st1" d="M1047.38,408.54s1.17-.09,1.45,1.15c0,0,.32,1.38-.45,1.88,0,0-2.58.21-3.1.33,0,0-.47.2-.36-.68,0,0,.1-2.3,2.46-2.68Z"/>
      <path class="st1" d="M1044.89,410.05s3.78-2.84,5.79-2.61c0,0-.49-.54-1.17-.73,0,0,.33-.32.63-.35,0,0-.62-.32-1.25-.2,0,0,.09-.68.23-.97,0,0-2.64.29-4.24,4.85Z"/>
      <path class="st1" d="M1037.09,411.56s3.54,1.27,1.59,2.9c0,0-2.07,1.18-2.67,1.61,0,0-2.29,1.53-3.61-.99,0,0-1.07-1.9.1-3.22,0,0,3.36-.67,4.59-.3Z"/>
      <path class="st1" d="M1035.85,411.63s2.41.42,1.73,3.47c0,0-1.87,1.17-2.19,1.26,0,0-1.47.61-2.37-.43,0,0-2-2.08-.52-4.07l2.69-.38s.47.1.66.15Z"/>
      <path class="st1" d="M1028.47,413.84s5.57-3.22,11.46-1.46c0,0-2.45-3.53-9.45-3.01,0,0-1.1-.01-1.73-.19,0,0,1.11.89,1.46,1.4,0,0-1.67.4-1.81.55,0,0,.82.54,1.1.85,0,0-.63.65-1.04,1.85Z"/>
      <path class="st1" d="M1024.69,407.18s5.35-5.76,10.71-4.99c0,0,3.63.64,4.68,1.72,0,0,2.92,2.68,4.24,3.26,0,0-.41-4.07,1.91-5.5,0,0,4.16-2.53,6.69-1.96,0,0,.12,1.23,1.49,2.23,0,0,3.17,2.11,3.78,2.85,0,0-1.1-1.65-1.49-4.59,0,0-.73-3.36-1.06-4.04,0,0-1.21-1.38-9.75-1.06,0,0,.55-2.79,1.26-3.86,0,0,1.25-1.01,2.35-2.14,0,0-2.61.42-3.89.27,0,0-3.44-.07-4.39.38,0,0-.72.13-2.51,3.37,0,0-1.16-.8,1.49-5.3,0,0-1.67.57-2.66,1.42,0,0-1.92.82-2.41,3.02,0,0-.12-1.83-1.23-2.84,0,0-.82-1.1-.47-2.1,0,0-.87,3.16-1.62,4.41,0,0-1.82,2.26-2.51,4.23,0,0-.73-1.19-1.69-1.87,0,0-1.15-1.29-1.72-3,0,0,.49,2.35-.24,4.3,0,0-1.69,4.23.26,5.67,0,0-2.6.2-3.38.02,0,0-.74-.21-2.41,1.3,0,0,2.37-.18,3.7,1,0,0-2.18.95-2.83.7,0,0-.52-.18-1.22,1.48,0,0,3-.96,4.9,1.61Z"/>
      <path class="st1" d="M1025.93,401.08s.99,1.21,1.15,1.77c0,0-1.7-1.73-2.24-1.71l1.09-.07Z"/>
      <path class="st1" d="M1029.32,395.97s-.57,2.86-.22,5.31c0,0-2.39-.83-2.49-3.52,0,0-.19-4.7-.54-6.22,0,0,.87,1.97,1.56,2.57,0,0,1.51,1.22,1.69,1.87Z"/>
      <path class="st1" d="M1035.15,392.61s-1.62,6.17-2.56,7.26c0,0-1.19-1.48-.39-5.04,0,0,1.13-5.58,1.11-7,0,0-.27.49,1.11,2.21,0,0,.97,1.7.73,2.58Z"/>
      <path class="st1" d="M1040.23,387.82c.12-.2-2.99,1.05-3.84,4.93,0,0-.18,4.83-1.9,6.85,0,0,3.25-3.27,4.25-6.48,0,0-1.09-.75,1.49-5.3Z"/>
      <path class="st1" d="M1049.51,389.11s-2.77.34-3.33.3c0,0-1.79.25-4.43,5.35,0,0-2.8,4.49-4.38,5.01,0,0,1.8-.47,4.65-2.82,0,0,2.06-1.8,3.89-1.84,0,0,.37-2.11,1.04-3.47,0,0,.35-.46,1.03-1.08,0,0,1.15-1.12,1.53-1.44Z"/>
      <path class="st1" d="M1044.33,407.17s-2.11-1.18-3.85-2.91c0,0-.84-.98-2.56-1.44,0,0,8.8-6.56,14.51-5.5,0,0,.81-.11.86,1.1,0,0-.14,2.32.81,3.26,0,0-1.08-1.04-1.16-1.96,0,0-1.89-.71-6.69,1.96,0,0-2.19,1.16-1.91,5.5Z"/>
      <path class="st0" d="M1053.3,399.3s1.76,2.45,3.57,1.81c0,0,.65,2.79,1.34,3.67,0,0-2-1.62-2.99-2.31,0,0-2.17-1.02-1.92-3.17Z"/>
      <g class="st6">
        <path class="st1" d="M1026.02,391.85s0-.07,0-.07c0,.02,0,.04,0,.07Z"/>
        <path class="st1" d="M1048.19,422.5s3.21-.63,4.1-3.06c0,0,2.8-.41,3.48-2.3,0,0,.39-1.86-2.01-3.85,0,0-1.65-1.28-3.34-1.48,0,0-.35-4.94-5.83-7.75,0,0,.67-1.85,1.66-2.38,0,0,3.94-2.36,6.69-1.96,0,0,.11.68.8,1.46,0,0-.38-.57-.45-2.76,0,0-9.45.27-11.97,6.58,0,0,2.07,1.77,3.02,2.18,0,0,2.68,1.33,2.34,4.54,0,0,3.9.08,5.12,3.74,0,0,1.55,3.16-4.39,4.05,0,0-5.31,1.73-7.85,3.9,0,0-5.14,2.34-6.55-1.63,0,0,.08,1.44,3.11,3.4,0,0,1.65,1.29-.9,2.56,0,0,3.13.22,5.21,3.61,0,0,1.31,1.94,1.6,2.25,0,0-.64,1.88,3.03,1.26,0,0,.53,5.3-6.51,2.3,0,0,.96,2.1,2.81,2.99,0,0,2.1,3.43,1.14,9.19,0,0-1.51,6.95-4.75,10.14,0,0-.81,1.04-1.59.86,0,0-.57.01.1-2.15,0,0,2.51-5.17-2.05-13.38,0,0-2.86-5.74-5.85-9.38,0,0-4.61-6.57-4.72-13.16,0,0-.18-5.44,1.06-10.85,0,0,1.2-5.23,5.51-8.26,0,0-1.81-2.65-.88-7.19,0,0-.96-1.43-1.84-2.01,0,0-1.33-1.68-1.46-2.1.05.42.29,2.75-.68,4.59,0,0-.95,3.26.59,4.64,0,0-2.6.13-2.99.07,0,0-1.12-.42-2.8,1.24,0,0,2.15-.2,3.7,1,0,0-1.69.8-2.83.7,0,0-.53-.15-1.22,1.48,0,0,3.1-.9,4.9,1.61,0,0-3.51,3.45-4.31,10.23,0,0-.99,7.09,1.13,11.98,0,0,1.25,3.9,3.63,7.32,0,0,6.65,9.81,7.9,12.05,0,0,4.38,5.45.8,12.59,0,0-3.43,2.16-7.04,0,0,0-1.48-1.37-1.85.03,0,0-1.73,3.85,1.85,5.16,0,0,.62.12.05.82,0,0-3.5,6.03-.97,10.36,0,0,1.58,2.19,2.82-.79,0,0,4.22-6.66,6.12-9.2,0,0,3.17-3.56,4.49-5.35,0,0,4.06-4.74,5.61-9.76,0,0,1.6-4.73,1.45-8.77,0,0-.12-5.06-.31-5.66,0,0,2.88-1.2,2.84-3.62,0,0,.13-.35-.77-.64,0,0-.34-1.95-3.03-2.3.03.01.05.02.05.02,1.15,1.32-1.31,2.01-1.31,2.01-1.32.66-1.74-.42-1.74-.42.83-1.41,2-1.67,2-1.67,0,0,.22-4.38,2.12-7.15,0,0,1.1-1.63,1.95-1.92ZM1044.52,422.84c-.99.36-3.02,1.34-3.02,1.34-2.17.94-2.2.41-2.2.41-.13-.22.47-.71.47-.71,1.17-.99,3.94-2.39,3.94-2.39,1.79-.88,2.55-.06,2.55-.06.38.88-1.75,1.42-1.75,1.42Z"/>
      </g>
      <ellipse class="st1" cx="1034.87" cy="413.89" rx=".91" ry="1.28" transform="translate(-69.2 261.31) rotate(-13.93)"/>
      <ellipse class="st1" cx="1046.94" cy="410.24" rx=".69" ry=".92" transform="translate(-11.73 31.28) rotate(-1.7)"/>
      <path class="st1" d="M1044.11,431.57s-1.42.42-2,1.67c0,0,.63-2.25,1.99-2.72,0,0,0,.75.01,1.05Z"/>
    </g>
    <g>
      <path class="st1" d="M314.95,178.01s-3.96,2.03,2.2,11.61c0,0-3.03.89-3.17,3.25,0,0,.2,4.32,6.43,6.53l12.47-3.99s-5.16-15.27-17.93-17.4Z"/>
      <path class="st1" d="M332.14,193.57s-8.2-7.53-16.34,2.03c0,0,11.37,5.8,15.58,6.04l1.36-.67s.85-4.51-.6-7.4Z"/>
      <path class="st1" d="M332.03,194.82s-2.8-1.78-9.94.68c0,0,4.49-2.95,9.48-1.23l.47.55Z"/>
      <path class="st3" d="M323.44,190.85s1.82,1.38,2.17,3.21c0,0,4.14,1.84,2.07,5.71l4.93,2,.89-5.76-.79-1.76s-3.16-3.79-9.27-3.4Z"/>
      <path class="st1" d="M336.51,173.59s-4.54-.91-10.1,2.46c0,0-6.5-3.57-12.36,2.68,0,0,4.59-.93,10.35,5.03,0,0,7.9,6.95,7.47,16.16,0,0-.14,1.16-1.94-.03,0,0-6.23-2.21-7.56-2.39,0,0-4.73-.99-7.67-4.07,0,0-.96-1.47,0-2.3,0,0-.68-.33-1.42-2.48,0,0-.32-1.44-1.29-1.04,0,0-7.43,5.14,6.33,21.14,0,0-2.41,7.63-10.98,8.1,0,0-8.35-1.13-4.47-15.25,0,0,.84-1.81-1.19-1.04,0,0-6.31,1.68-5.04,9.74,0,0-4.79-1.96-9.98,1.62,0,0-.77.96.33,1.14,0,0,6.97.05,15.92,7.52,0,0,13.22,12.86,33.06-.03,0,0,14.63,2.82,21.65-8.12,0,0,.81-1.47-.41-2.17,0,0-.91-.34-3.8.36,0,0-5.6,1.4-9.36,1.41,0,0,5.23-7.08,5.9-9.84,0,0,7.23-19.78-13.45-28.61Z"/>
      <path class="st3" d="M314.71,191.15s-3.33,3.16,3.52,10c0,0,2.24,2.66.1,7.62,0,0-10.77-11.01-7.7-19.32,0,0,.87-1.9,1.8-1.87,0,0,.43.04.85,1.1,0,0,.61,1.78,1.42,2.48Z"/>
      <path class="st1" d="M326.41,176.05s6.76,2.98,10.05,11.21c0,0-.07-9.64-10.05-11.21Z"/>
      <path class="st1" d="M331.04,178.65s-.33-3.58-2.94-4.53c0,0-.85-.24-.51.43,0,0,1.5.53,1.62,1.93,0,0-2.31-1.72-3.26-.98,0,0-.11.45.46.55,0,0,3.6.91,4.63,2.6Z"/>
      <path class="st1" d="M339.78,188.31s-1.1.38-1.11,1.49c0,0,.02,3.68,2.35,5.51,0,0,1.73,1.22,3.64-1.57,0,0,1.26-2.16-.19-4.17,0,0-1.41-2.43-4.68-1.26Z"/>
      <path class="st1" d="M344.09,189.1s-2.83-1.58-5.21,2.39c0,0,.12,1.72,1.76,3.53,0,0,1.37,1.47,3.34-.45,0,0,2.6-2.53.11-5.47Z"/>
      <path class="st1" d="M344.02,191.48s-.49-1.52-2.07-.59c0,0-1.42.75-.91,2.2,0,0,.5,1.53,2.03.4,0,0,1.43-.97.94-2.01Z"/>
      <path class="st1" d="M340.26,200.59s1.96-.39,2.77-.83c0,0-1.54,2.16-2.09,2.7,0,0,.39,1.33.34,2,0,0-1.29-.34-1.69-.63,0,0-1.7,1.28-2.31,1.62,0,0,.58-1.99.54-2.42,0,0-1.69-1.08-2.06-1.52,0,0,2.36-.14,2.85-.24,0,0,.68-2.41.62-2.66,0,0,.77,1.1,1.03,1.98Z"/>
      <path class="st1" d="M332.91,173.64s8.74,3.58,12.9,10.4c0,0,6.66,10.54,2.38,21.85,0,0,3.68,1.56,6.08-1.48,0,0,3.41-4.28,2.04-14.71,0,0,1.43-3.64,1.99-4.75,0,0,4.47-9.11-2.96-15.7,0,0-6.04-5.87-10.76-1.27,0,0-4.68-4.73-9.36-2.05,0,0-2.94,1.6-2.32,7.71Z"/>
      <path class="st1" d="M344.58,167.98s8.84,7.61,9.63,13.05c0,0,1.31,4.84-2.35,11.07-3.66,6.23-.52,1.41-1.42,2.61,0,0,3.48-3.82,4.75-9.52,0,0,.91-4.82-2.67-9.46,0,0-5.99-8.44-7.93-7.75Z"/>
      <path class="st1" d="M356.3,189.7s-1.62,2.85-1.61,5.21c0,0,.99-2.2,1.86-2.57l-.26-2.64Z"/>
      <path class="st1" d="M349.61,197.26s-.26-2.34,1.58-3.25c0,0,1.37-.52,1.52,1.24,0,0,.2,2.45-1.89,3.45,0,0-1.08.52-1.21-1.44Z"/>
      <path class="st1" d="M331.27,173.03s4.57-.46,4.42,3.29c0,0,1.83-4.38-4.42-3.29Z"/>
      <path class="st1" d="M346.14,186.35s5.05,2.14,1.69,8.26c0,0,4.93-7.29-1.69-8.26Z"/>
      <path class="st3" d="M352.86,167.45s-4.59-3.05-8.28.52c0,0-4.73-4.69-9.36-2.05,0,0-3.16,1.9-2.32,7.71,0,0-3.84.61-6.5,2.41,0,0-6.4-3.46-12.36,2.68,0,0,2.69-.24,4.79.93,0,0,.63-5.5,10.24-1.98,0,0,4.32-3.13,7.17-1.83,0,0,14.21,7.19,12.13,23.34,0,0-2.3,7.28-9.3,11.59,0,0,2.79,1.37,4.98,1.24,0,0,2.98-4.06,4.13-6.15,0,0,2.51,1.09,4.86-.36,0,0,2.6-1.38,3.29-7.06,0,0-.46,3.08-3.28,4.59,0,0-1.85,1.11-3.82-.1,0,0,.76-3.82.57-4.77,0,0,.62,1.55,2.21-.49,0,0-2.26.49-.83-3.7,0,0-.81.46-1.22,1.26,0,0-.64-9.5-6.66-15.42,0,0-1.16-3.51,1.93-6.42,0,0,2.52-2.24,5.54,1.02,0,0-2.59-3.04-3.7-4.12,0,0,.21-2.28,5.8-2.86Z"/>
      <path class="st3" d="M318.32,208.77s-12.61-13.4-6.7-20.81c0,0,.25-.35.81-.39,0,0,.78.31,1.12,1.84,0,0,.34,1.04,1.16,1.74,0,0-1.93,1.88,2.97,4.55,0,0-1.26,2.09,1.06,5.42,0,0,2.89,1.75,5.17,1.84,0,0,2.19,1.67-.14,5.55,0,0-7.02,10.66-16.56,10.18,0,0-.72-.2-1.06.33,0,0-.34.53,1.21,1.44,0,0,13.35,7.68,25.87-3.16,0,0,.69-.66,2.55.06,0,0,11.74,3.93,19.12-1.61,0,0-5.67,6.6-18.92,4.83,0,0-16.03,11.86-31.39,1.36,0,0-9.67-8.51-17.6-8.85,0,0-1.14-.23-.33-1.14,0,0,3-3.08,9.98-1.62,0,0-1.57-7.92,5.4-9.86,0,0,1.23-.43.83,1.16,0,0-4.22,12.68,4.47,15.25,0,0,7.47.27,10.98-8.1Z"/>
    </g>
    <g>
      <path class="st1" d="M155.16,408.89s6.44-1.92,10.78,1.12c0,0,10.38,5.43,7.45,16.85,0,0,2.5,2.59.46,5.42,0,0-1.83,1.7-5.46.75,0,0,2.03,1.81-2.91,2.68,0,0,4.46.77,6.44-.89,0,0,1.09-1.41,2.03-.28,0,0,3.51,5.84-13.49,7.75,0,0-3.77,12.57,4.74,18.4,0,0,3.42,2.07,12.6-2.28,0,0,1.27-.91,1.22.74,0,0-.75,3.74-6.12,4.62,0,0-1.69.16-1.45,2.91,0,0,.69,7.11-3.07,7.77,0,0-.92.55-.85-2.52,0,0-.29-5.24-6.61-9.15,0,0-3.44-1.67-7.22-3.72,0,0-13.6-8.31-14.62-19.73,0,0-1.93-17.06,3.57-22.27l2.87-5.6,9.63-2.57Z"/>
      <path class="st1" d="M166.14,424.4s4.8.13,7.26,2.47c0,0-2.16-5.31-7.26-2.47Z"/>
      <path class="st1" d="M157.53,430.79s-2.96-1.32-.44-3.23c0,0-.97-.86-1.56.58,0,0-.79,1.54,2,2.65Z"/>
      <path class="st1" d="M168.39,433.03s-4.31-.72-5.33-1.43c0,0-.71-.47-2.49-.48,0,0-2.12-.14-3.04-.33,0,0,2.59.95,3.19,1.43,0,0,2.63,2.55,5.27,2.8,0,0,3.89.26,2.4-1.98Z"/>
      <path class="st1" d="M150.27,425.73s.74.68-1.83,2.28c0,0-4.51,3.51-1.77,8.41,0,0-.13-5.13,2.36-7.75,0,0,2.08-1.49,1.24-2.95Z"/>
      <path class="st1" d="M169.68,424.96s-1.06-4.52,2.41-5.18c0,0,1.77-.23,1.78,2,0,0,.07,2.71-1.13,4.56,0,0-2.05-1.12-3.06-1.37Z"/>
      <path class="st1" d="M171.71,419.87s3.27.04,1.02,6.46c0,0-2.05-1.12-3.06-1.37,0,0-.81-4.28,2.04-5.09Z"/>
      <ellipse class="st1" cx="172.67" cy="424.16" rx=".66" ry=".56" transform="translate(-280.37 357.25) rotate(-59.45)"/>
      <path class="st1" d="M154.62,422.94s-.44-5.79,4.75-5.41c0,0,5.14-.16,2.69,6.97,0,0-4.42.83-6.72-.33,0,0-.72-.38-.71-1.23Z"/>
      <path class="st1" d="M157.62,417.67s3.68-.51,3.99,3.59c0,0-.02,2.6-1.41,3.47,0,0-3.7.33-4.87-.56,0,0-1.73-5.2,2.28-6.5Z"/>
      <ellipse class="st1" cx="156.58" cy="422.36" rx=".82" ry=".83" transform="translate(-56.03 25.25) rotate(-7.82)"/>
      <ellipse class="st1" cx="157.88" cy="423.41" rx=".73" ry=".6" transform="translate(-56.17 25.43) rotate(-7.82)"/>
      <path class="st1" d="M171.31,417.22s1.99-.8,2.92,1.17c0,0-.73-2.52-2.92-1.17Z"/>
      <path class="st1" d="M154.93,416.38s1.55-1.88,4.29-.97c0,0-2.79-1.61-4.29.97Z"/>
      <path class="st1" d="M173.24,420.11s.6.23,1.39-.23c0,0-.51.56-.86.73,0,0-.27-.34-.53-.51Z"/>
      <path class="st1" d="M173.79,421.06s.5.24,1.37-.03c0,0-.43.58-1.29.74l-.08-.71Z"/>
      <path class="st1" d="M173.85,422.49s.83.22,1.51-.02c0,0-1.02.82-1.45.8l-.06-.78Z"/>
      <path class="st1" d="M155.64,419.13s-1.6.13-2.06-1.18c0,0-.39,1.27,1.55,1.97l.52-.79Z"/>
      <path class="st1" d="M154.92,420.47s-2.1.29-2.32-1.3c0,0-.55,1.15,2.13,2.11l.19-.81Z"/>
      <path class="st1" d="M154.66,421.78s-1.14.6-2.48-.15c0,0,.46,1.26,2.43.99l.04-.84Z"/>
      <ellipse class="st1" cx="153.43" cy="425.86" rx="1.19" ry="1.65" transform="translate(-284.25 541.33) rotate(-84.97)"/>
      <path class="st2" d="M169.61,412.86s4.43,6.87-.19,12.03c0,0,3.67.69,3.16,4.28,0,0-.04,3.43-2.95,4.09,0,0,4.86.7,5.01-2.97,0,0,.32-1.8-1.24-3.44,0,0,2.35-8.03-3.79-14.01Z"/>
      <ellipse class="st1" cx="171.78" cy="422.96" rx="1.16" ry=".86" transform="translate(-270.2 537.2) rotate(-82.39)"/>
      <ellipse class="st1" cx="158.33" cy="420.98" rx="1.5" ry="1.35" transform="translate(-278.33 528.75) rotate(-83.25)"/>
      <path class="st1" d="M165.19,435.66s4.3.84,6.73-.83c0,0,.65-1.15,1.73-.56,0,0,1.14.68.35,2.53,0,0-.43,4.13-13.53,5.5,0,0,1.53-5.38,3.53-6.33,0,0,.38,0,1.19-.31Z"/>
      <path class="st1" d="M159.1,434.97s1.91,1.41,4.89,1c0,0-.66.43-.89.73,0,0-2.76.37-4-1.73Z"/>
      <path class="st5" d="M158.81,412.51s-2.96,3.4-4.27,5.25c0,0-1.19,1.4-2.49-.47,0,0-1.92-2.54-4.41.42,0,0-3.59,5.39-2.89,8.43,0,0-3.39,1.99-3.87,5.38,0,0-.4,3.29,1.73,3.23,0,0,.79.25,1.7-3.17,0,0,.86-3.99,4.4-5.34,0,0,.81-.33.71-.7,0,0-.5-.89-4.03.12,0,0,4.87-1.77,4.94.55,0,0,.3.9-1.32,2.39,0,0-2.31,1.97-2.36,7.54,0,0,.3,1.15-.7,2.52,0,0-1.58,12.01,12.25,20.24,0,0,2.15,1.08,2.6.93,0,0,.92.11-.16-1.88,0,0-3.12-6.42-2.11-15.69,0,0,.59-3.6,1.24-5.02,0,0,.42-1.01-.27-1.94,0,0,3.19.76,3.54-1.41,0,0-1.9-1-2.34-1.74,0,0-2.73-1.49-2.96-1.46,0,0,3.75.36,4.3.5,0,0,.27-.1,1.44.57,0,0,3.86,1.25,4.9,1.2,0,0,1.86,1.79-2.91,2.68,0,0,2.68.55,5.24-.23,0,0,1.1-.3,1.49-.95,0,0,.69-.61,1.11-.4,0,0,2.04.35.2,3.66,0,0-2.36,3.66-13.06,4.52,0,0-3.36,11.96,3.93,17.79,0,0,1.13,1.55,5.1,1,0,0,4.88-.82,8.31-2.67,0,0,.62-.49,1.09-.02,0,0,.88,1.44-2.11,3.86,0,0-1.5,1.22-3.46,1.44,0,0-2.14-.04-1.87,2.99,0,0,.85,6.37-2.79,7.7,0,0-.97.43-1.05-.88,0,0,.03-1.52-.21-2.39,0,0-.34-2.94-3.73-6.24,0,0-3.12-2.63-5.59-3.52,0,0-8.88-4.01-14.04-10.72,0,0-4.3-5.4-4.96-11.3,0,0-1.23-16.8,2.82-21.17l3.23-4.96,4.09-1.7,9.61,1.06Z"/>
      <path class="st1" d="M138.8,408.41s-1.19.02-.99,2.51c0,0,.04,2.37-.18,3.88,0,0-1.57.93-2.4,1.19,0,0,.58,3.25,1.4,5.04,0,0,.72,1.79.77,3.17,0,0,4.65-2.18,5.36-6.68,0,0,1.65-1.5,2.14-3.14,0,0,1.75-.05,3.5-.86,0,0,1.92,1.16,2.79,1.28,0,0,2.22,1.47,2.77,2.26,0,0,5.05-4.62,7.41-5.76,0,0-1.45-1.75-3.38-2.68,0,0,.28-2.13.96-3.41,0,0,.76-1.82.02-2.86,0,0-6.81-1.96-10.51,6.82,0,0-1-.39-2.34.61,0,0-2.92-2.88-7.32-1.37Z"/>
      <path class="st1" d="M157.99,408.63s-1.18,2.99-1.21,4.68c0,0,.3,1.1-.49,1.21,0,0-4.26.54-5.1.27,0,0,4.01.39,4.41.77,0,0,2.06-1.68,2.54-2.06,0,0-.26-3.66.11-4.74l-.26-.13Z"/>
      <path class="st1" d="M148.47,409.18s1.9-1.93,3.55-1.58c0,0,1.02.19.08.85,0,0-3.6,1.05-3.67,3.42,0,0-.13,1.6.25,1.81l-.37-.21s-1.3-1.54.17-4.29Z"/>
      <path class="st1" d="M146.13,409.78s-2.29,1.69-1.22,4.59c0,0-.92-.82-.88-1.54,0,0-.24-1.06-2.72-.43,0,0-.87-.08-.5-.51,0,0,1.87-1.26,3.31-.46,0,0,1.2-2.01,2.01-1.65Z"/>
      <path class="st1" d="M137.64,414.8s-.32,2.87-.38,3.46c0,0,.42,2.02,5.51-.76,0,0-.87,2.32-4.34,2.32,0,0-1.29-.01-1.38-.71,0,0-.18-3.4.6-4.31Z"/>
      <path class="st1" d="M148.47,409.18s-1.49,2.53-.17,4.29c0,0-1.65,1.02-3.4.91,0,0-1.01-2.86,1.22-4.59,0,0,.83-.9,2.34-.61Z"/>
      <path class="st3" d="M137.68,414.8l-.29,2.64s.95,1.84,4.01-.66c0,0,2.46-1.88,3.27-4.07,0,0,.49,1.22,3.19-.44,0,0,3.04,1.51,6.68,1.37,0,0,1.6,0,2-2.34,0,0,.75-4.62,1.87-6.87,0,0,.74-.91.6-2.08,0,0,.9,1.54-.02,2.86l-.96,3.41.68.37s-.43,2.05.07,3.3c0,0,2.23-1.17,2.63-.99,0,0-6.63,4.49-7.41,5.76,0,0-1.93-2-2.77-2.26,0,0-2.57-.75-2.89-1.33,0,0-2.12.8-3.4.91,0,0-1.43,2.76-2.14,3.14,0,0-.74,4.66-5.36,6.68,0,0-.14-2.29-.95-3.61,0,0-1.47-3.8-1.21-4.6,0,0,2.35-.83,2.4-1.19Z"/>
    </g>
    <g>
      <path class="st1" d="M151.45,225.12s-.94-11.24,10.11-13.77c0,0,12.06-2.26,16.83,6.06,0,0,4.62,6.44,4.05,16.55,0,0-.58,2.09,2.02,4.84,0,0,2.38,1.28,1.16,6.67,0,0-.14,1.49-3.61,2.79,0,0-2.38.72-3.03,1.73,0,0-3.32,6.43-9.32,10.04,0,0-6.07,3.9-6.79,5.56,0,0-.94,1.3.94,3.61,0,0,2.74,3.32,5.27,4.91,0,0,1.16,1.01.22,1.59,0,0-1.3,1.66-7.87-2.09,0,0-1.81-1.08-4.55.94,0,0-2.31,2.53-3.61,2.17,0,0-2.74-1.3,1.59-6.93,0,0,2.17-2.89,3.97-7.15,0,0,5.42-9.53,3.47-16.04,0,0-12.86.07-13.8-5.13,0,0-.43-1.88,1.37-1.37,0,0,5.2,2.6,8.67-.65,0,0-1.59-2.17-2.02-2.82,0,0-3.9-.51-4.98-2.24,0,0-3.9-.28-4.48-3.21,0,0-.87-3.92,4.41-6.06Z"/>
      <path class="st1" d="M151.53,234.39s.14-3.39,6.36-4.19c0,0,6.14-.65,10.4.9,0,0,5.2,1.57,6.21-1.04,0,0-.14-1.04-1.23-.89,0,0,1.23,1.05-.36,1.36,0,0-2.02.6-5.27-.34,0,0-10.91-3.25-15.6,1.95,0,0-1.07,1.61-.51,2.24Z"/>
      <path class="st5" d="M158.53,239.45s2.67,3.32,3.76,7.15c0,0-1.15-.02-1.52-.04,0,0-.56-5.56-3.75-6.08,0,0,1-.45,1.51-1.03Z"/>
      <path class="st5" d="M177.75,241.54s2.46-.72,2.24,1.48c0,0,.07,1.55-2.24,3.36,0,0-3,2.96-.9,4.98,0,0,.62.9,2.02-1.17,0,0-.86,1.43-1.01,1.65,0,0-1.85.72-2.17-1.38,0,0-.36-1.77,1.08-4.44,0,0,1.7-3.39.98-4.48Z"/>
      <path class="st1" d="M151.45,225.12s5.44-2.41,10.16-1.54c0,0-4.77-3.85-10.16,1.54Z"/>
      <path class="st1" d="M162.29,238.27s2.17.05,3.76-.43c0,0-.63,1.35-.91,1.88,0,0,.92,1.93,1.35,2.36,0,0-1.26,1.3-1.88,1.59,0,0-1.37-.91-1.67-1.83,0,0,.42-1.11.81-1.97,0,0-1.2-.82-1.44-1.59Z"/>
      <path class="st1" d="M163.73,239.86s.82.05,1.4-.14c0,0-.66.75-1.4.14Z"/>
      <path class="st1" d="M166.96,218.09s1.01-1.49,3.18-1.01c0,0,2.17.34,3.03,1.88,0,0,1.16,2.12.29,3.56,0,0-1.01,1.46-3.66,1.16,0,0-3.66-.73-3.71-2.9,0,0-.1-1.41.87-2.7Z"/>
      <path class="st1" d="M167.25,219.78s.43-2.79,2.89-2.7c0,0,1.93.29,3.03,1.88,0,0,1.64,2.92-.31,4.11,0,0-2.34,1.44-4.26.26,0,0-1.7-1.29-1.35-3.55Z"/>
      <path class="st1" d="M152.89,224.58s-2.07-4.46.78-5.43c0,0,3.27-.92,2.87,4.5,0,0-2.92.33-3.64.93Z"/>
      <path class="st1" d="M153.33,224.34s-1.68-4.37,1.04-4.8c0,0,2.43-.72,2.17,4.12,0,0-2.51.36-3.21.69Z"/>
      <path class="st1" d="M151.36,218.91s1.68-2.7,3.99-1.2c0,0-2.16-3.71-3.99,1.2Z"/>
      <path class="st1" d="M164.43,215.88s2.6-2.6,6.08.24c0,0-1-2.84-4.22-2.41,0,0-1.64.24-1.85,2.17Z"/>
      <path class="st3" d="M158.76,212.28s-7.21,2.11-7.3,12.85c0,0,2.72-1,3.9-1.24,0,0-4.03-3.94,3.4-11.61Z"/>
      <path class="st5" d="M150.21,225.72s-4.24,2.07-2.87,6.3c0,0,.65,1.82,4.19,2.37,0,0,.7,1.66,4.98,2.24,0,0,2.04,2.83,2.23,3.08s-.19-.25-.19-.25c0,0-2.35,2.98-8.02.92,0,0-1.06-.78-1.83-.15,0,0-1.54,2.28,2.75,4.44,0,0,3.37,1.88,10.84,1.93,0,0,1.57,3.95-1.19,10.98,0,0-2.88,6.99-4.56,9.6,0,0-1.53,2.9-2.51,3.75,0,0-2.45,3.38-1.11,5.51,0,0,.26,1.18,2.69-.7,0,0,3.12-3.51,5.82-2.12,0,0,5.59,3.42,7.87,2.09,0,0,1.06-.66-.22-1.59,0,0-6.25-4.41-6.45-7.63,0,0-.08-1.43,3.12-3.71,0,0,3.5-2.24,5.26-3.64,0,0,5.65-4.12,7.64-8.64,0,0,.92-1.21,2.95-2.1,0,0,3.11-.89,3.84-2.48,0,0,1.64-3.29-.64-6.86,0,0-2.72-2.39-2.36-5.11,0,0,.77-16.35-9.04-21.19,0,0,6.32,3.97,7.09,18.71,0,0-.29,3.47,1.97,5.73,0,0,3.61,2.84,2.17,6.45,0,0-.77,1.63-3.56,1.13,0,0-1.11-.4-.39-1.99,0,0,.43-.56-.05-1.37,0,0-1.69-1.24-2.89.11,0,0,.89.94-.83,4.18,0,0-2.83,5.02-4.37,7.52,0,0-3.27,4.29-8.11,8.23,0,0-1.66,1.25-3.15,2.74,0,0-1.08,1.25-1.62.14,0,0-.55-.48.75-2.89,0,0,2.31-3.47,3.32-6.02,0,0,1.93-4.35,1.4-10.67,0,0-.19-1.51,1.06-2.42l-1.59,1.3s-.91-1.16-.87-1.78c0,0,.53-1.79.96-1.98,0,0-1.35-1.15-.96-1.68,0,0-.67-1.06-1.2-1.25,0,0-5.83.67-8.52-3.61,0,0-.58-1.06.27-2.17,0,0-1.14.61-1.55,1.04,0,0-3.24-.62-3.58-3.06,0,0-.55-2.49,1.06-3.44Z"/>
      <ellipse class="st1" cx="170.51" cy="220.59" rx="1.3" ry="1.5" transform="translate(-41.06 39.01) rotate(-11.66)"/>
      <ellipse class="st1" cx="154.64" cy="222" rx="1.09" ry="1.37" transform="translate(-41.68 35.84) rotate(-11.66)"/>
      <path class="st1" d="M172.59,225.12l-.48-6.03c-.1-.73-.67-.81-.67-.81-4.48-1.2-11.22.19-11.22.19-.48.14-.56.62-.56.62v2.51c-1.86-.58-4.3.39-4.3.39v-2.34c-.1-.89-.84-.75-.84-.75-.5-.05-6,1.73-6,1.73-.43.14-.39.73-.39.73v6.07l.45-.5-.06-5.1c0-.73.29-.71.29-.71.39-.29,5.19-1.5,5.19-1.5.53-.3.65.29.65.29v4.14l.71-.18v-.78c1.73-.81,4.3-.25,4.3-.25v2.46c.11.39.75.48.75.48,2.7-.34,11.85,0,11.85,0,.48,0,.34-.67.34-.67ZM171.34,225.12c-1.27-.29-10.4,0-10.4,0-.72,0-.57-.54-.57-.54v-5.08c0-.52.57-.59.57-.59,3.76-1.06,9.97-.21,9.97-.21.58.08.63.39.63.39l.48,5.49c.05.61-.67.54-.67.54Z"/>
    </g>
  </g>
</svg>