<?xml version="1.0" encoding="UTF-8"?>
<svg xmlns="http://www.w3.org/2000/svg" viewBox="0 0 1362 411">
  <defs>
    <style>
      .cls-1, .cls-2, .cls-3, .cls-4, .cls-5, .cls-6 {
        fill: #1e3a8a;
      }

      .cls-1, .cls-7 {
        opacity: .14;
      }

      .cls-3 {
        opacity: .1;
      }

      .cls-4 {
        opacity: .03;
      }

      .cls-5 {
        opacity: .05;
      }

      .cls-6 {
        opacity: .07;
      }
    </style>
  </defs>
  <g id="_レイヤー_1" data-name="レイヤー 1">
    <circle class="cls-2" cx="681" cy="257" r="7"/>
    <circle class="cls-2" cx="653" cy="242" r="6"/>
    <circle class="cls-2" cx="709" cy="242" r="6"/>
    <circle class="cls-2" cx="636" cy="227" r="5"/>
    <circle class="cls-2" cx="681" cy="225" r="5"/>
    <circle class="cls-2" cx="726" cy="227" r="5"/>
    <circle class="cls-2" cx="661" cy="209" r="5"/>
    <circle class="cls-2" cx="701" cy="209" r="5"/>
    <circle class="cls-2" cx="639" cy="272" r="5"/>
    <circle class="cls-2" cx="723" cy="272" r="5"/>
    <circle class="cls-2" cx="613" cy="255" r="5"/>
    <circle class="cls-2" cx="749" cy="255" r="5"/>
    <circle class="cls-2" cx="681" cy="287" r="6"/>
    <circle class="cls-2" cx="649" cy="292" r="5"/>
    <circle class="cls-2" cx="713" cy="292" r="5"/>
    <circle class="cls-2" cx="599" cy="215" r="5"/>
    <circle class="cls-2" cx="579" cy="199" r="5"/>
    <circle class="cls-2" cx="559" cy="185" r="4"/>
    <circle class="cls-2" cx="586" cy="182" r="4"/>
    <circle class="cls-2" cx="563" cy="165" r="4"/>
    <circle class="cls-2" cx="539" cy="177" r="5"/>
    <circle class="cls-2" cx="523" cy="195" r="4"/>
    <circle class="cls-2" cx="546" cy="207" r="4"/>
    <circle class="cls-2" cx="506" cy="182" r="5"/>
    <circle class="cls-2" cx="529" cy="162" r="4"/>
    <circle class="cls-2" cx="503" cy="145" r="4"/>
    <circle class="cls-2" cx="479" cy="162" r="5"/>
    <circle class="cls-2" cx="493" cy="202" r="4"/>
    <circle class="cls-2" cx="469" cy="185" r="4"/>
    <circle class="cls-2" cx="589" cy="235" r="4"/>
    <circle class="cls-2" cx="566" cy="249" r="5"/>
    <circle class="cls-2" cx="539" cy="242" r="4"/>
    <circle class="cls-2" cx="513" cy="255" r="4"/>
    <circle class="cls-2" cx="486" cy="245" r="4"/>
    <circle class="cls-2" cx="459" cy="259" r="5"/>
    <circle class="cls-2" cx="433" cy="249" r="4"/>
    <circle class="cls-2" cx="601" cy="195" r="3"/>
    <circle class="cls-2" cx="576" cy="169" r="4"/>
    <circle class="cls-2" cx="549" cy="152" r="3"/>
    <circle class="cls-2" cx="443" cy="205" r="4"/>
    <circle class="cls-2" cx="419" cy="189" r="4"/>
    <circle class="cls-2" cx="396" cy="205" r="4"/>
    <circle class="cls-2" cx="429" cy="172" r="3"/>
    <circle class="cls-2" cx="403" cy="157" r="4"/>
    <circle class="cls-2" cx="379" cy="172" r="3"/>
    <circle class="cls-2" cx="356" cy="189" r="4"/>
    <circle class="cls-2" cx="336" cy="205" r="3"/>
    <circle class="cls-2" cx="373" cy="209" r="4"/>
    <circle class="cls-2" cx="346" cy="222" r="3"/>
    <circle class="cls-2" cx="319" cy="207" r="4"/>
    <circle class="cls-2" cx="293" cy="219" r="3"/>
    <circle class="cls-2" cx="409" cy="227" r="3"/>
    <circle class="cls-2" cx="383" cy="242" r="4"/>
    <circle class="cls-2" cx="356" cy="235" r="3"/>
    <circle class="cls-2" cx="329" cy="249" r="4"/>
    <circle class="cls-2" cx="301" cy="239" r="3"/>
    <circle class="cls-2" cx="276" cy="255" r="3"/>
    <circle class="cls-2" cx="426" cy="152" r="3"/>
    <circle class="cls-2" cx="399" cy="135" r="3"/>
    <circle class="cls-2" cx="373" cy="145" r="3"/>
    <circle class="cls-2" cx="346" cy="157" r="4"/>
    <circle class="cls-2" cx="319" cy="145" r="3"/>
    <circle class="cls-2" cx="293" cy="157" r="3"/>
    <circle class="cls-2" cx="266" cy="172" r="4"/>
    <circle class="cls-2" cx="241" cy="187" r="3"/>
    <circle class="cls-2" cx="249" cy="205" r="3"/>
    <circle class="cls-2" cx="223" cy="219" r="3"/>
    <circle class="cls-2" cx="266" cy="235" r="3"/>
    <circle class="cls-2" cx="239" cy="249" r="3"/>
    <circle class="cls-2" cx="219" cy="189" r="3"/>
    <circle class="cls-2" cx="196" cy="202" r="2.5"/>
    <circle class="cls-2" cx="173" cy="189" r="3"/>
    <circle class="cls-2" cx="203" cy="175" r="2.5"/>
    <circle class="cls-2" cx="179" cy="162" r="2.5"/>
    <circle class="cls-2" cx="156" cy="175" r="3"/>
    <circle class="cls-2" cx="133" cy="189" r="2.5"/>
    <circle class="cls-2" cx="216" cy="159" r="2.5"/>
    <circle class="cls-2" cx="191" cy="145" r="2.5"/>
    <circle class="cls-2" cx="166" cy="155" r="2.5"/>
    <circle class="cls-2" cx="143" cy="167" r="2.5"/>
    <circle class="cls-2" cx="119" cy="182" r="2.5"/>
    <circle class="cls-2" cx="249" cy="145" r="2.5"/>
    <circle class="cls-2" cx="223" cy="132" r="2.5"/>
    <circle class="cls-2" cx="199" cy="142" r="2.5"/>
    <circle class="cls-2" cx="176" cy="129" r="2.5"/>
    <circle class="cls-2" cx="151" cy="142" r="2.5"/>
    <circle class="cls-2" cx="129" cy="155" r="2.5"/>
    <circle class="cls-2" cx="106" cy="169" r="2.5"/>
    <circle class="cls-2" cx="213" cy="265" r="2.5"/>
    <circle class="cls-2" cx="189" cy="277" r="2.5"/>
    <circle class="cls-2" cx="166" cy="269" r="2.5"/>
    <circle class="cls-2" cx="143" cy="285" r="2.5"/>
    <circle class="cls-2" cx="119" cy="275" r="2.5"/>
    <circle class="cls-2" cx="96" cy="289" r="2.5"/>
    <circle class="cls-2" cx="241" cy="255" r="2.5"/>
    <circle class="cls-2" cx="109" cy="202" r="2.5"/>
    <circle class="cls-2" cx="86" cy="185" r="2.5"/>
    <circle class="cls-2" cx="96" cy="217" r="2.5"/>
    <circle class="cls-2" cx="73" cy="199" r="2"/>
    <circle class="cls-2" cx="536" cy="135" r="3"/>
    <circle class="cls-2" cx="513" cy="119" r="3"/>
    <circle class="cls-2" cx="489" cy="107" r="3"/>
    <circle class="cls-2" cx="466" cy="119" r="2.5"/>
    <circle class="cls-2" cx="443" cy="107" r="2.5"/>
    <circle class="cls-2" cx="419" cy="119" r="3"/>
    <circle class="cls-2" cx="396" cy="105" r="2.5"/>
    <circle class="cls-2" cx="371" cy="115" r="2.5"/>
    <circle class="cls-2" cx="346" cy="102" r="2.5"/>
    <circle class="cls-2" cx="323" cy="115" r="2.5"/>
    <circle class="cls-2" cx="299" cy="105" r="2.5"/>
    <circle class="cls-2" cx="273" cy="117" r="2.5"/>
    <circle class="cls-2" cx="249" cy="105" r="2.5"/>
    <circle class="cls-2" cx="556" cy="115" r="2.5"/>
    <circle class="cls-2" cx="529" cy="99" r="2.5"/>
    <circle class="cls-2" cx="503" cy="89" r="2"/>
    <circle class="cls-2" cx="476" cy="79" r="2.5"/>
    <circle class="cls-2" cx="449" cy="89" r="2"/>
    <circle class="cls-2" cx="423" cy="77" r="2"/>
    <circle class="cls-2" cx="396" cy="87" r="2"/>
    <circle class="cls-2" cx="369" cy="77" r="2"/>
    <circle class="cls-2" cx="343" cy="89" r="2"/>
    <circle class="cls-2" cx="316" cy="79" r="2"/>
    <circle class="cls-2" cx="289" cy="92" r="2"/>
    <circle class="cls-2" cx="263" cy="82" r="2"/>
    <circle class="cls-2" cx="236" cy="95" r="2"/>
    <circle class="cls-2" cx="209" cy="105" r="2"/>
    <circle class="cls-2" cx="183" cy="115" r="2"/>
    <circle class="cls-2" cx="159" cy="105" r="2"/>
    <circle class="cls-2" cx="136" cy="117" r="2"/>
    <circle class="cls-2" cx="541" cy="305" r="3"/>
    <circle class="cls-2" cx="516" cy="319" r="3"/>
    <circle class="cls-2" cx="489" cy="309" r="2.5"/>
    <circle class="cls-2" cx="463" cy="325" r="3"/>
    <circle class="cls-2" cx="436" cy="315" r="2.5"/>
    <circle class="cls-2" cx="409" cy="329" r="3"/>
    <circle class="cls-2" cx="381" cy="317" r="2.5"/>
    <circle class="cls-2" cx="353" cy="332" r="2.5"/>
    <circle class="cls-2" cx="326" cy="319" r="2.5"/>
    <circle class="cls-2" cx="299" cy="335" r="2.5"/>
    <circle class="cls-2" cx="271" cy="322" r="2.5"/>
    <circle class="cls-2" cx="243" cy="337" r="2.5"/>
    <circle class="cls-2" cx="216" cy="325" r="2.5"/>
    <circle class="cls-2" cx="189" cy="339" r="2"/>
    <circle class="cls-2" cx="161" cy="327" r="2"/>
    <circle class="cls-2" cx="136" cy="342" r="2"/>
    <circle class="cls-2" cx="109" cy="329" r="2"/>
    <circle class="cls-2" cx="83" cy="345" r="2"/>
    <circle class="cls-2" cx="99" cy="135" r="2"/>
    <circle class="cls-2" cx="76" cy="149" r="2"/>
    <circle class="cls-2" cx="53" cy="135" r="1.5"/>
    <circle class="cls-2" cx="86" cy="122" r="1.5"/>
    <circle class="cls-2" cx="63" cy="109" r="1.5"/>
    <circle class="cls-2" cx="39" cy="122" r="1.5"/>
    <circle class="cls-2" cx="123" cy="115" r="2"/>
    <circle class="cls-2" cx="99" cy="102" r="1.5"/>
    <circle class="cls-2" cx="76" cy="89" r="1.5"/>
    <circle class="cls-2" cx="53" cy="102" r="1.5"/>
    <circle class="cls-2" cx="29" cy="115" r="1"/>
    <circle class="cls-2" cx="49" cy="165" r="1.5"/>
    <circle class="cls-2" cx="26" cy="152" r="1.5"/>
    <circle class="cls-2" cx="36" cy="179" r="1"/>
    <circle class="cls-2" cx="59" cy="235" r="1.5"/>
    <circle class="cls-2" cx="36" cy="249" r="1.5"/>
    <circle class="cls-2" cx="19" cy="235" r="1"/>
    <circle class="cls-2" cx="53" cy="262" r="1.5"/>
    <circle class="cls-2" cx="29" cy="275" r="1.5"/>
    <circle class="cls-2" cx="6" cy="262" r="1"/>
    <circle class="cls-2" cx="69" cy="299" r="1.5"/>
    <circle class="cls-2" cx="46" cy="315" r="1.5"/>
    <circle class="cls-2" cx="23" cy="299" r="1"/>
    <circle class="cls-2" cx="1" cy="315" r="1"/>
    <circle class="cls-2" cx="763" cy="215" r="5"/>
    <circle class="cls-2" cx="783" cy="199" r="5"/>
    <circle class="cls-2" cx="803" cy="185" r="4"/>
    <circle class="cls-2" cx="776" cy="182" r="4"/>
    <circle class="cls-2" cx="799" cy="165" r="4"/>
    <circle class="cls-2" cx="823" cy="177" r="5"/>
    <circle class="cls-2" cx="839" cy="195" r="4"/>
    <circle class="cls-2" cx="816" cy="207" r="4"/>
    <circle class="cls-2" cx="856" cy="182" r="5"/>
    <circle class="cls-2" cx="833" cy="162" r="4"/>
    <circle class="cls-2" cx="859" cy="145" r="4"/>
    <circle class="cls-2" cx="883" cy="162" r="5"/>
    <circle class="cls-2" cx="869" cy="202" r="4"/>
    <circle class="cls-2" cx="893" cy="185" r="4"/>
    <circle class="cls-2" cx="773" cy="235" r="4"/>
    <circle class="cls-2" cx="796" cy="249" r="5"/>
    <circle class="cls-2" cx="823" cy="242" r="4"/>
    <circle class="cls-2" cx="849" cy="255" r="4"/>
    <circle class="cls-2" cx="876" cy="245" r="4"/>
    <circle class="cls-2" cx="903" cy="259" r="5"/>
    <circle class="cls-2" cx="929" cy="249" r="4"/>
    <circle class="cls-2" cx="761" cy="195" r="3"/>
    <circle class="cls-2" cx="786" cy="169" r="4"/>
    <circle class="cls-2" cx="813" cy="152" r="3"/>
    <circle class="cls-2" cx="919" cy="205" r="4"/>
    <circle class="cls-2" cx="943" cy="189" r="4"/>
    <circle class="cls-2" cx="966" cy="205" r="4"/>
    <circle class="cls-2" cx="933" cy="172" r="3"/>
    <circle class="cls-2" cx="959" cy="157" r="4"/>
    <circle class="cls-2" cx="983" cy="172" r="3"/>
    <circle class="cls-2" cx="1006" cy="189" r="4"/>
    <circle class="cls-2" cx="1026" cy="205" r="3"/>
    <circle class="cls-2" cx="989" cy="209" r="4"/>
    <circle class="cls-2" cx="1016" cy="222" r="3"/>
    <circle class="cls-2" cx="1043" cy="207" r="4"/>
    <circle class="cls-2" cx="1069" cy="219" r="3"/>
    <circle class="cls-2" cx="953" cy="227" r="3"/>
    <circle class="cls-2" cx="979" cy="242" r="4"/>
    <circle class="cls-2" cx="1006" cy="235" r="3"/>
    <circle class="cls-2" cx="1033" cy="249" r="4"/>
    <circle class="cls-2" cx="1061" cy="239" r="3"/>
    <circle class="cls-2" cx="1086" cy="255" r="3"/>
    <circle class="cls-2" cx="936" cy="152" r="3"/>
    <circle class="cls-2" cx="963" cy="135" r="3"/>
    <circle class="cls-2" cx="989" cy="145" r="3"/>
    <circle class="cls-2" cx="1016" cy="157" r="4"/>
    <circle class="cls-2" cx="1043" cy="145" r="3"/>
    <circle class="cls-2" cx="1069" cy="157" r="3"/>
    <circle class="cls-2" cx="1096" cy="172" r="4"/>
    <circle class="cls-2" cx="1121" cy="187" r="3"/>
    <circle class="cls-2" cx="1113" cy="205" r="3"/>
    <circle class="cls-2" cx="1139" cy="219" r="3"/>
    <circle class="cls-2" cx="1096" cy="235" r="3"/>
    <circle class="cls-2" cx="1123" cy="249" r="3"/>
    <circle class="cls-2" cx="1143" cy="189" r="3"/>
    <circle class="cls-2" cx="1166" cy="202" r="2.5"/>
    <circle class="cls-2" cx="1189" cy="189" r="3"/>
    <circle class="cls-2" cx="1159" cy="175" r="2.5"/>
    <circle class="cls-2" cx="1183" cy="162" r="2.5"/>
    <circle class="cls-2" cx="1206" cy="175" r="3"/>
    <circle class="cls-2" cx="1229" cy="189" r="2.5"/>
    <circle class="cls-2" cx="1146" cy="159" r="2.5"/>
    <circle class="cls-2" cx="1171" cy="145" r="2.5"/>
    <circle class="cls-2" cx="1196" cy="155" r="2.5"/>
    <circle class="cls-2" cx="1219" cy="167" r="2.5"/>
    <circle class="cls-2" cx="1243" cy="182" r="2.5"/>
    <circle class="cls-2" cx="1113" cy="145" r="2.5"/>
    <circle class="cls-2" cx="1139" cy="132" r="2.5"/>
    <circle class="cls-2" cx="1163" cy="142" r="2.5"/>
    <circle class="cls-2" cx="1186" cy="129" r="2.5"/>
    <circle class="cls-2" cx="1211" cy="142" r="2.5"/>
    <circle class="cls-2" cx="1233" cy="155" r="2.5"/>
    <circle class="cls-2" cx="1256" cy="169" r="2.5"/>
    <circle class="cls-2" cx="1149" cy="265" r="2.5"/>
    <circle class="cls-2" cx="1173" cy="277" r="2.5"/>
    <circle class="cls-2" cx="1196" cy="269" r="2.5"/>
    <circle class="cls-2" cx="1219" cy="285" r="2.5"/>
    <circle class="cls-2" cx="1243" cy="275" r="2.5"/>
    <circle class="cls-2" cx="1266" cy="289" r="2.5"/>
    <circle class="cls-2" cx="1121" cy="255" r="2.5"/>
    <circle class="cls-2" cx="1253" cy="202" r="2.5"/>
    <circle class="cls-2" cx="1276" cy="185" r="2.5"/>
    <circle class="cls-2" cx="1266" cy="217" r="2.5"/>
    <circle class="cls-2" cx="1289" cy="199" r="2"/>
    <circle class="cls-2" cx="826" cy="135" r="3"/>
    <circle class="cls-2" cx="849" cy="119" r="3"/>
    <circle class="cls-2" cx="873" cy="107" r="3"/>
    <circle class="cls-2" cx="896" cy="119" r="2.5"/>
    <circle class="cls-2" cx="919" cy="107" r="2.5"/>
    <circle class="cls-2" cx="943" cy="119" r="3"/>
    <circle class="cls-2" cx="966" cy="105" r="2.5"/>
    <circle class="cls-2" cx="991" cy="115" r="2.5"/>
    <circle class="cls-2" cx="1016" cy="102" r="2.5"/>
    <circle class="cls-2" cx="1039" cy="115" r="2.5"/>
    <circle class="cls-2" cx="1063" cy="105" r="2.5"/>
    <circle class="cls-2" cx="1089" cy="117" r="2.5"/>
    <circle class="cls-2" cx="1113" cy="105" r="2.5"/>
    <circle class="cls-2" cx="806" cy="115" r="2.5"/>
    <circle class="cls-2" cx="833" cy="99" r="2.5"/>
    <circle class="cls-2" cx="859" cy="89" r="2"/>
    <circle class="cls-2" cx="886" cy="79" r="2.5"/>
    <circle class="cls-2" cx="913" cy="89" r="2"/>
    <circle class="cls-2" cx="939" cy="77" r="2"/>
    <circle class="cls-2" cx="966" cy="87" r="2"/>
    <circle class="cls-2" cx="993" cy="77" r="2"/>
    <circle class="cls-2" cx="1019" cy="89" r="2"/>
    <circle class="cls-2" cx="1046" cy="79" r="2"/>
    <circle class="cls-2" cx="1073" cy="92" r="2"/>
    <circle class="cls-2" cx="1099" cy="82" r="2"/>
    <circle class="cls-2" cx="1126" cy="95" r="2"/>
    <circle class="cls-2" cx="1153" cy="105" r="2"/>
    <circle class="cls-2" cx="1179" cy="115" r="2"/>
    <circle class="cls-2" cx="1203" cy="105" r="2"/>
    <circle class="cls-2" cx="1226" cy="117" r="2"/>
    <circle class="cls-2" cx="821" cy="305" r="3"/>
    <circle class="cls-2" cx="846" cy="319" r="3"/>
    <circle class="cls-2" cx="873" cy="309" r="2.5"/>
    <circle class="cls-2" cx="899" cy="325" r="3"/>
    <circle class="cls-2" cx="926" cy="315" r="2.5"/>
    <circle class="cls-2" cx="953" cy="329" r="3"/>
    <circle class="cls-2" cx="981" cy="317" r="2.5"/>
    <circle class="cls-2" cx="1009" cy="332" r="2.5"/>
    <circle class="cls-2" cx="1036" cy="319" r="2.5"/>
    <circle class="cls-2" cx="1063" cy="335" r="2.5"/>
    <circle class="cls-2" cx="1091" cy="322" r="2.5"/>
    <circle class="cls-2" cx="1119" cy="337" r="2.5"/>
    <circle class="cls-2" cx="1146" cy="325" r="2.5"/>
    <circle class="cls-2" cx="1173" cy="339" r="2"/>
    <circle class="cls-2" cx="1201" cy="327" r="2"/>
    <circle class="cls-2" cx="1226" cy="342" r="2"/>
    <circle class="cls-2" cx="1253" cy="329" r="2"/>
    <circle class="cls-2" cx="1279" cy="345" r="2"/>
    <circle class="cls-2" cx="1263" cy="135" r="2"/>
    <circle class="cls-2" cx="1286" cy="149" r="2"/>
    <circle class="cls-2" cx="1309" cy="135" r="1.5"/>
    <circle class="cls-2" cx="1276" cy="122" r="1.5"/>
    <circle class="cls-2" cx="1299" cy="109" r="1.5"/>
    <circle class="cls-2" cx="1323" cy="122" r="1.5"/>
    <circle class="cls-2" cx="1239" cy="115" r="2"/>
    <circle class="cls-2" cx="1263" cy="102" r="1.5"/>
    <circle class="cls-2" cx="1286" cy="89" r="1.5"/>
    <circle class="cls-2" cx="1309" cy="102" r="1.5"/>
    <circle class="cls-2" cx="1333" cy="115" r="1"/>
    <circle class="cls-2" cx="1313" cy="165" r="1.5"/>
    <circle class="cls-2" cx="1336" cy="152" r="1.5"/>
    <circle class="cls-2" cx="1326" cy="179" r="1"/>
    <circle class="cls-2" cx="1303" cy="235" r="1.5"/>
    <circle class="cls-2" cx="1326" cy="249" r="1.5"/>
    <circle class="cls-2" cx="1343" cy="235" r="1"/>
    <circle class="cls-2" cx="1309" cy="262" r="1.5"/>
    <circle class="cls-2" cx="1333" cy="275" r="1.5"/>
    <circle class="cls-2" cx="1356" cy="262" r="1"/>
    <circle class="cls-2" cx="1293" cy="299" r="1.5"/>
    <circle class="cls-2" cx="1316" cy="315" r="1.5"/>
    <circle class="cls-2" cx="1339" cy="299" r="1"/>
    <circle class="cls-2" cx="1361" cy="315" r="1"/>
    <circle class="cls-2" cx="481" cy="65" r="2"/>
    <circle class="cls-2" cx="509" cy="52" r="1.5"/>
    <circle class="cls-2" cx="536" cy="42" r="2"/>
    <circle class="cls-2" cx="563" cy="32" r="1.5"/>
    <circle class="cls-2" cx="591" cy="25" r="1.5"/>
    <circle class="cls-2" cx="619" cy="15" r="1.5"/>
    <circle class="cls-2" cx="646" cy="9" r="1.5"/>
    <circle class="cls-2" cx="681" cy="2" r="2"/>
    <circle class="cls-2" cx="716" cy="9" r="1.5"/>
    <circle class="cls-2" cx="743" cy="15" r="1.5"/>
    <circle class="cls-2" cx="771" cy="25" r="1.5"/>
    <circle class="cls-2" cx="799" cy="32" r="1.5"/>
    <circle class="cls-2" cx="826" cy="42" r="2"/>
    <circle class="cls-2" cx="853" cy="52" r="1.5"/>
    <circle class="cls-2" cx="881" cy="65" r="2"/>
    <circle class="cls-2" cx="453" cy="52" r="1.5"/>
    <circle class="cls-2" cx="426" cy="42" r="1.5"/>
    <circle class="cls-2" cx="399" cy="55" r="1.5"/>
    <circle class="cls-2" cx="909" cy="52" r="1.5"/>
    <circle class="cls-2" cx="936" cy="42" r="1.5"/>
    <circle class="cls-2" cx="963" cy="55" r="1.5"/>
    <circle class="cls-2" cx="373" cy="65" r="1.5"/>
    <circle class="cls-2" cx="346" cy="52" r="1.5"/>
    <circle class="cls-2" cx="319" cy="65" r="1.5"/>
    <circle class="cls-2" cx="989" cy="65" r="1.5"/>
    <circle class="cls-2" cx="1016" cy="52" r="1.5"/>
    <circle class="cls-2" cx="1043" cy="65" r="1.5"/>
    <circle class="cls-2" cx="293" cy="79" r="1.5"/>
    <circle class="cls-2" cx="266" cy="65" r="1.5"/>
    <circle class="cls-2" cx="239" cy="79" r="1.5"/>
    <circle class="cls-2" cx="1069" cy="79" r="1.5"/>
    <circle class="cls-2" cx="1096" cy="65" r="1.5"/>
    <circle class="cls-2" cx="1123" cy="79" r="1.5"/>
    <circle class="cls-2" cx="449" cy="382" r="2"/>
    <circle class="cls-2" cx="479" cy="395" r="1.5"/>
    <circle class="cls-2" cx="509" cy="382" r="2"/>
    <circle class="cls-2" cx="539" cy="399" r="1.5"/>
    <circle class="cls-2" cx="571" cy="387" r="1.5"/>
    <circle class="cls-2" cx="603" cy="405" r="1.5"/>
    <circle class="cls-2" cx="636" cy="392" r="1.5"/>
    <circle class="cls-2" cx="681" cy="409" r="2"/>
    <circle class="cls-2" cx="726" cy="392" r="1.5"/>
    <circle class="cls-2" cx="759" cy="405" r="1.5"/>
    <circle class="cls-2" cx="791" cy="387" r="1.5"/>
    <circle class="cls-2" cx="823" cy="399" r="1.5"/>
    <circle class="cls-2" cx="853" cy="382" r="2"/>
    <circle class="cls-2" cx="883" cy="395" r="1.5"/>
    <circle class="cls-2" cx="913" cy="382" r="2"/>
    <circle class="cls-2" cx="419" cy="369" r="1.5"/>
    <circle class="cls-2" cx="389" cy="382" r="1.5"/>
    <circle class="cls-2" cx="359" cy="369" r="1.5"/>
    <circle class="cls-2" cx="943" cy="369" r="1.5"/>
    <circle class="cls-2" cx="973" cy="382" r="1.5"/>
    <circle class="cls-2" cx="1003" cy="369" r="1.5"/>
  </g>
  <g id="_レイヤー_2" data-name="レイヤー 2">
    <g>
      <path class="cls-2" d="M838.37,90.47h-17.31l-.77,4.33h17.18l-2.51,13.17h-16.95l-.81,4.64h17.18l-2.32,14.81h-56.9l2.23-14.81h18.1l.81-4.64h-17.72l2.39-13.17h17.65l.75-4.33h-14l1.44-9.68c-2.73,6.33-5.96,11.23-9.37,14.84l-5.69,32.67h-19.3l3.7-21.5c-2.68.4-4.85.49-6.16.65l3.3-17.68c6.44-3.01,13.75-15.23,15.6-19.84h21.56c-.48,2.01-1.06,3.83-1.67,5.64h13.21l1.06-6.1h21.69l-1.06,6.1h16.97l-2.28,14.9h0ZM874.21,110.46c36.63-5.16,44.56-24.53,45.23-34.96h-26l1.31-5.93h-23.48l-1.29,5.93h-24.87l-2.62,14.95h46.57c-3.41,4.92-17.09,7.99-24.2,9.16l-1.65-2.03h-11.22c-2.57,4.96-6.88,10.09-12.59,12.69l-3.11,17.77c5.64,1.43,14.47-6.36,19.35-11.22,3.99,7.45,9.7,10.48,15.35,10.48h39.39l2.82-15.58h-28.01c-7.15,0-9.43.27-10.99-1.27h0ZM998.4,86.24l2.93-15h-51.62l-2.91,15h15.08l-4.13,24.74h-14.56l-2.93,15.78h51.21l2.89-15.78h-14.92l4.13-24.74h14.83ZM947.3,71.43h-22.91l-3.07,14.61h23.7l2.28-14.61h0ZM944.64,88.59h-23.61l-2.46,13.1h23.79l2.28-13.1h0ZM917.46,109.55l-2.98,18.28c11.94.76,16.52-1.8,24.78-7.13l2.39-16.23c-2.39,1.08-14.58,4.08-24.19,5.08h0ZM360.67,128.31h20.32c16.32,0,21.33-9.35,22.86-16.27,2.5-11.99-3.54-13.91-7.77-14.57l.04-.17c5.84-1.06,10.52-6.37,11.99-13.15,2.06-9.77-3.57-14.48-13.57-14.48h-21.44l-12.42,58.63ZM379.97,102.3h4.43c4.24,0,6.7,2.4,5.46,8.2-.84,4.06-3.5,7.65-9.05,7.65h-4.22l3.38-15.86ZM384.7,79.83h3.86c5.01,0,5.98,3.34,5.31,6.36-.84,4.2-3.43,6.9-8.17,6.9h-3.75l2.75-13.26ZM451.45,99c3.43-16.25,5.37-30.43-14.15-30.43-18.13,0-23.13,11.78-27.11,30.43-3.97,18.62-4,30.44,14.13,30.44,19.57,0,23.66-14.21,27.13-30.44ZM424.5,99c3.41-16.06,5.35-21.27,10.74-21.27s5.31,5.2,1.9,21.27c-3.39,16.07-5.35,21.25-10.93,21.25s-5.14-5.18-1.71-21.25ZM447.07,128.31h14.29l4.43-11.18h14.02l-.27,11.18h14.33l-2.14-58.63h-17.27l-27.4,58.63ZM480.05,106.43h-10.02l10.4-26.08h.14l-.52,26.08ZM504.36,128.31h13.79l10.06-47.44h12.33l2.39-11.19h-38.42l-2.39,11.19h12.32l-10.07,47.44ZM548.42,128.31h13.81l5.12-24.23h5.24c4.38,0,5.3,2.1,3.14,12.29-1.42,6.65-1.71,9.94-1.06,11.94h14.87l.18-.74c-1.81-.83-1.96-2.01.25-13.58,1.53-7.9,2.15-13.33-6.36-14.59l.05-.19c6.7-1.57,11.06-5.71,12.89-14.24,1.69-8.08-.79-15.29-12.53-15.29h-23.16l-12.44,58.63ZM572.59,79.38h4.2c5.53,0,6.54,2.94,5.6,7.39-.77,3.47-3.07,7.65-8.69,7.65h-4.27l3.16-15.04ZM591.46,128.31h14.27l4.4-11.18h14.04l-.23,11.18h14.31l-2.19-58.63h-17.24l-27.36,58.63ZM624.41,106.43h-10.02l10.38-26.08h.18l-.54,26.08ZM686.15,90.08l.54-2.5c2.93-13.76-2.6-19.01-14.76-19.01-19.5,0-23.54,15.03-26.73,29.99-3.75,17.64-5.14,30.88,12.5,30.88s22.59-9.44,25.28-22.11l.43-2.02h-13.27c-2.03,9.09-3.84,14.94-8.92,14.94-5.73,0-5.35-4.56-1.67-21.95,3.25-15.29,4.85-20.57,10.4-20.57,4.56,0,4.74,3.81,2.95,12.35h13.27ZM684.27,128.31h34.81l2.37-11.18h-21.02l2.85-13.38h18.89l2.35-11.13h-18.85l2.5-11.75h20.07l2.39-11.19h-33.92l-12.44,58.63Z"/>
      <g>
        <g>
          <path class="cls-2" d="M838.37,90.47l2.28-14.9h-16.97l1.06-6.1h-21.69l-1.06,6.1h-13.21c.61-1.81,1.18-3.63,1.67-5.64h-21.56c-1.85,4.61-9.16,16.83-15.6,19.84l-3.3,17.68c1.31-.15,3.48-.24,6.16-.65l-3.7,21.5h19.3l5.69-32.67c3.41-3.62,6.64-8.52,9.37-14.84l-1.44,9.68h14l-.75,4.33h-17.65l-2.39,13.17h17.72l-.81,4.64h-18.1l-2.23,14.81h56.9l2.32-14.81h-17.18l.81-4.64h16.95l2.51-13.17h-17.18l.77-4.33h17.31Z"/>
          <path class="cls-2" d="M874.21,110.46c36.63-5.16,44.56-24.53,45.23-34.96h-26l1.31-5.93h-23.48l-1.29,5.93h-24.87l-2.62,14.95h46.57c-3.41,4.92-17.09,7.99-24.2,9.16l-1.65-2.03h-11.22c-2.57,4.96-6.88,10.09-12.59,12.69l-3.11,17.77c5.64,1.43,14.47-6.36,19.35-11.22,3.99,7.45,9.7,10.48,15.35,10.48h39.39l2.82-15.58h-28.01c-7.15,0-9.43.27-10.99-1.27h0Z"/>
          <polygon class="cls-2" points="998.4 86.24 1001.33 71.25 949.71 71.25 946.8 86.24 961.88 86.24 957.75 110.98 943.19 110.98 940.26 126.76 991.47 126.76 994.36 110.98 979.44 110.98 983.57 86.24 998.4 86.24 998.4 86.24"/>
          <polygon class="cls-2" points="947.3 71.43 924.39 71.43 921.32 86.04 945.02 86.04 947.3 71.43 947.3 71.43"/>
          <polygon class="cls-2" points="944.64 88.59 921.03 88.59 918.57 101.69 942.36 101.69 944.64 88.59 944.64 88.59"/>
          <path class="cls-2" d="M917.46,109.55l-2.98,18.28c11.94.76,16.52-1.8,24.78-7.13l2.39-16.23c-2.39,1.08-14.58,4.08-24.19,5.08h0Z"/>
        </g>
        <g>
          <path class="cls-2" d="M373.1,69.69h21.44c10,0,15.64,4.7,13.57,14.48-1.47,6.78-6.16,12.09-11.99,13.15l-.04.17c4.24.66,10.27,2.58,7.77,14.57-1.53,6.92-6.54,16.27-22.86,16.27h-20.32l12.42-58.63ZM376.6,118.16h4.22c5.55,0,8.21-3.6,9.05-7.65,1.24-5.81-1.22-8.2-5.46-8.2h-4.43l-3.38,15.86ZM381.95,93.09h3.75c4.74,0,7.33-2.7,8.17-6.9.66-3.02-.31-6.36-5.31-6.36h-3.86l-2.75,13.26Z"/>
          <path class="cls-2" d="M424.32,129.44c-18.13,0-18.1-11.82-14.13-30.44,3.99-18.65,8.98-30.43,27.11-30.43,19.52,0,17.58,14.18,14.15,30.43-3.47,16.23-7.56,30.44-27.13,30.44ZM426.21,120.25c5.58,0,7.54-5.18,10.93-21.25,3.41-16.06,3.7-21.27-1.9-21.27s-7.33,5.2-10.74,21.27c-3.43,16.07-3.73,21.25,1.71,21.25Z"/>
          <path class="cls-2" d="M474.47,69.69h17.27l2.14,58.63h-14.33l.27-11.18h-14.02l-4.43,11.18h-14.29l27.4-58.63ZM480.57,80.35h-.14l-10.4,26.08h10.02l.52-26.08Z"/>
          <path class="cls-2" d="M514.44,80.88h-12.32l2.39-11.19h38.42l-2.39,11.19h-12.33l-10.06,47.44h-13.79l10.07-47.44Z"/>
          <path class="cls-2" d="M560.87,69.69h23.16c11.74,0,14.22,7.21,12.53,15.29-1.83,8.53-6.19,12.67-12.89,14.24l-.05.19c8.51,1.27,7.88,6.69,6.36,14.59-2.21,11.57-2.06,12.75-.25,13.58l-.18.74h-14.87c-.65-2-.36-5.29,1.06-11.94,2.15-10.19,1.24-12.29-3.14-12.29h-5.24l-5.12,24.23h-13.81l12.44-58.63ZM569.43,94.42h4.27c5.62,0,7.92-4.18,8.69-7.65.93-4.44-.07-7.39-5.6-7.39h-4.2l-3.16,15.04Z"/>
          <path class="cls-2" d="M618.82,69.69h17.24l2.19,58.63h-14.31l.23-11.18h-14.04l-4.4,11.18h-14.27l27.36-58.63ZM624.95,80.35h-.18l-10.38,26.08h10.02l.54-26.08Z"/>
          <path class="cls-2" d="M672.88,90.08c1.8-8.53,1.62-12.35-2.95-12.35-5.55,0-7.15,5.28-10.4,20.57-3.68,17.39-4.06,21.95,1.67,21.95,5.08,0,6.89-5.85,8.92-14.94h13.27l-.43,2.02c-2.69,12.67-8.22,22.11-25.28,22.11s-16.25-13.24-12.5-30.88c3.2-14.96,7.24-29.99,26.73-29.99,12.16,0,17.69,5.25,14.76,19.01l-.54,2.5h-13.27Z"/>
          <path class="cls-2" d="M696.71,69.69h33.92l-2.39,11.19h-20.07l-2.5,11.75h18.85l-2.35,11.13h-18.89l-2.85,13.38h21.02l-2.37,11.18h-34.81l12.44-58.63Z"/>
        </g>
      </g>
    </g>
    <g>
      <path class="cls-2" d="M1094.79,35.92s7.43,2.45,8.3,7.47c0,0,.08,1.05-.99,1.4,0,0-1.49.1-3.53-1,0,0-8.33-2.85-14.47-.38,0,0,8.64-7.16,10.69-7.49Z"/>
      <path class="cls-2" d="M1061.85,30.38s-1.26-20.46,15.78-26.65c0,0,18.09-8.05,24.1,8.59,0,0,6.23-.63,9.6,6.62,0,0,1.59,3.25-3.25,5.94l-7.98,1.5,3.33,3.09s1.14,1.76-.8,4.01c0,0-2.8,2.72-7.31,2.76,0,0-12.05,5.16-13.87,16.25,0,0-.73,10.83,6.67,17.54,0,0,3.68,3.1,11.22,1.61,0,0,1.82-.53.45,1.84,0,0-3.39,4.29-8.17,3.23,0,0,1.59,6.18-5.64,10.34,0,0-1.28.93-1.97-.05,0,0-.04-.52.95-1.92,0,0,3.72-6.94-1.63-11.41,0,0-19.77-15.59-20.9-32.97,0,0-12.28-5.97-9.4-15.99,0,0,1-2.82,2.29-1.18,0,0,4.17,6.17,6.55,6.83Z"/>
      <path class="cls-2" d="M1061.85,30.38s3.19,1.09,4.51,1.03c0,0-4-2.43-4.15-6.95,0,0-.54,4.45-.36,5.92Z"/>
      <path class="cls-2" d="M1062.42,40.71s1.52.78,2.19.97c0,0-1.25,4.07.46,9.22,0,0-2.14-4.11-2.65-10.2Z"/>
      <path class="cls-2" d="M1088.73,36.51s4.72-.99,6.59-.27c0,0-4.75,2.27-7.15,4.74,0,0,3.61-3.26.57-4.47Z"/>
      <path class="cls-2" d="M1087.49,18.3s2.21-5.09,14.24-5.98c0,0-10.39-3-14.24,5.98Z"/>
      <path class="cls-2" d="M1111.53,20.81s1.11-4.5-11.43-2.42c0,0-5.62.84-11.71,6.49l12.06,7.62s5.18-.55,2.19-5.15c0,0,8.62-2.61,8.89-6.55Z"/>
      <path class="cls-2" d="M1094.23,20.63s8.3,3.37,8.02,11.29c0,0-5.43,3.2-13.33-3.37,0,0-1.52-1.74-3.96-.7,0,0,7.32-6.73,9.27-7.22Z"/>
      <path class="cls-2" d="M1081.45,25.24s-.82,3.66,3.51,2.61c0,0-2.99,1.7-4.28-.69,0,0-.69-1.38.77-1.92Z"/>
      <path class="cls-2" d="M1091.29,22.67s3.16-.15,6.76,6.78c0,0-1.55-5.78-6.17-7.43l-.59.65Z"/>
      <path class="cls-2" d="M1077.43,12.62s3.46-2.32,5.76,1.79c0,0,1.96,3.19-1.66,5.34,0,0-3.99,1.83-5.49-1.65,0,0-1.68-3.02,1.38-5.48Z"/>
      <path class="cls-2" d="M1077.38,13.75s3.11-1.94,4.88,1.68c0,0,1.01,2.16.09,3.74,0,0-2.58,2.17-5.22.39,0,0-3.36-3.74.25-5.81Z"/>
      <ellipse class="cls-2" cx="1079.34" cy="16.66" rx="1.22" ry="1.39" transform="translate(133.33 536.58) rotate(-29.68)"/>
      <path class="cls-2" d="M1075.11,10.88s.91-3.54,3.79-2.64c0,0-3.15-2.96-3.79,2.64Z"/>
      <path class="cls-2" d="M1097.59,12.84s-1.87-1.63-.34-4.09c0,0,1.36-1.67,2.43-.59,0,0,1.45,1.94,2.05,4.16,0,0-2.73.23-4.13.53Z"/>
      <path class="cls-2" d="M1097.25,8.75s2.57-1.35,3.49,3.63l-3.14.46s-1.89-1.68-.34-4.09Z"/>
      <path class="cls-2" d="M1094.81,5.78s1.06-2.45,3.29-.8c0,0-3.28-3.28-3.29.8Z"/>
      <ellipse class="cls-2" cx="1098.48" cy="11.04" rx=".85" ry="1.01" transform="translate(138.62 545.32) rotate(-29.68)"/>
      <path class="cls-3" d="M1089.9,1.97s7.11,3.2,9.51,10.58c0,0,6.43.82,6.57,5.29,0,0-9.18-.83-17.01,6.52,0,0-3.42,3.22-4.01,3.49,0,0,2.05-1.16,3.96.7,0,0,2.01,1.53,2.5,1.82,0,0-1.33-2.5.85-3.74,0,0,2.53-1.32,4.12-.23,0,0,.29-2.06,2.94-2.13,0,0,3.17,3.08,2.93,7.65,0,0-1.97,1.36-4.74.72,0,0,.96,3.18-10.81,3.92,0,0-4.28-.08-7.05,6.75,0,0-2.96,8.71-.22,21.17,0,0,.37,1.51-.23,1.71,0,0-.51.83-3.15-2.72,0,0-9.08-11.75-10.69-21.27,0,0,1.63-.13,1.92-1.59,0,0,.66-1.67-2.35-3.1,0,0-13.16-5.56-10.8-14.39,0,0-1.52.51-1.53,5.07,0,0-.22,7.09,9.83,12.51,0,0-.81,14.51,20.9,32.97,0,0,5.35,3.75,1.63,11.41,0,0-1.49,2.15-.62,2.23,0,0,.59,1.1,4.21-2.13,0,0,3.9-3.11,3.07-8.47,0,0,4.9,1.2,8.38-3.63,0,0,.46-.6.22-1.28,0,0,.04-.5-2.31.06,0,0-5.34.95-9.52-1.64,0,0-4.03-2.81-6.02-9.95,0,0-1.28-4.72-.82-8.41,0,0,.86-5.45,4.7-8.99,0,0,5.86-1.24,11.73.73,0,0,3.25,1.42,4.48,1.1,0,0,1.78-.95-.61-4.06,0,0-3.02-3.53-6.25-4.41,0,0,3.93.1,7.02-2.75,0,0,2.43-2.16.02-6.13,0,0,9.53-2.86,9.02-7.23,0,0-1.65-7.58-9.93-7.81,0,0-2.76-9.45-11.83-10.34Z"/>
      <path class="cls-5" d="M1068.67,9.69c.13-.14-6.77,10.55-2.31,21.71,0,0-3.21-.3-4.51-1.03,0,0-.6-12.28,6.82-20.68Z"/>
    </g>
    <g>
      <path class="cls-2" d="M268.09,147.46s-5.74-5.19-15.73.79c0,0-7.79,3.85-5.35,15.81,0,0-3.62,4.4-1.34,8.02,0,0,2.99,3.62,9.91.79,0,0,1.97.47,3.77-.31,0,0,1.97,1.26,2.75,2.83,0,0-1.81,2.75-1.97,3.62,0,0-.94,2.04,5.03,3.46,0,0,.71.24,1.18.24,0,0,3.07,8.1-.16,15.81,0,0-.63,1.97-2.44,1.57,0,0-3.3-.39-4.88-1.65,0,0-1.57-1.08-1.02,1.7,0,0,.47,3.02,4.72,3.8,0,0-2.52,5.51.24,10.15,0,0,.71,1.26,1.97,1.18,0,0,.71-.08.94-2.44,0,0,.55-2.91,1.26-4.25,0,0,1.02-2.2,2.04-5.43,0,0,.63-1.73,2.91-5.74,0,0,7.24-9.83,8.26-28,0,0,5.66-12.52-1.02-17.35h-2.2s2.75,2.41.24,8.86c0,0-2.91-8.8-6.68-11.56l-2.44-1.89Z"/>
      <path class="cls-2" d="M262.12,175.38s2.91,3.5,4.25,7.31c0,0-2.51-.39-3.79-1.05,0,0-3.4-1.1-2.22-3.23,0,0,1.33-2.4,1.76-3.03Z"/>
      <path class="cls-2" d="M264.73,162.7s1.3-.12,1.18,1.24c0,0-.24,4.52-10.32,8.93,0,0,6.27-1.55,10.33-7.1,0,0,1.6-2.42,0-3.07,0,0-.83-.41-1.19,0Z"/>
      <path class="cls-2" d="M259.36,172.55s4.86-1.47,7-4.48c0,0-1.82,4.57-5.71,5.5,0,0-.59-.54-1.29-1.01Z"/>
      <path class="cls-2" d="M246.56,160.32s2.78-1.07,4.16,1.37c0,0,.63,1.53-.87,1.97,0,0-1.97.87-2.83.39,0,0-.68-2.71-.46-3.73Z"/>
      <path class="cls-2" d="M248.32,160.11s-1.74.04-1.23,2.4c0,0,.49,1.3,1.42,1.58,0,0,2.17-.24,2.3-1.42,0,0,.42-1.95-2.5-2.57Z"/>
      <path class="cls-2" d="M259.36,161.34s-1.26-.28-.87-2.04c0,0,.63-2.4,2.91-2.63,0,0,2.79-.43,3.26,1.89,0,0,.39,1.85-2.04,2.56,0,0-1.81.63-3.26.23Z"/>
      <path class="cls-2" d="M261.11,156.71s-1.83,1.02-1,3.18c0,0,.48,1.16,1.93,1.38,0,0,2.91-.44,2.63-2.72,0,0-.36-2.35-3.56-1.84Z"/>
      <ellipse class="cls-2" cx="248.92" cy="162.14" rx=".83" ry="1.04" transform="translate(-44.59 116.28) rotate(-24.2)"/>
      <ellipse class="cls-2" cx="262.62" cy="158.8" rx="1.1" ry="1.31" transform="translate(-29.1 63.47) rotate(-13.06)"/>
      <path class="cls-2" d="M245.99,157.5s.87-1.71,3.46.34c0,0-2.44-3.51-3.46-.34Z"/>
      <path class="cls-2" d="M257.24,155.25s1.87-3.7,5.38-2.44c0,0-3.72-4.01-5.38,2.44Z"/>
      <path class="cls-2" d="M277.22,160.91s-2.6,3.54-3.07,4.01c0,0-1.26,1.26-1.1,2.04,0,0-.17-2.3,1.73-3.81,0,0,1.74-2.13,1.66-4.35,0,0,.55,1.48.78,2.11Z"/>
      <path class="cls-2" d="M261.87,174.95s-2.67-.87-3.44-.4c0,0,.41,1.24.94,1.65,0,0,.01,1.06.74,1.77,0,0,1.87-.29,2.51-1.36,0,0,.58,0,1.11-.18,0,0,1.3,1.36,3.6,1.18,0,0,.12-1.47-.35-2.24,0,0,.2-1.83-.34-2.89,0,0-1.3.19-3.39,2.36,0,0-.64-.45-1.37.1Z"/>
      <path class="cls-2" d="M261.87,174.95s.14,1.05.75,1.67c0,0-.72-.21-.75-.5,0,0-1.09.18-1.53-.21,0,0-.21-.22.27-.13,0,0,.84.15,1.09,0,0,0-.05-.7.17-.83Z"/>
      <path class="cls-2" d="M263.24,174.85s.16,1.03.49,1.59c0,0-.03-.61.33-.66,0,0,1.36.1,1.42-.14,0,0,.32-.59-1-.41,0,0-.86.27-.94,0,0,0-.22-.45-.12-.56l-.17.17Z"/>
      <path class="cls-4" d="M265.5,146.04s1.38,1.38,1.84,4.03c0,0,.41,2.68,3.94,3.89,0,0,3.83,6.85,2.12,11.89,0,0,3.62-4.42,3.82-4.95,0,0-2.73-7.82-5.04-9.95,0,0-4.2-4.34-6.67-4.92Z"/>
      <path class="cls-4" d="M249.79,150.36s-3.84,5.34-1.73,12.52c0,0-.57.51-1.04,1.17,0,0-2.09-8.63,2.77-13.69Z"/>
      <path class="cls-2" d="M278.08,154.22s-.44-1.6.51-1.76c0,0,1.35-.14,2.05.96,0,0-.44-4.05-6.73-8.52,0,0-3.19-2.54-6.61-2.99,0,0-1.92-.34-1.8,1.71,0,0,.89,6.82,12.58,10.61Z"/>
      <path class="cls-2" d="M274.27,137.79s-.59.16-.63.67c0,0-.94,5.43-2.44,6.68,0,0,3.26,3.54,5.35,3.62,0,0,3.3-4.21,5.03-4.76,0,0,.47-.12.31-.73l-7.63-5.49Z"/>
      <path class="cls-2" d="M271.99,144.03s.82,3.19,5.26,3.86c0,0-.83,1.14-1.14,1.73,0,0-3.81-.45-5.54-4.14,0,0,1.16-.88,1.42-1.45Z"/>
      <ellipse class="cls-2" cx="277.78" cy="140.91" rx="2.19" ry="4.98" transform="translate(-4.44 272.7) rotate(-51.93)"/>
      <path class="cls-4" d="M280.65,140.63s.97,1.92-.28,2.43c0,0-1.69.6-4.32-.74,0,0,1.14.99,2.05,1.39,0,0-3.29,3.61-3.83,5.35,0,0,1.66,1.31,1.23,2.8,0,0-.25.95-1.85.53,0,0,2.4,1.22,4.45,1.82,0,0-.39-1.68.51-1.76,0,0,1.34-.17,2.05.96,0,0-.76-3.36-3.39-5.52,0,0,2.74-3.24,3.75-3.51,0,0,2.32-.68-.36-3.75Z"/>
      <path class="cls-2" d="M263.24,174.85s.25.94.49,1.59c0,0-1.67.88-2.03-.66,0,0-.36-1.3,1.54-.94Z"/>
      <path class="cls-4" d="M265.04,169.49s-1.11,2.19-.34,4.04l-1.46,1.32s-.83-.39-.62.53c0,0,.4.86.92.63,0,0,2.77.95,3.69.04l-.25-.67s.03-1.67-.19-2.52c0,0,.56,1.38.56,2.92,0,0,.48,1.36,0,2.49,0,0,3.35,10.56.75,19.46,0,0-.24.59.12.94,0,0,.29.47,1.3-.77,0,0,6.97-9.77,5.62-22.96,0,0-.54-2.28.87-3.88,0,0,4.66-3.96,4.9-12.27,0,0,.24-5.31-2.36-6.75h.65s6.65,3.53,1.02,17.35c0,0-.57,16.98-8.41,28.26,0,0-2.18,3.75-2.76,5.48,0,0-1.23,3.89-2.27,5.91,0,0-1.07,3.16-1.29,5.16,0,0-.04.81-.69,1.05,0,0-1.41.54-2.56-2.38,0,0-1.67-3.45.36-8.94,0,0-5.05-.81-4.81-5.12,0,0,.16-.96,1.12-.38,0,0,2.63,1.9,5.83,1.64,0,0,.91.02,1.48-1.56,0,0,3.26-6.78.16-15.81,0,0-4.49-.51-6.07-2.7,0,0-.61-1.16.38-2.15l-.57.13s-.98-1.18-.74-1.77c0,0-.88-1.06-.94-1.65,0,0,.87-.45,3.44.4,0,0-1.33-1.75-2.5-2.4,0,0-1.89.87-3.77.31,0,0,3.44-.72,7.03-3.67,0,0,.19.73,2.42.3Z"/>
    </g>
    <g>
      <path class="cls-2" d="M1023.65,240.34s6.66,1.39,7.77,8.45c0,0,4.49.87,5.28,4.26,0,0,1.11,2.46-3.41,3.38,0,0-.97,2.37-3.58,2.84,0,0-3.76.8-4.6,9.29,0,0,3.42-.18,4.02,2.36,0,0,.75.1.8.82,0,0,.09,2.12-2.87,3.44,0,0,.7,5.24.02,9.75,0,0-.8,5.75-3.78,10.29,0,0-3.73,5.45-5.82,7.63,0,0-2.25,2.29-4.23,5.48,0,0-2.62,4.15-3.54,5.6,0,0-.45,1.24-1.07,1.44,0,0-1.45.65-2.35-1.79,0,0-1.5-4.08,1.8-9.64,0,0,.29-.26-.51-.5,0,0-2.8-.74-1.85-4.37,0,0,.31-1.3.71-1.3,0,0,.56-.16,1.06.35,0,0,3.17,2.53,7.34.21,0,0,3.24-6.04-.26-11.68,0,0-4.5-7.6-8.93-13.63,0,0-3.26-4.85-4.35-11.36,0,0-.93-6.37,1.31-12.38,0,0,2.98-9.73,14.37-10.35l6.66,1.39Z"/>
      <path class="cls-2" d="M1021.03,251.11s4.07-3.22,10.4-2.31c0,0-4.91-3.72-10.4,2.31Z"/>
      <path class="cls-2" d="M1015.26,256.52s.27.29-.63.75c0,0-.71.47-.36,1.49,0,0,.91,2.13,2.88,2.07,0,0,1.68.03,3.83-1.14,0,0,6.57-4.56,12.31-3.25,0,0-.65.27-1.88.24,0,0-4.31-.01-7.45,1.7,0,0-2.28,1.4-2.94,1.81,0,0-2.35,1.2-4.18,1.02,0,0-2.24-.24-2.83-2.44,0,0-.39-1.48.71-2.15,0,0,.53-.3.55-.09Z"/>
      <path class="cls-2" d="M1023.11,270.24s-.49,1.12.93,1.42c0,0,1.34.06,2.43-.62,0,0,.61-.34,1.19-.13,0,0,1.04.36,1.46.01,0,0,.12.74-.93.75,0,0-1.06-.25-2.14.16,0,0-1.63,1.03-2.85.48,0,0-1.5-.77-.1-2.09Z"/>
      <path class="cls-2" d="M1019.55,274.15s2.88,3.14,7.51,1.03l.05.47s-4.01,2.76-7.56-1.5Z"/>
      <path class="cls-2" d="M1025.91,248.43s-.17-3.04,2.65-3.56c0,0,2.14-.39,2.86,3.93,0,0-2.77-.61-5.28.14,0,0-.25.04-.23-.51Z"/>
      <path class="cls-2" d="M1028.38,245.54s1.17-.09,1.45,1.15c0,0,.32,1.38-.45,1.88,0,0-2.58.21-3.1.33,0,0-.47.2-.36-.68,0,0,.1-2.3,2.46-2.68Z"/>
      <path class="cls-2" d="M1025.89,247.05s3.78-2.84,5.79-2.61c0,0-.49-.54-1.17-.73,0,0,.33-.32.63-.35,0,0-.62-.32-1.25-.2,0,0,.09-.68.23-.97,0,0-2.64.29-4.24,4.85Z"/>
      <path class="cls-2" d="M1018.09,248.56s3.54,1.27,1.59,2.9c0,0-2.07,1.18-2.67,1.61,0,0-2.29,1.53-3.61-.99,0,0-1.07-1.9.1-3.22,0,0,3.36-.67,4.59-.3Z"/>
      <path class="cls-2" d="M1016.85,248.63s2.41.42,1.73,3.47c0,0-1.87,1.17-2.19,1.26,0,0-1.47.61-2.37-.43,0,0-2-2.08-.52-4.07l2.69-.38s.47.1.66.15Z"/>
      <path class="cls-2" d="M1009.47,250.84s5.57-3.22,11.46-1.46c0,0-2.45-3.53-9.45-3.01,0,0-1.1-.01-1.73-.19,0,0,1.11.89,1.46,1.4,0,0-1.67.4-1.81.55,0,0,.82.54,1.1.85,0,0-.63.65-1.04,1.85Z"/>
      <path class="cls-2" d="M1005.69,244.18s5.35-5.76,10.71-4.99c0,0,3.63.64,4.68,1.72,0,0,2.92,2.68,4.24,3.26,0,0-.41-4.07,1.91-5.5,0,0,4.16-2.53,6.69-1.96,0,0,.12,1.23,1.49,2.23,0,0,3.17,2.11,3.78,2.85,0,0-1.1-1.65-1.49-4.59,0,0-.73-3.36-1.06-4.04,0,0-1.21-1.38-9.75-1.06,0,0,.55-2.79,1.26-3.86,0,0,1.25-1.01,2.35-2.14,0,0-2.61.42-3.89.27,0,0-3.44-.07-4.39.38,0,0-.72.13-2.51,3.37,0,0-1.16-.8,1.49-5.3,0,0-1.67.57-2.66,1.42,0,0-1.92.82-2.41,3.02,0,0-.12-1.83-1.23-2.84,0,0-.82-1.1-.47-2.1,0,0-.87,3.16-1.62,4.41,0,0-1.82,2.26-2.51,4.23,0,0-.73-1.19-1.69-1.87,0,0-1.15-1.29-1.72-3,0,0,.49,2.35-.24,4.3,0,0-1.69,4.23.26,5.67,0,0-2.6.2-3.38.02,0,0-.74-.21-2.41,1.3,0,0,2.37-.18,3.7,1,0,0-2.18.95-2.83.7,0,0-.52-.18-1.22,1.48,0,0,3-.96,4.9,1.61Z"/>
      <path class="cls-2" d="M1006.93,238.08s.99,1.21,1.15,1.77c0,0-1.7-1.73-2.24-1.71l1.09-.07Z"/>
      <path class="cls-2" d="M1010.32,232.97s-.57,2.86-.22,5.31c0,0-2.39-.83-2.49-3.52,0,0-.19-4.7-.54-6.22,0,0,.87,1.97,1.56,2.57,0,0,1.51,1.22,1.69,1.87Z"/>
      <path class="cls-2" d="M1016.15,229.61s-1.62,6.17-2.56,7.26c0,0-1.19-1.48-.39-5.04,0,0,1.13-5.58,1.11-7,0,0-.27.49,1.11,2.21,0,0,.97,1.7.73,2.58Z"/>
      <path class="cls-2" d="M1021.23,224.82c.12-.2-2.99,1.05-3.84,4.93,0,0-.18,4.83-1.9,6.85,0,0,3.25-3.27,4.25-6.48,0,0-1.09-.75,1.49-5.3Z"/>
      <path class="cls-2" d="M1030.51,226.11s-2.77.34-3.33.3c0,0-1.79.25-4.43,5.35,0,0-2.8,4.49-4.38,5.01,0,0,1.8-.47,4.65-2.82,0,0,2.06-1.8,3.89-1.84,0,0,.37-2.11,1.04-3.47,0,0,.35-.46,1.03-1.08,0,0,1.15-1.12,1.53-1.44Z"/>
      <path class="cls-2" d="M1025.33,244.17s-2.11-1.18-3.85-2.91c0,0-.84-.98-2.56-1.44,0,0,8.8-6.56,14.51-5.5,0,0,.81-.11.86,1.1,0,0-.14,2.32.81,3.26,0,0-1.08-1.04-1.16-1.96,0,0-1.89-.71-6.69,1.96,0,0-2.19,1.16-1.91,5.5Z"/>
      <path class="cls-1" d="M1034.3,236.3s1.76,2.45,3.57,1.81c0,0,.65,2.79,1.34,3.67,0,0-2-1.62-2.99-2.31,0,0-2.17-1.02-1.92-3.17Z"/>
      <g class="cls-7">
        <path class="cls-2" d="M1007.02,228.85s0-.07,0-.07c0,.02,0,.04,0,.07Z"/>
        <path class="cls-2" d="M1029.19,259.5s3.21-.63,4.1-3.06c0,0,2.8-.41,3.48-2.3,0,0,.39-1.86-2.01-3.85,0,0-1.65-1.28-3.34-1.48,0,0-.35-4.94-5.83-7.75,0,0,.67-1.85,1.66-2.38,0,0,3.94-2.36,6.69-1.96,0,0,.11.68.8,1.46,0,0-.38-.57-.45-2.76,0,0-9.45.27-11.97,6.58,0,0,2.07,1.77,3.02,2.18,0,0,2.68,1.33,2.34,4.54,0,0,3.9.08,5.12,3.74,0,0,1.55,3.16-4.39,4.05,0,0-5.31,1.73-7.85,3.9,0,0-5.14,2.34-6.55-1.63,0,0,.08,1.44,3.11,3.4,0,0,1.65,1.29-.9,2.56,0,0,3.13.22,5.21,3.61,0,0,1.31,1.94,1.6,2.25,0,0-.64,1.88,3.03,1.26,0,0,.53,5.3-6.51,2.3,0,0,.96,2.1,2.81,2.99,0,0,2.1,3.43,1.14,9.19,0,0-1.51,6.95-4.75,10.14,0,0-.81,1.04-1.59.86,0,0-.57.01.1-2.15,0,0,2.51-5.17-2.05-13.38,0,0-2.86-5.74-5.85-9.38,0,0-4.61-6.57-4.72-13.16,0,0-.18-5.44,1.06-10.85,0,0,1.2-5.23,5.51-8.26,0,0-1.81-2.65-.88-7.19,0,0-.96-1.43-1.84-2.01,0,0-1.33-1.68-1.46-2.1.05.42.29,2.75-.68,4.59,0,0-.95,3.26.59,4.64,0,0-2.6.13-2.99.07,0,0-1.12-.42-2.8,1.24,0,0,2.15-.2,3.7,1,0,0-1.69.8-2.83.7,0,0-.53-.15-1.22,1.48,0,0,3.1-.9,4.9,1.61,0,0-3.51,3.45-4.31,10.23,0,0-.99,7.09,1.13,11.98,0,0,1.25,3.9,3.63,7.32,0,0,6.65,9.81,7.9,12.05,0,0,4.38,5.45.8,12.59,0,0-3.43,2.16-7.04,0,0,0-1.48-1.37-1.85.03,0,0-1.73,3.85,1.85,5.16,0,0,.62.12.05.82,0,0-3.5,6.03-.97,10.36,0,0,1.58,2.19,2.82-.79,0,0,4.22-6.66,6.12-9.2,0,0,3.17-3.56,4.49-5.35,0,0,4.06-4.74,5.61-9.76,0,0,1.6-4.73,1.45-8.77,0,0-.12-5.06-.31-5.66,0,0,2.88-1.2,2.84-3.62,0,0,.13-.35-.77-.64,0,0-.34-1.95-3.03-2.3.03.01.05.02.05.02,1.15,1.32-1.31,2.01-1.31,2.01-1.32.66-1.74-.42-1.74-.42.83-1.41,2-1.67,2-1.67,0,0,.22-4.38,2.12-7.15,0,0,1.1-1.63,1.95-1.92ZM1025.52,259.84c-.99.36-3.02,1.34-3.02,1.34-2.17.94-2.2.41-2.2.41-.13-.22.47-.71.47-.71,1.17-.99,3.94-2.39,3.94-2.39,1.79-.88,2.55-.06,2.55-.06.38.88-1.75,1.42-1.75,1.42Z"/>
      </g>
      <ellipse class="cls-2" cx="1015.87" cy="250.89" rx=".91" ry="1.28" transform="translate(-30.52 251.94) rotate(-13.93)"/>
      <ellipse class="cls-2" cx="1027.94" cy="247.24" rx=".69" ry=".92" transform="translate(-6.89 30.65) rotate(-1.7)"/>
      <path class="cls-2" d="M1025.11,268.57s-1.42.42-2,1.67c0,0,.63-2.25,1.99-2.72,0,0,0,.75.01,1.05Z"/>
    </g>
    <g>
      <path class="cls-2" d="M295.95,15.01s-3.96,2.03,2.2,11.61c0,0-3.03.89-3.17,3.25,0,0,.2,4.32,6.43,6.53l12.47-3.99s-5.16-15.27-17.93-17.4Z"/>
      <path class="cls-2" d="M313.14,30.57s-8.2-7.53-16.34,2.03c0,0,11.37,5.8,15.58,6.04l1.36-.67s.85-4.51-.6-7.4Z"/>
      <path class="cls-2" d="M313.03,31.82s-2.8-1.78-9.94.68c0,0,4.49-2.95,9.48-1.23l.47.55Z"/>
      <path class="cls-4" d="M304.44,27.85s1.82,1.38,2.17,3.21c0,0,4.14,1.84,2.07,5.71l4.93,2,.89-5.76-.79-1.76s-3.16-3.79-9.27-3.4Z"/>
      <path class="cls-2" d="M317.51,10.59s-4.54-.91-10.1,2.46c0,0-6.5-3.57-12.36,2.68,0,0,4.59-.93,10.35,5.03,0,0,7.9,6.95,7.47,16.16,0,0-.14,1.16-1.94-.03,0,0-6.23-2.21-7.56-2.39,0,0-4.73-.99-7.67-4.07,0,0-.96-1.47,0-2.3,0,0-.68-.33-1.42-2.48,0,0-.32-1.44-1.29-1.04,0,0-7.43,5.14,6.33,21.14,0,0-2.41,7.63-10.98,8.1,0,0-8.35-1.13-4.47-15.25,0,0,.84-1.81-1.19-1.04,0,0-6.31,1.68-5.04,9.74,0,0-4.79-1.96-9.98,1.62,0,0-.77.96.33,1.14,0,0,6.97.05,15.92,7.52,0,0,13.22,12.86,33.06-.03,0,0,14.63,2.82,21.65-8.12,0,0,.81-1.47-.41-2.17,0,0-.91-.34-3.8.36,0,0-5.6,1.4-9.36,1.41,0,0,5.23-7.08,5.9-9.84,0,0,7.23-19.78-13.45-28.61Z"/>
      <path class="cls-4" d="M295.71,28.15s-3.33,3.16,3.52,10c0,0,2.24,2.66.1,7.62,0,0-10.77-11.01-7.7-19.32,0,0,.87-1.9,1.8-1.87,0,0,.43.04.85,1.1,0,0,.61,1.78,1.42,2.48Z"/>
      <path class="cls-2" d="M307.41,13.05s6.76,2.98,10.05,11.21c0,0-.07-9.64-10.05-11.21Z"/>
      <path class="cls-2" d="M312.04,15.65s-.33-3.58-2.94-4.53c0,0-.85-.24-.51.43,0,0,1.5.53,1.62,1.93,0,0-2.31-1.72-3.26-.98,0,0-.11.45.46.55,0,0,3.6.91,4.63,2.6Z"/>
      <path class="cls-2" d="M320.78,25.31s-1.1.38-1.11,1.49c0,0,.02,3.68,2.35,5.51,0,0,1.73,1.22,3.64-1.57,0,0,1.26-2.16-.19-4.17,0,0-1.41-2.43-4.68-1.26Z"/>
      <path class="cls-2" d="M325.09,26.1s-2.83-1.58-5.21,2.39c0,0,.12,1.72,1.76,3.53,0,0,1.37,1.47,3.34-.45,0,0,2.6-2.53.11-5.47Z"/>
      <path class="cls-2" d="M325.02,28.48s-.49-1.52-2.07-.59c0,0-1.42.75-.91,2.2,0,0,.5,1.53,2.03.4,0,0,1.43-.97.94-2.01Z"/>
      <path class="cls-2" d="M321.26,37.59s1.96-.39,2.77-.83c0,0-1.54,2.16-2.09,2.7,0,0,.39,1.33.34,2,0,0-1.29-.34-1.69-.63,0,0-1.7,1.28-2.31,1.62,0,0,.58-1.99.54-2.42,0,0-1.69-1.08-2.06-1.52,0,0,2.36-.14,2.85-.24,0,0,.68-2.41.62-2.66,0,0,.77,1.1,1.03,1.98Z"/>
      <path class="cls-2" d="M313.91,10.64s8.74,3.58,12.9,10.4c0,0,6.66,10.54,2.38,21.85,0,0,3.68,1.56,6.08-1.48,0,0,3.41-4.28,2.04-14.71,0,0,1.43-3.64,1.99-4.75,0,0,4.47-9.11-2.96-15.7,0,0-6.04-5.87-10.76-1.27,0,0-4.68-4.73-9.36-2.05,0,0-2.94,1.6-2.32,7.71Z"/>
      <path class="cls-2" d="M325.58,4.98s8.84,7.61,9.63,13.05c0,0,1.31,4.84-2.35,11.07-3.66,6.23-.52,1.41-1.42,2.61,0,0,3.48-3.82,4.75-9.52,0,0,.91-4.82-2.67-9.46,0,0-5.99-8.44-7.93-7.75Z"/>
      <path class="cls-2" d="M337.3,26.7s-1.62,2.85-1.61,5.21c0,0,.99-2.2,1.86-2.57l-.26-2.64Z"/>
      <path class="cls-2" d="M330.61,34.26s-.26-2.34,1.58-3.25c0,0,1.37-.52,1.52,1.24,0,0,.2,2.45-1.89,3.45,0,0-1.08.52-1.21-1.44Z"/>
      <path class="cls-2" d="M312.27,10.03s4.57-.46,4.42,3.29c0,0,1.83-4.38-4.42-3.29Z"/>
      <path class="cls-2" d="M327.14,23.35s5.05,2.14,1.69,8.26c0,0,4.93-7.29-1.69-8.26Z"/>
      <path class="cls-4" d="M333.86,4.45s-4.59-3.05-8.28.52c0,0-4.73-4.69-9.36-2.05,0,0-3.16,1.9-2.32,7.71,0,0-3.84.61-6.5,2.41,0,0-6.4-3.46-12.36,2.68,0,0,2.69-.24,4.79.93,0,0,.63-5.5,10.24-1.98,0,0,4.32-3.13,7.17-1.83,0,0,14.21,7.19,12.13,23.34,0,0-2.3,7.28-9.3,11.59,0,0,2.79,1.37,4.98,1.24,0,0,2.98-4.06,4.13-6.15,0,0,2.51,1.09,4.86-.36,0,0,2.6-1.38,3.29-7.06,0,0-.46,3.08-3.28,4.59,0,0-1.85,1.11-3.82-.1,0,0,.76-3.82.57-4.77,0,0,.62,1.55,2.21-.49,0,0-2.26.49-.83-3.7,0,0-.81.46-1.22,1.26,0,0-.64-9.5-6.66-15.42,0,0-1.16-3.51,1.93-6.42,0,0,2.52-2.24,5.54,1.02,0,0-2.59-3.04-3.7-4.12,0,0,.21-2.28,5.8-2.86Z"/>
      <path class="cls-4" d="M299.32,45.77s-12.61-13.4-6.7-20.81c0,0,.25-.35.81-.39,0,0,.78.31,1.12,1.84,0,0,.34,1.04,1.16,1.74,0,0-1.93,1.88,2.97,4.55,0,0-1.26,2.09,1.06,5.42,0,0,2.89,1.75,5.17,1.84,0,0,2.19,1.67-.14,5.55,0,0-7.02,10.66-16.56,10.18,0,0-.72-.2-1.06.33,0,0-.34.53,1.21,1.44,0,0,13.35,7.68,25.87-3.16,0,0,.69-.66,2.55.06,0,0,11.74,3.93,19.12-1.61,0,0-5.67,6.6-18.92,4.83,0,0-16.03,11.86-31.39,1.36,0,0-9.67-8.51-17.6-8.85,0,0-1.14-.23-.33-1.14,0,0,3-3.08,9.98-1.62,0,0-1.57-7.92,5.4-9.86,0,0,1.23-.43.83,1.16,0,0-4.22,12.68,4.47,15.25,0,0,7.47.27,10.98-8.1Z"/>
    </g>
    <g>
      <path class="cls-2" d="M136.16,245.89s6.44-1.92,10.78,1.12c0,0,10.38,5.43,7.45,16.85,0,0,2.5,2.59.46,5.42,0,0-1.83,1.7-5.46.75,0,0,2.03,1.81-2.91,2.68,0,0,4.46.77,6.44-.89,0,0,1.09-1.41,2.03-.28,0,0,3.51,5.84-13.49,7.75,0,0-3.77,12.57,4.74,18.4,0,0,3.42,2.07,12.6-2.28,0,0,1.27-.91,1.22.74,0,0-.75,3.74-6.12,4.62,0,0-1.69.16-1.45,2.91,0,0,.69,7.11-3.07,7.77,0,0-.92.55-.85-2.52,0,0-.29-5.24-6.61-9.15,0,0-3.44-1.67-7.22-3.72,0,0-13.6-8.31-14.62-19.73,0,0-1.93-17.06,3.57-22.27l2.87-5.6,9.63-2.57Z"/>
      <path class="cls-2" d="M147.14,261.4s4.8.13,7.26,2.47c0,0-2.16-5.31-7.26-2.47Z"/>
      <path class="cls-2" d="M138.53,267.79s-2.96-1.32-.44-3.23c0,0-.97-.86-1.56.58,0,0-.79,1.54,2,2.65Z"/>
      <path class="cls-2" d="M149.39,270.03s-4.31-.72-5.33-1.43c0,0-.71-.47-2.49-.48,0,0-2.12-.14-3.04-.33,0,0,2.59.95,3.19,1.43,0,0,2.63,2.55,5.27,2.8,0,0,3.89.26,2.4-1.98Z"/>
      <path class="cls-2" d="M131.27,262.73s.74.68-1.83,2.28c0,0-4.51,3.51-1.77,8.41,0,0-.13-5.13,2.36-7.75,0,0,2.08-1.49,1.24-2.95Z"/>
      <path class="cls-2" d="M150.68,261.96s-1.06-4.52,2.41-5.18c0,0,1.77-.23,1.78,2,0,0,.07,2.71-1.13,4.56,0,0-2.05-1.12-3.06-1.37Z"/>
      <path class="cls-2" d="M152.71,256.87s3.27.04,1.02,6.46c0,0-2.05-1.12-3.06-1.37,0,0-.81-4.28,2.04-5.09Z"/>
      <ellipse class="cls-2" cx="153.67" cy="261.16" rx=".66" ry=".56" transform="translate(-149.34 260.74) rotate(-59.45)"/>
      <path class="cls-2" d="M135.62,259.94s-.44-5.79,4.75-5.41c0,0,5.14-.16,2.69,6.97,0,0-4.42.83-6.72-.33,0,0-.72-.38-.71-1.23Z"/>
      <path class="cls-2" d="M138.62,254.67s3.68-.51,3.99,3.59c0,0-.02,2.6-1.41,3.47,0,0-3.7.33-4.87-.56,0,0-1.73-5.2,2.28-6.5Z"/>
      <ellipse class="cls-2" cx="137.58" cy="259.36" rx=".82" ry=".83" transform="translate(-34.02 21.14) rotate(-7.82)"/>
      <ellipse class="cls-2" cx="138.88" cy="260.41" rx=".73" ry=".6" transform="translate(-34.15 21.33) rotate(-7.82)"/>
      <path class="cls-2" d="M152.31,254.22s1.99-.8,2.92,1.17c0,0-.73-2.52-2.92-1.17Z"/>
      <path class="cls-2" d="M135.93,253.38s1.55-1.88,4.29-.97c0,0-2.79-1.61-4.29.97Z"/>
      <path class="cls-2" d="M154.24,257.11s.6.23,1.39-.23c0,0-.51.56-.86.73,0,0-.27-.34-.53-.51Z"/>
      <path class="cls-2" d="M154.79,258.06s.5.24,1.37-.03c0,0-.43.58-1.29.74l-.08-.71Z"/>
      <path class="cls-2" d="M154.85,259.49s.83.22,1.51-.02c0,0-1.02.82-1.45.8l-.06-.78Z"/>
      <path class="cls-2" d="M136.64,256.13s-1.6.13-2.06-1.18c0,0-.39,1.27,1.55,1.97l.52-.79Z"/>
      <path class="cls-2" d="M135.92,257.47s-2.1.29-2.32-1.3c0,0-.55,1.15,2.13,2.11l.19-.81Z"/>
      <path class="cls-2" d="M135.66,258.78s-1.14.6-2.48-.15c0,0,.46,1.26,2.43.99l.04-.84Z"/>
      <ellipse class="cls-2" cx="134.43" cy="262.86" rx="1.19" ry="1.65" transform="translate(-139.21 373.71) rotate(-84.97)"/>
      <path class="cls-3" d="M150.61,249.86s4.43,6.87-.19,12.03c0,0,3.67.69,3.16,4.28,0,0-.04,3.43-2.95,4.09,0,0,4.86.7,5.01-2.97,0,0,.32-1.8-1.24-3.44,0,0,2.35-8.03-3.79-14.01Z"/>
      <ellipse class="cls-2" cx="152.78" cy="259.96" rx="1.16" ry=".86" transform="translate(-125.12 376.96) rotate(-82.39)"/>
      <ellipse class="cls-2" cx="139.33" cy="257.98" rx="1.5" ry="1.35" transform="translate(-133.23 366.03) rotate(-83.25)"/>
      <path class="cls-2" d="M146.19,272.66s4.3.84,6.73-.83c0,0,.65-1.15,1.73-.56,0,0,1.14.68.35,2.53,0,0-.43,4.13-13.53,5.5,0,0,1.53-5.38,3.53-6.33,0,0,.38,0,1.19-.31Z"/>
      <path class="cls-2" d="M140.1,271.97s1.91,1.41,4.89,1c0,0-.66.43-.89.73,0,0-2.76.37-4-1.73Z"/>
      <path class="cls-6" d="M139.81,249.51s-2.96,3.4-4.27,5.25c0,0-1.19,1.4-2.49-.47,0,0-1.92-2.54-4.41.42,0,0-3.59,5.39-2.89,8.43,0,0-3.39,1.99-3.87,5.38,0,0-.4,3.29,1.73,3.23,0,0,.79.25,1.7-3.17,0,0,.86-3.99,4.4-5.34,0,0,.81-.33.71-.7,0,0-.5-.89-4.03.12,0,0,4.87-1.77,4.94.55,0,0,.3.9-1.32,2.39,0,0-2.31,1.97-2.36,7.54,0,0,.3,1.15-.7,2.52,0,0-1.58,12.01,12.25,20.24,0,0,2.15,1.08,2.6.93,0,0,.92.11-.16-1.88,0,0-3.12-6.42-2.11-15.69,0,0,.59-3.6,1.24-5.02,0,0,.42-1.01-.27-1.94,0,0,3.19.76,3.54-1.41,0,0-1.9-1-2.34-1.74,0,0-2.73-1.49-2.96-1.46,0,0,3.75.36,4.3.5,0,0,.27-.1,1.44.57,0,0,3.86,1.25,4.9,1.2,0,0,1.86,1.79-2.91,2.68,0,0,2.68.55,5.24-.23,0,0,1.1-.3,1.49-.95,0,0,.69-.61,1.11-.4,0,0,2.04.35.2,3.66,0,0-2.36,3.66-13.06,4.52,0,0-3.36,11.96,3.93,17.79,0,0,1.13,1.55,5.1,1,0,0,4.88-.82,8.31-2.67,0,0,.62-.49,1.09-.02,0,0,.88,1.44-2.11,3.86,0,0-1.5,1.22-3.46,1.44,0,0-2.14-.04-1.87,2.99,0,0,.85,6.37-2.79,7.7,0,0-.97.43-1.05-.88,0,0,.03-1.52-.21-2.39,0,0-.34-2.94-3.73-6.24,0,0-3.12-2.63-5.59-3.52,0,0-8.88-4.01-14.04-10.72,0,0-4.3-5.4-4.96-11.3,0,0-1.23-16.8,2.82-21.17l3.23-4.96,4.09-1.7,9.61,1.06Z"/>
      <path class="cls-2" d="M119.8,245.41s-1.19.02-.99,2.51c0,0,.04,2.37-.18,3.88,0,0-1.57.93-2.4,1.19,0,0,.58,3.25,1.4,5.04,0,0,.72,1.79.77,3.17,0,0,4.65-2.18,5.36-6.68,0,0,1.65-1.5,2.14-3.14,0,0,1.75-.05,3.5-.86,0,0,1.92,1.16,2.79,1.28,0,0,2.22,1.47,2.77,2.26,0,0,5.05-4.62,7.41-5.76,0,0-1.45-1.75-3.38-2.68,0,0,.28-2.13.96-3.41,0,0,.76-1.82.02-2.86,0,0-6.81-1.96-10.51,6.82,0,0-1-.39-2.34.61,0,0-2.92-2.88-7.32-1.37Z"/>
      <path class="cls-2" d="M138.99,245.63s-1.18,2.99-1.21,4.68c0,0,.3,1.1-.49,1.21,0,0-4.26.54-5.1.27,0,0,4.01.39,4.41.77,0,0,2.06-1.68,2.54-2.06,0,0-.26-3.66.11-4.74l-.26-.13Z"/>
      <path class="cls-2" d="M129.47,246.18s1.9-1.93,3.55-1.58c0,0,1.02.19.08.85,0,0-3.6,1.05-3.67,3.42,0,0-.13,1.6.25,1.81l-.37-.21s-1.3-1.54.17-4.29Z"/>
      <path class="cls-2" d="M127.13,246.78s-2.29,1.69-1.22,4.59c0,0-.92-.82-.88-1.54,0,0-.24-1.06-2.72-.43,0,0-.87-.08-.5-.51,0,0,1.87-1.26,3.31-.46,0,0,1.2-2.01,2.01-1.65Z"/>
      <path class="cls-2" d="M118.64,251.8s-.32,2.87-.38,3.46c0,0,.42,2.02,5.51-.76,0,0-.87,2.32-4.34,2.32,0,0-1.29-.01-1.38-.71,0,0-.18-3.4.6-4.31Z"/>
      <path class="cls-2" d="M129.47,246.18s-1.49,2.53-.17,4.29c0,0-1.65,1.02-3.4.91,0,0-1.01-2.86,1.22-4.59,0,0,.83-.9,2.34-.61Z"/>
      <path class="cls-4" d="M118.68,251.8l-.29,2.64s.95,1.84,4.01-.66c0,0,2.46-1.88,3.27-4.07,0,0,.49,1.22,3.19-.44,0,0,3.04,1.51,6.68,1.37,0,0,1.6,0,2-2.34,0,0,.75-4.62,1.87-6.87,0,0,.74-.91.6-2.08,0,0,.9,1.54-.02,2.86l-.96,3.41.68.37s-.43,2.05.07,3.3c0,0,2.23-1.17,2.63-.99,0,0-6.63,4.49-7.41,5.76,0,0-1.93-2-2.77-2.26,0,0-2.57-.75-2.89-1.33,0,0-2.12.8-3.4.91,0,0-1.43,2.76-2.14,3.14,0,0-.74,4.66-5.36,6.68,0,0-.14-2.29-.95-3.61,0,0-1.47-3.8-1.21-4.6,0,0,2.35-.83,2.4-1.19Z"/>
    </g>
    <g>
      <path class="cls-2" d="M132.45,62.12s-.94-11.24,10.11-13.77c0,0,12.06-2.26,16.83,6.06,0,0,4.62,6.44,4.05,16.55,0,0-.58,2.09,2.02,4.84,0,0,2.38,1.28,1.16,6.67,0,0-.14,1.49-3.61,2.79,0,0-2.38.72-3.03,1.73,0,0-3.32,6.43-9.32,10.04,0,0-6.07,3.9-6.79,5.56,0,0-.94,1.3.94,3.61,0,0,2.74,3.32,5.27,4.91,0,0,1.16,1.01.22,1.59,0,0-1.3,1.66-7.87-2.09,0,0-1.81-1.08-4.55.94,0,0-2.31,2.53-3.61,2.17,0,0-2.74-1.3,1.59-6.93,0,0,2.17-2.89,3.97-7.15,0,0,5.42-9.53,3.47-16.04,0,0-12.86.07-13.8-5.13,0,0-.43-1.88,1.37-1.37,0,0,5.2,2.6,8.67-.65,0,0-1.59-2.17-2.02-2.82,0,0-3.9-.51-4.98-2.24,0,0-3.9-.28-4.48-3.21,0,0-.87-3.92,4.41-6.06Z"/>
      <path class="cls-2" d="M132.53,71.39s.14-3.39,6.36-4.19c0,0,6.14-.65,10.4.9,0,0,5.2,1.57,6.21-1.04,0,0-.14-1.04-1.23-.89,0,0,1.23,1.05-.36,1.36,0,0-2.02.6-5.27-.34,0,0-10.91-3.25-15.6,1.95,0,0-1.07,1.61-.51,2.24Z"/>
      <path class="cls-6" d="M139.53,76.45s2.67,3.32,3.76,7.15c0,0-1.15-.02-1.52-.04,0,0-.56-5.56-3.75-6.08,0,0,1-.45,1.51-1.03Z"/>
      <path class="cls-6" d="M158.75,78.54s2.46-.72,2.24,1.48c0,0,.07,1.55-2.24,3.36,0,0-3,2.96-.9,4.98,0,0,.62.9,2.02-1.17,0,0-.86,1.43-1.01,1.65,0,0-1.85.72-2.17-1.38,0,0-.36-1.77,1.08-4.44,0,0,1.7-3.39.98-4.48Z"/>
      <path class="cls-2" d="M132.45,62.12s5.44-2.41,10.16-1.54c0,0-4.77-3.85-10.16,1.54Z"/>
      <path class="cls-2" d="M143.29,75.27s2.17.05,3.76-.43c0,0-.63,1.35-.91,1.88,0,0,.92,1.93,1.35,2.36,0,0-1.26,1.3-1.88,1.59,0,0-1.37-.91-1.67-1.83,0,0,.42-1.11.81-1.97,0,0-1.2-.82-1.44-1.59Z"/>
      <path class="cls-2" d="M144.73,76.86s.82.05,1.4-.14c0,0-.66.75-1.4.14Z"/>
      <path class="cls-2" d="M147.96,55.09s1.01-1.49,3.18-1.01c0,0,2.17.34,3.03,1.88,0,0,1.16,2.12.29,3.56,0,0-1.01,1.46-3.66,1.16,0,0-3.66-.73-3.71-2.9,0,0-.1-1.41.87-2.7Z"/>
      <path class="cls-2" d="M148.25,56.78s.43-2.79,2.89-2.7c0,0,1.93.29,3.03,1.88,0,0,1.64,2.92-.31,4.11,0,0-2.34,1.44-4.26.26,0,0-1.7-1.29-1.35-3.55Z"/>
      <path class="cls-2" d="M133.89,61.58s-2.07-4.46.78-5.43c0,0,3.27-.92,2.87,4.5,0,0-2.92.33-3.64.93Z"/>
      <path class="cls-2" d="M134.33,61.34s-1.68-4.37,1.04-4.8c0,0,2.43-.72,2.17,4.12,0,0-2.51.36-3.21.69Z"/>
      <path class="cls-2" d="M132.36,55.91s1.68-2.7,3.99-1.2c0,0-2.16-3.71-3.99,1.2Z"/>
      <path class="cls-2" d="M145.43,52.88s2.6-2.6,6.08.24c0,0-1-2.84-4.22-2.41,0,0-1.64.24-1.85,2.17Z"/>
      <path class="cls-4" d="M139.76,49.28s-7.21,2.11-7.3,12.85c0,0,2.72-1,3.9-1.24,0,0-4.03-3.94,3.4-11.61Z"/>
      <path class="cls-6" d="M131.21,62.72s-4.24,2.07-2.87,6.3c0,0,.65,1.82,4.19,2.37,0,0,.7,1.66,4.98,2.24,0,0,2.04,2.83,2.23,3.08s-.19-.25-.19-.25c0,0-2.35,2.98-8.02.92,0,0-1.06-.78-1.83-.15,0,0-1.54,2.28,2.75,4.44,0,0,3.37,1.88,10.84,1.93,0,0,1.57,3.95-1.19,10.98,0,0-2.88,6.99-4.56,9.6,0,0-1.53,2.9-2.51,3.75,0,0-2.45,3.38-1.11,5.51,0,0,.26,1.18,2.69-.7,0,0,3.12-3.51,5.82-2.12,0,0,5.59,3.42,7.87,2.09,0,0,1.06-.66-.22-1.59,0,0-6.25-4.41-6.45-7.63,0,0-.08-1.43,3.12-3.71,0,0,3.5-2.24,5.26-3.64,0,0,5.65-4.12,7.64-8.64,0,0,.92-1.21,2.95-2.1,0,0,3.11-.89,3.84-2.48,0,0,1.64-3.29-.64-6.86,0,0-2.72-2.39-2.36-5.11,0,0,.77-16.35-9.04-21.19,0,0,6.32,3.97,7.09,18.71,0,0-.29,3.47,1.97,5.73,0,0,3.61,2.84,2.17,6.45,0,0-.77,1.63-3.56,1.13,0,0-1.11-.4-.39-1.99,0,0,.43-.56-.05-1.37,0,0-1.69-1.24-2.89.11,0,0,.89.94-.83,4.18,0,0-2.83,5.02-4.37,7.52,0,0-3.27,4.29-8.11,8.23,0,0-1.66,1.25-3.15,2.74,0,0-1.08,1.25-1.62.14,0,0-.55-.48.75-2.89,0,0,2.31-3.47,3.32-6.02,0,0,1.93-4.35,1.4-10.67,0,0-.19-1.51,1.06-2.42l-1.59,1.3s-.91-1.16-.87-1.78c0,0,.53-1.79.96-1.98,0,0-1.35-1.15-.96-1.68,0,0-.67-1.06-1.2-1.25,0,0-5.83.67-8.52-3.61,0,0-.58-1.06.27-2.17,0,0-1.14.61-1.55,1.04,0,0-3.24-.62-3.58-3.06,0,0-.55-2.49,1.06-3.44Z"/>
      <ellipse class="cls-2" cx="151.51" cy="57.59" rx="1.3" ry="1.5" transform="translate(-8.51 31.81) rotate(-11.66)"/>
      <ellipse class="cls-2" cx="135.64" cy="59" rx="1.09" ry="1.37" transform="translate(-9.12 28.63) rotate(-11.66)"/>
      <path class="cls-2" d="M153.59,62.12l-.48-6.03c-.1-.73-.67-.81-.67-.81-4.48-1.2-11.22.19-11.22.19-.48.14-.56.62-.56.62v2.51c-1.86-.58-4.3.39-4.3.39v-2.34c-.1-.89-.84-.75-.84-.75-.5-.05-6,1.73-6,1.73-.43.14-.39.73-.39.73v6.07l.45-.5-.06-5.1c0-.73.29-.71.29-.71.39-.29,5.19-1.5,5.19-1.5.53-.3.65.29.65.29v4.14l.71-.18v-.78c1.73-.81,4.3-.25,4.3-.25v2.46c.11.39.75.48.75.48,2.7-.34,11.85,0,11.85,0,.48,0,.34-.67.34-.67ZM152.34,62.12c-1.27-.29-10.4,0-10.4,0-.72,0-.57-.54-.57-.54v-5.08c0-.52.57-.59.57-.59,3.76-1.06,9.97-.21,9.97-.21.58.08.63.39.63.39l.48,5.49c.05.61-.67.54-.67.54Z"/>
    </g>
  </g>
</svg>