<svg xmlns="http://www.w3.org/2000/svg" viewBox="0 0 160 200" width="160" height="200">
  <!-- 影 -->
  <ellipse cx="80" cy="197" rx="54" ry="6" fill="rgba(0,0,0,0.12)"/>
  <!-- しっぽ -->
  <path d="M 30,108 Q 6,82 18,58 Q 26,46 34,56" stroke="#C07830" stroke-width="11" stroke-linecap="round" fill="none"/>
  <!-- 胴体 -->
  <ellipse cx="80" cy="132" rx="52" ry="36" fill="#E8A84A"/>
  <!-- 首 -->
  <ellipse cx="116" cy="108" rx="16" ry="22" fill="#E8A84A"/>
  <!-- 頭 -->
  <circle cx="120" cy="78" r="34" fill="#E8A84A"/>
  <!-- 耳（たれ耳） -->
  <ellipse cx="103" cy="58" rx="13" ry="24" fill="#C07830" transform="rotate(-22,103,58)"/>
  <!-- 吻部 -->
  <ellipse cx="147" cy="86" rx="14" ry="11" fill="#D49040"/>
  <!-- 目 -->
  <circle cx="131" cy="70" r="8" fill="#1a1a1a"/>
  <circle cx="134" cy="67" r="3" fill="white"/>
  <!-- 鼻 -->
  <ellipse cx="153" cy="81" rx="7" ry="6" fill="#1a1a1a"/>
  <!-- 口 -->
  <path d="M 148,88 Q 153,94 158,88" stroke="#1a1a1a" stroke-width="2" fill="none" stroke-linecap="round"/>
  <!-- 舌 -->
  <ellipse cx="153" cy="97" rx="5.5" ry="7" fill="#E85060"/>
  <!-- 首輪 -->
  <rect x="105" y="100" width="29" height="9" rx="4.5" fill="#3B82F6"/>
  <circle cx="119" cy="109" r="3.5" fill="#FFD700"/>
  <!-- 後ろ足 -->
  <rect x="37" y="158" width="15" height="40" rx="7.5" fill="#D49040"/>
  <rect x="57" y="163" width="15" height="37" rx="7.5" fill="#D49040" transform="rotate(12,57,163)"/>
  <!-- 前足 -->
  <rect x="104" y="160" width="15" height="40" rx="7.5" fill="#D49040" transform="rotate(-14,104,160)"/>
  <rect x="122" y="158" width="15" height="40" rx="7.5" fill="#D49040"/>
</svg>
