<svg xmlns="http://www.w3.org/2000/svg" viewBox="0 0 140 220" width="140" height="220">
  <!-- 影 -->
  <ellipse cx="70" cy="216" rx="42" ry="6" fill="rgba(0,0,0,0.12)"/>
  <!-- 胴体 -->
  <ellipse cx="70" cy="138" rx="38" ry="54" fill="#1a1a2e"/>
  <!-- お腹（白） -->
  <ellipse cx="70" cy="148" rx="24" ry="40" fill="#f5f5f5"/>
  <!-- 頭 -->
  <circle cx="70" cy="68" r="34" fill="#1a1a2e"/>
  <!-- 顔（白） -->
  <ellipse cx="74" cy="77" rx="20" ry="22" fill="#f5f5f5"/>
  <!-- 目 -->
  <circle cx="62" cy="62" r="7" fill="white"/>
  <circle cx="64" cy="62" r="5" fill="#1a1a2e"/>
  <circle cx="65" cy="60" r="2" fill="white"/>
  <circle cx="80" cy="62" r="7" fill="white"/>
  <circle cx="82" cy="62" r="5" fill="#1a1a2e"/>
  <circle cx="83" cy="60" r="2" fill="white"/>
  <!-- くちばし -->
  <polygon points="82,77 96,81 82,85" fill="#FF9800"/>
  <!-- つばさ -->
  <ellipse cx="30" cy="132" rx="13" ry="38" fill="#1a1a2e" transform="rotate(-8,30,132)"/>
  <ellipse cx="110" cy="132" rx="13" ry="38" fill="#1a1a2e" transform="rotate(8,110,132)"/>
  <!-- マフラー -->
  <rect x="42" y="98" width="56" height="13" rx="6" fill="#E53935"/>
  <ellipse cx="42" cy="104" rx="8" ry="8" fill="#E53935"/>
  <path d="M 34,104 Q 34,118 42,120" stroke="#E53935" stroke-width="6" stroke-linecap="round" fill="none"/>
  <!-- 足（オレンジ） -->
  <rect x="47" y="184" width="13" height="16" rx="5" fill="#FF9800"/>
  <rect x="80" y="184" width="13" height="16" rx="5" fill="#FF9800"/>
  <!-- 水かき足 -->
  <ellipse cx="53" cy="200" rx="18" ry="9" fill="#FF9800" transform="rotate(-8,53,200)"/>
  <ellipse cx="87" cy="202" rx="18" ry="9" fill="#FF9800" transform="rotate(10,87,202)"/>
</svg>
