<svg xmlns="http://www.w3.org/2000/svg" viewBox="0 0 160 210" width="160" height="210">
  <!-- 影 -->
  <ellipse cx="80" cy="206" rx="48" ry="6" fill="rgba(0,0,0,0.12)"/>
  <!-- しっぽ（上に丸まる） -->
  <path d="M 28,122 Q 5,96 10,66 Q 14,42 32,46 Q 44,48 40,62" stroke="#D0621A" stroke-width="10" stroke-linecap="round" fill="none"/>
  <!-- 胴体 -->
  <ellipse cx="80" cy="134" rx="46" ry="34" fill="#F08030"/>
  <!-- お腹（白） -->
  <ellipse cx="78" cy="140" rx="28" ry="22" fill="#FDE8C8"/>
  <!-- 首 -->
  <ellipse cx="114" cy="108" rx="15" ry="20" fill="#F08030"/>
  <!-- 頭 -->
  <circle cx="116" cy="76" r="31" fill="#F08030"/>
  <!-- 耳（三角） -->
  <polygon points="96,52  104,26  116,50" fill="#F08030"/>
  <polygon points="99,50  104,30  114,48" fill="#E88AAA"/>
  <polygon points="122,50 132,26 142,50" fill="#F08030"/>
  <polygon points="124,49 132,30 140,49" fill="#E88AAA"/>
  <!-- 吻部 -->
  <ellipse cx="138" cy="83" rx="13" ry="10" fill="#F5A050"/>
  <!-- 目（猫目） -->
  <ellipse cx="106" cy="70" rx="8" ry="8" fill="#4CAF50"/>
  <ellipse cx="106" cy="70" rx="3" ry="7.5" fill="#1a1a1a"/>
  <circle cx="104" cy="67" r="2.5" fill="white"/>
  <ellipse cx="126" cy="70" rx="8" ry="8" fill="#4CAF50"/>
  <ellipse cx="126" cy="70" rx="3" ry="7.5" fill="#1a1a1a"/>
  <circle cx="124" cy="67" r="2.5" fill="white"/>
  <!-- 鼻（ハート型ピンク） -->
  <path d="M 135,79 Q 138,75 141,79 Q 144,75 147,79 L 141,86 Z" fill="#E070AA"/>
  <!-- 口 -->
  <path d="M 135,87 Q 141,92 147,87" stroke="#1a1a1a" stroke-width="1.5" fill="none" stroke-linecap="round"/>
  <!-- ひげ -->
  <line x1="116" y1="82" x2="150" y2="77" stroke="#555" stroke-width="1.2" opacity="0.6"/>
  <line x1="116" y1="86" x2="150" y2="86" stroke="#555" stroke-width="1.2" opacity="0.6"/>
  <line x1="116" y1="90" x2="150" y2="95" stroke="#555" stroke-width="1.2" opacity="0.6"/>
  <!-- トラ模様 -->
  <path d="M 56,115 Q 60,105 58,95" stroke="#D0621A" stroke-width="4" stroke-linecap="round" fill="none" opacity="0.5"/>
  <path d="M 70,112 Q 74,102 72,90" stroke="#D0621A" stroke-width="4" stroke-linecap="round" fill="none" opacity="0.5"/>
  <!-- 後ろ足 -->
  <rect x="40" y="158" width="14" height="44" rx="7" fill="#D0621A"/>
  <rect x="58" y="163" width="14" height="40" rx="7" fill="#D0621A" transform="rotate(13,58,163)"/>
  <!-- 前足 -->
  <rect x="103" y="160" width="14" height="44" rx="7" fill="#D0621A" transform="rotate(-16,103,160)"/>
  <rect x="120" y="158" width="14" height="44" rx="7" fill="#D0621A"/>
</svg>
